G04 #@! TF.GenerationSoftware,KiCad,Pcbnew,9.0.3*
G04 #@! TF.CreationDate,2025-10-12T17:28:26-05:00*
G04 #@! TF.ProjectId,OSO-SWAT-C1,4f534f2d-5357-4415-942d-43312e6b6963,rev?*
G04 #@! TF.SameCoordinates,Original*
G04 #@! TF.FileFunction,Copper,L3,Inr*
G04 #@! TF.FilePolarity,Positive*
%FSLAX46Y46*%
G04 Gerber Fmt 4.6, Leading zero omitted, Abs format (unit mm)*
G04 Created by KiCad (PCBNEW 9.0.3) date 2025-10-12 17:28:26*
%MOMM*%
%LPD*%
G01*
G04 APERTURE LIST*
G04 Aperture macros list*
%AMRoundRect*
0 Rectangle with rounded corners*
0 $1 Rounding radius*
0 $2 $3 $4 $5 $6 $7 $8 $9 X,Y pos of 4 corners*
0 Add a 4 corners polygon primitive as box body*
4,1,4,$2,$3,$4,$5,$6,$7,$8,$9,$2,$3,0*
0 Add four circle primitives for the rounded corners*
1,1,$1+$1,$2,$3*
1,1,$1+$1,$4,$5*
1,1,$1+$1,$6,$7*
1,1,$1+$1,$8,$9*
0 Add four rect primitives between the rounded corners*
20,1,$1+$1,$2,$3,$4,$5,0*
20,1,$1+$1,$4,$5,$6,$7,0*
20,1,$1+$1,$6,$7,$8,$9,0*
20,1,$1+$1,$8,$9,$2,$3,0*%
G04 Aperture macros list end*
G04 #@! TA.AperFunction,ComponentPad*
%ADD10C,1.600000*%
G04 #@! TD*
G04 #@! TA.AperFunction,ComponentPad*
%ADD11O,2.000000X1.700000*%
G04 #@! TD*
G04 #@! TA.AperFunction,ComponentPad*
%ADD12RoundRect,0.250000X0.750000X-0.600000X0.750000X0.600000X-0.750000X0.600000X-0.750000X-0.600000X0*%
G04 #@! TD*
G04 #@! TA.AperFunction,ComponentPad*
%ADD13C,1.200000*%
G04 #@! TD*
G04 #@! TA.AperFunction,ComponentPad*
%ADD14R,4.500000X2.500000*%
G04 #@! TD*
G04 #@! TA.AperFunction,ComponentPad*
%ADD15O,4.500000X2.500000*%
G04 #@! TD*
G04 #@! TA.AperFunction,ComponentPad*
%ADD16RoundRect,0.250000X-0.650000X-1.550000X0.650000X-1.550000X0.650000X1.550000X-0.650000X1.550000X0*%
G04 #@! TD*
G04 #@! TA.AperFunction,ComponentPad*
%ADD17O,1.800000X3.600000*%
G04 #@! TD*
G04 #@! TA.AperFunction,ComponentPad*
%ADD18RoundRect,0.250001X1.149999X1.149999X-1.149999X1.149999X-1.149999X-1.149999X1.149999X-1.149999X0*%
G04 #@! TD*
G04 #@! TA.AperFunction,ComponentPad*
%ADD19C,2.800000*%
G04 #@! TD*
G04 #@! TA.AperFunction,ComponentPad*
%ADD20RoundRect,0.250000X0.750000X1.550000X-0.750000X1.550000X-0.750000X-1.550000X0.750000X-1.550000X0*%
G04 #@! TD*
G04 #@! TA.AperFunction,ComponentPad*
%ADD21O,2.000000X3.600000*%
G04 #@! TD*
G04 #@! TA.AperFunction,ComponentPad*
%ADD22R,1.308000X1.308000*%
G04 #@! TD*
G04 #@! TA.AperFunction,ComponentPad*
%ADD23C,1.308000*%
G04 #@! TD*
G04 #@! TA.AperFunction,ViaPad*
%ADD24C,0.600000*%
G04 #@! TD*
G04 #@! TA.AperFunction,ViaPad*
%ADD25C,2.450000*%
G04 #@! TD*
G04 #@! TA.AperFunction,ViaPad*
%ADD26C,1.000000*%
G04 #@! TD*
G04 APERTURE END LIST*
D10*
G04 #@! TO.N,GND*
G04 #@! TO.C,REF\u002A\u002A*
X106990000Y-154470000D03*
G04 #@! TO.N,INPUT*
X117150000Y-154470000D03*
G04 #@! TD*
D11*
G04 #@! TO.N,INPUT*
G04 #@! TO.C,REF\u002A\u002A*
X115730000Y-159470000D03*
D12*
X115730000Y-161970000D03*
G04 #@! TD*
D10*
G04 #@! TO.N,GND*
G04 #@! TO.C,REF\u002A\u002A*
X116685000Y-82470000D03*
G04 #@! TO.N,VCC*
X114185000Y-82470000D03*
G04 #@! TD*
D13*
G04 #@! TO.N,VCC*
G04 #@! TO.C,REF\u002A\u002A*
X114375000Y-86350000D03*
G04 #@! TO.N,GND*
X115875000Y-86350000D03*
G04 #@! TD*
D14*
G04 #@! TO.N,Gate1*
G04 #@! TO.C,REF\u002A\u002A*
X99065000Y-107380000D03*
D15*
G04 #@! TO.N,Drain*
X99065000Y-101930000D03*
G04 #@! TO.N,Source*
X99065000Y-96480000D03*
G04 #@! TD*
D10*
G04 #@! TO.N,Source*
G04 #@! TO.C,REF\u002A\u002A*
X84905000Y-123840000D03*
G04 #@! TO.N,Gate2*
X95065000Y-123840000D03*
G04 #@! TD*
G04 #@! TO.N,Gate3*
G04 #@! TO.C,REF\u002A\u002A*
X103455000Y-140200000D03*
G04 #@! TO.N,OUTPUT*
X113615000Y-140200000D03*
G04 #@! TD*
G04 #@! TO.N,Source*
G04 #@! TO.C,REF\u002A\u002A*
X84995000Y-107400000D03*
G04 #@! TO.N,Gate1*
X95155000Y-107400000D03*
G04 #@! TD*
D16*
G04 #@! TO.N,Source*
G04 #@! TO.C,REF\u002A\u002A*
X88887500Y-161487500D03*
D17*
G04 #@! TO.N,Gate3*
X93967500Y-161487500D03*
G04 #@! TO.N,Gate2*
X99047500Y-161487500D03*
G04 #@! TO.N,Gate1*
X104127500Y-161487500D03*
G04 #@! TO.N,Drain*
X109207500Y-161487500D03*
G04 #@! TD*
D18*
G04 #@! TO.N,Drain*
G04 #@! TO.C,REF\u002A\u002A*
X96600000Y-85880000D03*
D19*
G04 #@! TO.N,Source*
X86440000Y-85880000D03*
G04 #@! TD*
D14*
G04 #@! TO.N,Gate2*
G04 #@! TO.C,REF\u002A\u002A*
X99065000Y-123780000D03*
D15*
G04 #@! TO.N,Drain*
X99065000Y-118330000D03*
G04 #@! TO.N,Source*
X99065000Y-112880000D03*
G04 #@! TD*
D14*
G04 #@! TO.N,Gate3*
G04 #@! TO.C,REF\u002A\u002A*
X99065000Y-140180000D03*
D15*
G04 #@! TO.N,Drain*
X99065000Y-134730000D03*
G04 #@! TO.N,Source*
X99065000Y-129280000D03*
G04 #@! TD*
D20*
G04 #@! TO.N,VCC*
G04 #@! TO.C,REF\u002A\u002A*
X111180000Y-75570000D03*
D21*
G04 #@! TO.N,GND*
X103680000Y-75570000D03*
G04 #@! TD*
D10*
G04 #@! TO.N,Gate1*
G04 #@! TO.C,REF\u002A\u002A*
X103585000Y-107360000D03*
G04 #@! TO.N,OUTPUT*
X113745000Y-107360000D03*
G04 #@! TD*
G04 #@! TO.N,Gate2*
G04 #@! TO.C,REF\u002A\u002A*
X103495000Y-123800000D03*
G04 #@! TO.N,OUTPUT*
X113655000Y-123800000D03*
G04 #@! TD*
G04 #@! TO.N,Source*
G04 #@! TO.C,REF\u002A\u002A*
X96650000Y-149380000D03*
G04 #@! TO.N,Drain*
X101650000Y-149380000D03*
G04 #@! TD*
G04 #@! TO.N,Source*
G04 #@! TO.C,REF\u002A\u002A*
X84865000Y-140240000D03*
G04 #@! TO.N,Gate3*
X95025000Y-140240000D03*
G04 #@! TD*
D22*
G04 #@! TO.N,VCC*
G04 #@! TO.C,REF\u002A\u002A*
X111180000Y-82165000D03*
D23*
G04 #@! TO.N,INPUT*
X108640000Y-82165000D03*
G04 #@! TO.N,NC*
X106100000Y-82165000D03*
G04 #@! TO.N,GND*
X103560000Y-82165000D03*
X103560000Y-90035000D03*
G04 #@! TO.N,OUTPUT*
X106100000Y-90035000D03*
X108640000Y-90035000D03*
G04 #@! TO.N,VCC*
X111180000Y-90035000D03*
G04 #@! TD*
D20*
G04 #@! TO.N,Drain*
G04 #@! TO.C,REF\u002A\u002A*
X95150000Y-75557500D03*
D21*
G04 #@! TO.N,Source*
X87650000Y-75557500D03*
G04 #@! TD*
D24*
G04 #@! TO.N,GND*
X82250000Y-71775000D03*
X84850000Y-71775000D03*
X83550000Y-71775000D03*
X80950000Y-164075000D03*
X82250000Y-164075000D03*
X84850000Y-164075000D03*
X83550000Y-164075000D03*
X80950000Y-158875000D03*
X80950000Y-156275000D03*
X80950000Y-162775000D03*
X80950000Y-164075000D03*
X80950000Y-160175000D03*
X80950000Y-157575000D03*
X80950000Y-161475000D03*
X80950000Y-96475000D03*
X80950000Y-93875000D03*
X80950000Y-112075000D03*
X80950000Y-126375000D03*
X80950000Y-122475000D03*
X80950000Y-127675000D03*
X80950000Y-114675000D03*
X80950000Y-121175000D03*
X80950000Y-92575000D03*
X80950000Y-125075000D03*
X80950000Y-134175000D03*
X80950000Y-100375000D03*
X80950000Y-101675000D03*
X80950000Y-97775000D03*
X80950000Y-110775000D03*
X80950000Y-128975000D03*
X80950000Y-115975000D03*
X80950000Y-109475000D03*
X80950000Y-123775000D03*
X80950000Y-102975000D03*
X80950000Y-95175000D03*
X80950000Y-104275000D03*
X80950000Y-117275000D03*
X80950000Y-131575000D03*
X80950000Y-130275000D03*
X80950000Y-113375000D03*
X80950000Y-119875000D03*
X80950000Y-132875000D03*
X80950000Y-99075000D03*
X80950000Y-108175000D03*
X80950000Y-106875000D03*
X80950000Y-105575000D03*
X80950000Y-118575000D03*
X80950000Y-141975000D03*
X80950000Y-140675000D03*
X80950000Y-138075000D03*
X80950000Y-154975000D03*
X80950000Y-143275000D03*
X80950000Y-139375000D03*
X80950000Y-149775000D03*
X80950000Y-152375000D03*
X80950000Y-134175000D03*
X80950000Y-151075000D03*
X80950000Y-148475000D03*
X80950000Y-135475000D03*
X80950000Y-153675000D03*
X80950000Y-147175000D03*
X80950000Y-144575000D03*
X80950000Y-136775000D03*
X80950000Y-145875000D03*
X80950000Y-87375000D03*
X80950000Y-84775000D03*
X80950000Y-83475000D03*
X80950000Y-89975000D03*
X80950000Y-92575000D03*
X80950000Y-86075000D03*
X80950000Y-91275000D03*
X80950000Y-88675000D03*
X80950000Y-82175000D03*
X80950000Y-79575000D03*
X80950000Y-78275000D03*
X80950000Y-80875000D03*
X80950000Y-76975000D03*
X80950000Y-75675000D03*
X80950000Y-74375000D03*
X80950000Y-73075000D03*
X80950000Y-71775000D03*
D25*
G04 #@! TO.N,INPUT*
X117240000Y-93080000D03*
D26*
G04 #@! TO.N,GND*
X107370000Y-86100000D03*
G04 #@! TO.N,INPUT*
X108640000Y-80440000D03*
G04 #@! TO.N,NC*
X106100000Y-80450000D03*
G04 #@! TD*
G04 #@! TA.AperFunction,Conductor*
G04 #@! TO.N,GND*
G36*
X118412539Y-71350185D02*
G01*
X118458294Y-71402989D01*
X118469500Y-71454500D01*
X118469500Y-91005292D01*
X118449815Y-91072331D01*
X118397011Y-91118086D01*
X118327853Y-91128030D01*
X118283500Y-91112679D01*
X118226428Y-91079728D01*
X118226413Y-91079721D01*
X117956896Y-90968084D01*
X117816001Y-90930332D01*
X117675105Y-90892579D01*
X117675099Y-90892578D01*
X117675094Y-90892577D01*
X117385876Y-90854501D01*
X117385873Y-90854500D01*
X117385867Y-90854500D01*
X117094133Y-90854500D01*
X117094127Y-90854500D01*
X117094123Y-90854501D01*
X116804905Y-90892577D01*
X116804898Y-90892578D01*
X116804895Y-90892579D01*
X116769187Y-90902147D01*
X116523103Y-90968084D01*
X116253584Y-91079722D01*
X116253567Y-91079730D01*
X116000921Y-91225597D01*
X115769479Y-91403188D01*
X115769472Y-91403194D01*
X115563194Y-91609472D01*
X115563188Y-91609479D01*
X115385597Y-91840921D01*
X115239730Y-92093567D01*
X115239722Y-92093584D01*
X115128084Y-92363103D01*
X115052580Y-92644892D01*
X115052577Y-92644905D01*
X115014501Y-92934123D01*
X115014500Y-92934139D01*
X115014500Y-93225860D01*
X115014501Y-93225876D01*
X115052577Y-93515094D01*
X115052578Y-93515099D01*
X115052579Y-93515105D01*
X115052580Y-93515107D01*
X115128084Y-93796896D01*
X115239722Y-94066415D01*
X115239730Y-94066432D01*
X115327437Y-94218343D01*
X115385594Y-94319074D01*
X115385596Y-94319077D01*
X115385597Y-94319078D01*
X115563188Y-94550520D01*
X115563194Y-94550527D01*
X115769472Y-94756805D01*
X115769478Y-94756810D01*
X116000926Y-94934406D01*
X116102343Y-94992959D01*
X116253567Y-95080269D01*
X116253572Y-95080271D01*
X116253575Y-95080273D01*
X116253579Y-95080274D01*
X116253584Y-95080277D01*
X116322013Y-95108621D01*
X116523102Y-95191915D01*
X116804895Y-95267421D01*
X117094133Y-95305500D01*
X117094140Y-95305500D01*
X117385860Y-95305500D01*
X117385867Y-95305500D01*
X117675105Y-95267421D01*
X117956898Y-95191915D01*
X118226425Y-95080273D01*
X118272451Y-95053700D01*
X118283500Y-95047321D01*
X118351400Y-95030848D01*
X118417427Y-95053700D01*
X118460617Y-95108621D01*
X118469500Y-95154708D01*
X118469500Y-152961560D01*
X118449815Y-153028599D01*
X118397011Y-153074354D01*
X118327853Y-153084298D01*
X118270014Y-153059936D01*
X118152454Y-152969730D01*
X118152453Y-152969729D01*
X118152450Y-152969727D01*
X118070957Y-152922677D01*
X117948056Y-152851719D01*
X117948045Y-152851714D01*
X117729993Y-152761394D01*
X117502010Y-152700306D01*
X117268020Y-152669501D01*
X117268017Y-152669500D01*
X117268011Y-152669500D01*
X117031989Y-152669500D01*
X117031983Y-152669500D01*
X117031979Y-152669501D01*
X116797989Y-152700306D01*
X116570006Y-152761394D01*
X116351954Y-152851714D01*
X116351943Y-152851719D01*
X116147545Y-152969730D01*
X115960302Y-153113406D01*
X115960295Y-153113412D01*
X115793412Y-153280295D01*
X115793406Y-153280302D01*
X115649730Y-153467545D01*
X115531719Y-153671943D01*
X115531714Y-153671954D01*
X115441394Y-153890006D01*
X115380306Y-154117989D01*
X115349501Y-154351979D01*
X115349500Y-154351995D01*
X115349500Y-154588004D01*
X115349501Y-154588020D01*
X115380306Y-154822010D01*
X115441394Y-155049993D01*
X115531714Y-155268045D01*
X115531719Y-155268056D01*
X115602677Y-155390957D01*
X115649727Y-155472450D01*
X115649729Y-155472453D01*
X115649730Y-155472454D01*
X115793406Y-155659697D01*
X115793412Y-155659704D01*
X115960295Y-155826587D01*
X115960301Y-155826592D01*
X116147550Y-155970273D01*
X116278918Y-156046118D01*
X116351943Y-156088280D01*
X116351948Y-156088282D01*
X116351951Y-156088284D01*
X116570007Y-156178606D01*
X116797986Y-156239693D01*
X117031989Y-156270500D01*
X117031996Y-156270500D01*
X117268004Y-156270500D01*
X117268011Y-156270500D01*
X117502014Y-156239693D01*
X117729993Y-156178606D01*
X117948049Y-156088284D01*
X118152450Y-155970273D01*
X118270015Y-155880062D01*
X118335183Y-155854869D01*
X118403627Y-155868907D01*
X118453617Y-155917721D01*
X118469500Y-155978439D01*
X118469500Y-164845500D01*
X118449815Y-164912539D01*
X118397011Y-164958294D01*
X118345500Y-164969500D01*
X80624500Y-164969500D01*
X80557461Y-164949815D01*
X80511706Y-164897011D01*
X80500500Y-164845500D01*
X80500500Y-159873277D01*
X86987000Y-159873277D01*
X86987000Y-163101708D01*
X86987001Y-163101723D01*
X86997404Y-163233913D01*
X86997405Y-163233920D01*
X87052402Y-163452178D01*
X87052403Y-163452181D01*
X87145491Y-163657122D01*
X87145497Y-163657132D01*
X87273674Y-163842145D01*
X87273678Y-163842150D01*
X87273681Y-163842154D01*
X87432846Y-164001319D01*
X87432850Y-164001322D01*
X87432854Y-164001325D01*
X87569022Y-164095662D01*
X87617874Y-164129507D01*
X87822817Y-164222596D01*
X87822821Y-164222597D01*
X88041079Y-164277594D01*
X88041081Y-164277594D01*
X88041088Y-164277596D01*
X88173283Y-164288000D01*
X89601716Y-164287999D01*
X89733912Y-164277596D01*
X89952183Y-164222596D01*
X90157126Y-164129507D01*
X90342154Y-164001319D01*
X90501319Y-163842154D01*
X90629507Y-163657126D01*
X90722596Y-163452183D01*
X90777596Y-163233912D01*
X90788000Y-163101717D01*
X90787999Y-160462941D01*
X92067000Y-160462941D01*
X92067000Y-162512058D01*
X92067001Y-162512075D01*
X92099517Y-162759061D01*
X92163998Y-162999707D01*
X92259330Y-163229861D01*
X92259337Y-163229876D01*
X92383900Y-163445626D01*
X92535560Y-163643274D01*
X92535566Y-163643281D01*
X92711718Y-163819433D01*
X92711725Y-163819439D01*
X92909373Y-163971099D01*
X93125123Y-164095662D01*
X93125138Y-164095669D01*
X93224325Y-164136753D01*
X93355293Y-164191002D01*
X93595935Y-164255482D01*
X93842935Y-164288000D01*
X93842942Y-164288000D01*
X94092058Y-164288000D01*
X94092065Y-164288000D01*
X94339065Y-164255482D01*
X94579707Y-164191002D01*
X94809873Y-164095664D01*
X95025627Y-163971099D01*
X95223276Y-163819438D01*
X95399438Y-163643276D01*
X95551099Y-163445627D01*
X95675664Y-163229873D01*
X95771002Y-162999707D01*
X95835482Y-162759065D01*
X95868000Y-162512065D01*
X95868000Y-160462941D01*
X97147000Y-160462941D01*
X97147000Y-162512058D01*
X97147001Y-162512075D01*
X97179517Y-162759061D01*
X97243998Y-162999707D01*
X97339330Y-163229861D01*
X97339337Y-163229876D01*
X97463900Y-163445626D01*
X97615560Y-163643274D01*
X97615566Y-163643281D01*
X97791718Y-163819433D01*
X97791725Y-163819439D01*
X97989373Y-163971099D01*
X98205123Y-164095662D01*
X98205138Y-164095669D01*
X98304325Y-164136753D01*
X98435293Y-164191002D01*
X98675935Y-164255482D01*
X98922935Y-164288000D01*
X98922942Y-164288000D01*
X99172058Y-164288000D01*
X99172065Y-164288000D01*
X99419065Y-164255482D01*
X99659707Y-164191002D01*
X99889873Y-164095664D01*
X100105627Y-163971099D01*
X100303276Y-163819438D01*
X100479438Y-163643276D01*
X100631099Y-163445627D01*
X100755664Y-163229873D01*
X100851002Y-162999707D01*
X100915482Y-162759065D01*
X100948000Y-162512065D01*
X100948000Y-160462941D01*
X102227000Y-160462941D01*
X102227000Y-162512058D01*
X102227001Y-162512075D01*
X102259517Y-162759061D01*
X102323998Y-162999707D01*
X102419330Y-163229861D01*
X102419337Y-163229876D01*
X102543900Y-163445626D01*
X102695560Y-163643274D01*
X102695566Y-163643281D01*
X102871718Y-163819433D01*
X102871725Y-163819439D01*
X103069373Y-163971099D01*
X103285123Y-164095662D01*
X103285138Y-164095669D01*
X103384325Y-164136753D01*
X103515293Y-164191002D01*
X103755935Y-164255482D01*
X104002935Y-164288000D01*
X104002942Y-164288000D01*
X104252058Y-164288000D01*
X104252065Y-164288000D01*
X104499065Y-164255482D01*
X104739707Y-164191002D01*
X104969873Y-164095664D01*
X105185627Y-163971099D01*
X105383276Y-163819438D01*
X105559438Y-163643276D01*
X105711099Y-163445627D01*
X105835664Y-163229873D01*
X105931002Y-162999707D01*
X105995482Y-162759065D01*
X106028000Y-162512065D01*
X106028000Y-160462941D01*
X107307000Y-160462941D01*
X107307000Y-162512058D01*
X107307001Y-162512075D01*
X107339517Y-162759061D01*
X107403998Y-162999707D01*
X107499330Y-163229861D01*
X107499337Y-163229876D01*
X107623900Y-163445626D01*
X107775560Y-163643274D01*
X107775566Y-163643281D01*
X107951718Y-163819433D01*
X107951725Y-163819439D01*
X108149373Y-163971099D01*
X108365123Y-164095662D01*
X108365138Y-164095669D01*
X108464325Y-164136753D01*
X108595293Y-164191002D01*
X108835935Y-164255482D01*
X109082935Y-164288000D01*
X109082942Y-164288000D01*
X109332058Y-164288000D01*
X109332065Y-164288000D01*
X109579065Y-164255482D01*
X109819707Y-164191002D01*
X110049873Y-164095664D01*
X110265627Y-163971099D01*
X110463276Y-163819438D01*
X110639438Y-163643276D01*
X110791099Y-163445627D01*
X110915664Y-163229873D01*
X111011002Y-162999707D01*
X111075482Y-162759065D01*
X111108000Y-162512065D01*
X111108000Y-160462935D01*
X111075482Y-160215935D01*
X111011002Y-159975293D01*
X110915664Y-159745127D01*
X110826845Y-159591288D01*
X110791099Y-159529373D01*
X110707281Y-159420139D01*
X110652473Y-159348711D01*
X113729500Y-159348711D01*
X113729500Y-159591288D01*
X113761161Y-159831785D01*
X113823947Y-160066104D01*
X113916773Y-160290205D01*
X113916777Y-160290215D01*
X114009322Y-160450508D01*
X114025795Y-160518409D01*
X114003863Y-160583124D01*
X113887997Y-160750367D01*
X113887991Y-160750377D01*
X113794903Y-160955318D01*
X113794902Y-160955321D01*
X113739905Y-161173579D01*
X113739904Y-161173586D01*
X113729500Y-161305777D01*
X113729500Y-162634208D01*
X113729501Y-162634223D01*
X113739904Y-162766413D01*
X113739905Y-162766420D01*
X113794902Y-162984678D01*
X113794903Y-162984681D01*
X113887991Y-163189622D01*
X113887997Y-163189632D01*
X114016174Y-163374645D01*
X114016178Y-163374650D01*
X114016181Y-163374654D01*
X114175346Y-163533819D01*
X114175350Y-163533822D01*
X114175354Y-163533825D01*
X114314603Y-163630297D01*
X114360374Y-163662007D01*
X114565317Y-163755096D01*
X114565321Y-163755097D01*
X114783579Y-163810094D01*
X114783581Y-163810094D01*
X114783588Y-163810096D01*
X114915783Y-163820500D01*
X116544216Y-163820499D01*
X116676412Y-163810096D01*
X116894683Y-163755096D01*
X117099626Y-163662007D01*
X117284654Y-163533819D01*
X117443819Y-163374654D01*
X117572007Y-163189626D01*
X117665096Y-162984683D01*
X117720096Y-162766412D01*
X117730500Y-162634217D01*
X117730499Y-161305784D01*
X117720096Y-161173588D01*
X117665096Y-160955317D01*
X117572007Y-160750374D01*
X117572005Y-160750371D01*
X117572003Y-160750367D01*
X117456135Y-160583123D01*
X117434138Y-160516807D01*
X117450674Y-160450512D01*
X117543224Y-160290212D01*
X117636054Y-160066100D01*
X117698838Y-159831789D01*
X117730500Y-159591288D01*
X117730500Y-159348712D01*
X117698838Y-159108211D01*
X117636054Y-158873900D01*
X117543224Y-158649788D01*
X117421936Y-158439711D01*
X117274265Y-158247262D01*
X117274260Y-158247256D01*
X117102743Y-158075739D01*
X117102736Y-158075733D01*
X116910293Y-157928067D01*
X116910292Y-157928066D01*
X116910289Y-157928064D01*
X116700212Y-157806776D01*
X116700205Y-157806773D01*
X116476104Y-157713947D01*
X116241785Y-157651161D01*
X116001289Y-157619500D01*
X116001288Y-157619500D01*
X115458712Y-157619500D01*
X115458711Y-157619500D01*
X115218214Y-157651161D01*
X114983895Y-157713947D01*
X114759794Y-157806773D01*
X114759785Y-157806777D01*
X114549706Y-157928067D01*
X114357263Y-158075733D01*
X114357256Y-158075739D01*
X114185739Y-158247256D01*
X114185733Y-158247263D01*
X114038067Y-158439706D01*
X113916777Y-158649785D01*
X113916773Y-158649794D01*
X113823947Y-158873895D01*
X113761161Y-159108214D01*
X113729500Y-159348711D01*
X110652473Y-159348711D01*
X110639439Y-159331725D01*
X110639433Y-159331718D01*
X110463281Y-159155566D01*
X110463274Y-159155560D01*
X110265626Y-159003900D01*
X110049876Y-158879337D01*
X110049861Y-158879330D01*
X109819707Y-158783998D01*
X109579061Y-158719517D01*
X109332075Y-158687001D01*
X109332070Y-158687000D01*
X109332065Y-158687000D01*
X109082935Y-158687000D01*
X109082929Y-158687000D01*
X109082924Y-158687001D01*
X108835938Y-158719517D01*
X108595292Y-158783998D01*
X108365138Y-158879330D01*
X108365123Y-158879337D01*
X108149373Y-159003900D01*
X107951725Y-159155560D01*
X107951718Y-159155566D01*
X107775566Y-159331718D01*
X107775560Y-159331725D01*
X107623900Y-159529373D01*
X107499337Y-159745123D01*
X107499330Y-159745138D01*
X107403998Y-159975292D01*
X107339517Y-160215938D01*
X107307001Y-160462924D01*
X107307000Y-160462941D01*
X106028000Y-160462941D01*
X106028000Y-160462935D01*
X105995482Y-160215935D01*
X105931002Y-159975293D01*
X105835664Y-159745127D01*
X105746845Y-159591288D01*
X105711099Y-159529373D01*
X105559439Y-159331725D01*
X105559433Y-159331718D01*
X105383281Y-159155566D01*
X105383274Y-159155560D01*
X105185626Y-159003900D01*
X104969876Y-158879337D01*
X104969861Y-158879330D01*
X104739707Y-158783998D01*
X104499061Y-158719517D01*
X104252075Y-158687001D01*
X104252070Y-158687000D01*
X104252065Y-158687000D01*
X104002935Y-158687000D01*
X104002929Y-158687000D01*
X104002924Y-158687001D01*
X103755938Y-158719517D01*
X103515292Y-158783998D01*
X103285138Y-158879330D01*
X103285123Y-158879337D01*
X103069373Y-159003900D01*
X102871725Y-159155560D01*
X102871718Y-159155566D01*
X102695566Y-159331718D01*
X102695560Y-159331725D01*
X102543900Y-159529373D01*
X102419337Y-159745123D01*
X102419330Y-159745138D01*
X102323998Y-159975292D01*
X102259517Y-160215938D01*
X102227001Y-160462924D01*
X102227000Y-160462941D01*
X100948000Y-160462941D01*
X100948000Y-160462935D01*
X100915482Y-160215935D01*
X100851002Y-159975293D01*
X100755664Y-159745127D01*
X100666845Y-159591288D01*
X100631099Y-159529373D01*
X100479439Y-159331725D01*
X100479433Y-159331718D01*
X100303281Y-159155566D01*
X100303274Y-159155560D01*
X100105626Y-159003900D01*
X99889876Y-158879337D01*
X99889861Y-158879330D01*
X99659707Y-158783998D01*
X99419061Y-158719517D01*
X99172075Y-158687001D01*
X99172070Y-158687000D01*
X99172065Y-158687000D01*
X98922935Y-158687000D01*
X98922929Y-158687000D01*
X98922924Y-158687001D01*
X98675938Y-158719517D01*
X98435292Y-158783998D01*
X98205138Y-158879330D01*
X98205123Y-158879337D01*
X97989373Y-159003900D01*
X97791725Y-159155560D01*
X97791718Y-159155566D01*
X97615566Y-159331718D01*
X97615560Y-159331725D01*
X97463900Y-159529373D01*
X97339337Y-159745123D01*
X97339330Y-159745138D01*
X97243998Y-159975292D01*
X97179517Y-160215938D01*
X97147001Y-160462924D01*
X97147000Y-160462941D01*
X95868000Y-160462941D01*
X95868000Y-160462935D01*
X95835482Y-160215935D01*
X95771002Y-159975293D01*
X95675664Y-159745127D01*
X95586845Y-159591288D01*
X95551099Y-159529373D01*
X95399439Y-159331725D01*
X95399433Y-159331718D01*
X95223281Y-159155566D01*
X95223274Y-159155560D01*
X95025626Y-159003900D01*
X94809876Y-158879337D01*
X94809861Y-158879330D01*
X94579707Y-158783998D01*
X94339061Y-158719517D01*
X94092075Y-158687001D01*
X94092070Y-158687000D01*
X94092065Y-158687000D01*
X93842935Y-158687000D01*
X93842929Y-158687000D01*
X93842924Y-158687001D01*
X93595938Y-158719517D01*
X93355292Y-158783998D01*
X93125138Y-158879330D01*
X93125123Y-158879337D01*
X92909373Y-159003900D01*
X92711725Y-159155560D01*
X92711718Y-159155566D01*
X92535566Y-159331718D01*
X92535560Y-159331725D01*
X92383900Y-159529373D01*
X92259337Y-159745123D01*
X92259330Y-159745138D01*
X92163998Y-159975292D01*
X92099517Y-160215938D01*
X92067001Y-160462924D01*
X92067000Y-160462941D01*
X90787999Y-160462941D01*
X90787999Y-159873284D01*
X90777596Y-159741088D01*
X90722596Y-159522817D01*
X90629507Y-159317874D01*
X90597797Y-159272103D01*
X90501325Y-159132854D01*
X90501322Y-159132850D01*
X90501319Y-159132846D01*
X90342154Y-158973681D01*
X90342150Y-158973678D01*
X90342145Y-158973674D01*
X90157132Y-158845497D01*
X90157130Y-158845495D01*
X90157126Y-158845493D01*
X89952183Y-158752404D01*
X89952181Y-158752403D01*
X89952178Y-158752402D01*
X89733920Y-158697405D01*
X89733913Y-158697404D01*
X89689847Y-158693936D01*
X89601717Y-158687000D01*
X89601715Y-158687000D01*
X88173291Y-158687000D01*
X88173276Y-158687001D01*
X88041086Y-158697404D01*
X88041079Y-158697405D01*
X87822821Y-158752402D01*
X87822818Y-158752403D01*
X87617877Y-158845491D01*
X87617867Y-158845497D01*
X87432854Y-158973674D01*
X87432842Y-158973684D01*
X87273684Y-159132842D01*
X87273674Y-159132854D01*
X87145497Y-159317867D01*
X87145491Y-159317877D01*
X87052403Y-159522818D01*
X87052402Y-159522821D01*
X86997405Y-159741079D01*
X86997404Y-159741086D01*
X86987000Y-159873277D01*
X80500500Y-159873277D01*
X80500500Y-155428964D01*
X106561364Y-155428964D01*
X106683729Y-155479650D01*
X106683733Y-155479651D01*
X106886579Y-155519999D01*
X106886583Y-155520000D01*
X107093417Y-155520000D01*
X107093420Y-155519999D01*
X107296266Y-155479651D01*
X107296270Y-155479650D01*
X107418635Y-155428964D01*
X106990001Y-155000330D01*
X106990000Y-155000330D01*
X106561364Y-155428964D01*
X80500500Y-155428964D01*
X80500500Y-154366579D01*
X105940000Y-154366579D01*
X105940000Y-154573420D01*
X105980348Y-154776266D01*
X105980350Y-154776274D01*
X106031034Y-154898635D01*
X106459670Y-154470000D01*
X106459670Y-154469999D01*
X106407010Y-154417339D01*
X106590000Y-154417339D01*
X106590000Y-154522661D01*
X106617259Y-154624394D01*
X106669920Y-154715606D01*
X106744394Y-154790080D01*
X106835606Y-154842741D01*
X106937339Y-154870000D01*
X107042661Y-154870000D01*
X107144394Y-154842741D01*
X107235606Y-154790080D01*
X107310080Y-154715606D01*
X107362741Y-154624394D01*
X107390000Y-154522661D01*
X107390000Y-154469999D01*
X107520330Y-154469999D01*
X107520330Y-154470001D01*
X107948964Y-154898635D01*
X107999650Y-154776270D01*
X107999651Y-154776266D01*
X108039999Y-154573420D01*
X108040000Y-154573417D01*
X108040000Y-154366583D01*
X108039999Y-154366579D01*
X107999651Y-154163733D01*
X107999650Y-154163729D01*
X107948964Y-154041364D01*
X107520330Y-154469999D01*
X107390000Y-154469999D01*
X107390000Y-154417339D01*
X107362741Y-154315606D01*
X107310080Y-154224394D01*
X107235606Y-154149920D01*
X107144394Y-154097259D01*
X107042661Y-154070000D01*
X106937339Y-154070000D01*
X106835606Y-154097259D01*
X106744394Y-154149920D01*
X106669920Y-154224394D01*
X106617259Y-154315606D01*
X106590000Y-154417339D01*
X106407010Y-154417339D01*
X106031034Y-154041363D01*
X105980351Y-154163723D01*
X105980348Y-154163733D01*
X105940000Y-154366579D01*
X80500500Y-154366579D01*
X80500500Y-153511034D01*
X106561363Y-153511034D01*
X106990000Y-153939670D01*
X106990001Y-153939670D01*
X107418635Y-153511034D01*
X107296274Y-153460350D01*
X107296266Y-153460348D01*
X107093420Y-153420000D01*
X106886579Y-153420000D01*
X106683733Y-153460348D01*
X106683723Y-153460351D01*
X106561363Y-153511034D01*
X80500500Y-153511034D01*
X80500500Y-149261995D01*
X94849500Y-149261995D01*
X94849500Y-149498004D01*
X94849501Y-149498020D01*
X94880306Y-149732010D01*
X94941394Y-149959993D01*
X95031714Y-150178045D01*
X95031719Y-150178056D01*
X95102677Y-150300957D01*
X95149727Y-150382450D01*
X95149729Y-150382453D01*
X95149730Y-150382454D01*
X95293406Y-150569697D01*
X95293412Y-150569704D01*
X95460295Y-150736587D01*
X95460301Y-150736592D01*
X95647550Y-150880273D01*
X95778918Y-150956118D01*
X95851943Y-150998280D01*
X95851948Y-150998282D01*
X95851951Y-150998284D01*
X96070007Y-151088606D01*
X96297986Y-151149693D01*
X96531989Y-151180500D01*
X96531996Y-151180500D01*
X96768004Y-151180500D01*
X96768011Y-151180500D01*
X97002014Y-151149693D01*
X97229993Y-151088606D01*
X97448049Y-150998284D01*
X97652450Y-150880273D01*
X97839699Y-150736592D01*
X98006592Y-150569699D01*
X98150273Y-150382450D01*
X98268284Y-150178049D01*
X98358606Y-149959993D01*
X98419693Y-149732014D01*
X98450500Y-149498011D01*
X98450500Y-149261995D01*
X99849500Y-149261995D01*
X99849500Y-149498004D01*
X99849501Y-149498020D01*
X99880306Y-149732010D01*
X99941394Y-149959993D01*
X100031714Y-150178045D01*
X100031719Y-150178056D01*
X100102677Y-150300957D01*
X100149727Y-150382450D01*
X100149729Y-150382453D01*
X100149730Y-150382454D01*
X100293406Y-150569697D01*
X100293412Y-150569704D01*
X100460295Y-150736587D01*
X100460301Y-150736592D01*
X100647550Y-150880273D01*
X100778918Y-150956118D01*
X100851943Y-150998280D01*
X100851948Y-150998282D01*
X100851951Y-150998284D01*
X101070007Y-151088606D01*
X101297986Y-151149693D01*
X101531989Y-151180500D01*
X101531996Y-151180500D01*
X101768004Y-151180500D01*
X101768011Y-151180500D01*
X102002014Y-151149693D01*
X102229993Y-151088606D01*
X102448049Y-150998284D01*
X102652450Y-150880273D01*
X102839699Y-150736592D01*
X103006592Y-150569699D01*
X103150273Y-150382450D01*
X103268284Y-150178049D01*
X103358606Y-149959993D01*
X103419693Y-149732014D01*
X103450500Y-149498011D01*
X103450500Y-149261989D01*
X103419693Y-149027986D01*
X103358606Y-148800007D01*
X103268284Y-148581951D01*
X103268282Y-148581948D01*
X103268280Y-148581943D01*
X103226118Y-148508918D01*
X103150273Y-148377550D01*
X103006592Y-148190301D01*
X103006587Y-148190295D01*
X102839704Y-148023412D01*
X102839697Y-148023406D01*
X102652454Y-147879730D01*
X102652453Y-147879729D01*
X102652450Y-147879727D01*
X102570957Y-147832677D01*
X102448056Y-147761719D01*
X102448045Y-147761714D01*
X102229993Y-147671394D01*
X102002010Y-147610306D01*
X101768020Y-147579501D01*
X101768017Y-147579500D01*
X101768011Y-147579500D01*
X101531989Y-147579500D01*
X101531983Y-147579500D01*
X101531979Y-147579501D01*
X101297989Y-147610306D01*
X101070006Y-147671394D01*
X100851954Y-147761714D01*
X100851943Y-147761719D01*
X100647545Y-147879730D01*
X100460302Y-148023406D01*
X100460295Y-148023412D01*
X100293412Y-148190295D01*
X100293406Y-148190302D01*
X100149730Y-148377545D01*
X100031719Y-148581943D01*
X100031714Y-148581954D01*
X99941394Y-148800006D01*
X99880306Y-149027989D01*
X99849501Y-149261979D01*
X99849500Y-149261995D01*
X98450500Y-149261995D01*
X98450500Y-149261989D01*
X98419693Y-149027986D01*
X98358606Y-148800007D01*
X98268284Y-148581951D01*
X98268282Y-148581948D01*
X98268280Y-148581943D01*
X98226118Y-148508918D01*
X98150273Y-148377550D01*
X98006592Y-148190301D01*
X98006587Y-148190295D01*
X97839704Y-148023412D01*
X97839697Y-148023406D01*
X97652454Y-147879730D01*
X97652453Y-147879729D01*
X97652450Y-147879727D01*
X97570957Y-147832677D01*
X97448056Y-147761719D01*
X97448045Y-147761714D01*
X97229993Y-147671394D01*
X97002010Y-147610306D01*
X96768020Y-147579501D01*
X96768017Y-147579500D01*
X96768011Y-147579500D01*
X96531989Y-147579500D01*
X96531983Y-147579500D01*
X96531979Y-147579501D01*
X96297989Y-147610306D01*
X96070006Y-147671394D01*
X95851954Y-147761714D01*
X95851943Y-147761719D01*
X95647545Y-147879730D01*
X95460302Y-148023406D01*
X95460295Y-148023412D01*
X95293412Y-148190295D01*
X95293406Y-148190302D01*
X95149730Y-148377545D01*
X95031719Y-148581943D01*
X95031714Y-148581954D01*
X94941394Y-148800006D01*
X94880306Y-149027989D01*
X94849501Y-149261979D01*
X94849500Y-149261995D01*
X80500500Y-149261995D01*
X80500500Y-140121995D01*
X83064500Y-140121995D01*
X83064500Y-140358004D01*
X83064501Y-140358020D01*
X83095306Y-140592010D01*
X83156394Y-140819993D01*
X83246714Y-141038045D01*
X83246719Y-141038056D01*
X83317677Y-141160957D01*
X83364727Y-141242450D01*
X83364729Y-141242453D01*
X83364730Y-141242454D01*
X83508406Y-141429697D01*
X83508412Y-141429704D01*
X83675295Y-141596587D01*
X83675302Y-141596593D01*
X83780541Y-141677345D01*
X83862550Y-141740273D01*
X83993918Y-141816118D01*
X84066943Y-141858280D01*
X84066948Y-141858282D01*
X84066951Y-141858284D01*
X84285007Y-141948606D01*
X84512986Y-142009693D01*
X84746989Y-142040500D01*
X84746996Y-142040500D01*
X84983004Y-142040500D01*
X84983011Y-142040500D01*
X85217014Y-142009693D01*
X85444993Y-141948606D01*
X85663049Y-141858284D01*
X85867450Y-141740273D01*
X86054699Y-141596592D01*
X86221592Y-141429699D01*
X86365273Y-141242450D01*
X86483284Y-141038049D01*
X86573606Y-140819993D01*
X86634693Y-140592014D01*
X86665500Y-140358011D01*
X86665500Y-140121995D01*
X93224500Y-140121995D01*
X93224500Y-140358004D01*
X93224501Y-140358020D01*
X93255306Y-140592010D01*
X93316394Y-140819993D01*
X93406714Y-141038045D01*
X93406719Y-141038056D01*
X93477677Y-141160957D01*
X93524727Y-141242450D01*
X93524729Y-141242453D01*
X93524730Y-141242454D01*
X93668406Y-141429697D01*
X93668412Y-141429704D01*
X93835295Y-141596587D01*
X93835302Y-141596593D01*
X93940541Y-141677345D01*
X94022550Y-141740273D01*
X94153918Y-141816118D01*
X94226943Y-141858280D01*
X94226948Y-141858282D01*
X94226951Y-141858284D01*
X94445007Y-141948606D01*
X94672986Y-142009693D01*
X94906989Y-142040500D01*
X94906996Y-142040500D01*
X95143004Y-142040500D01*
X95143011Y-142040500D01*
X95377014Y-142009693D01*
X95604993Y-141948606D01*
X95789661Y-141872113D01*
X95859127Y-141864645D01*
X95921606Y-141895920D01*
X95947019Y-141929263D01*
X95957123Y-141948606D01*
X95975302Y-141983407D01*
X96021854Y-142040498D01*
X96103890Y-142141109D01*
X96197803Y-142217684D01*
X96261593Y-142269698D01*
X96441951Y-142363909D01*
X96637582Y-142419886D01*
X96756963Y-142430500D01*
X101373036Y-142430499D01*
X101492418Y-142419886D01*
X101688049Y-142363909D01*
X101868407Y-142269698D01*
X102026109Y-142141109D01*
X102154698Y-141983407D01*
X102248909Y-141803049D01*
X102259553Y-141765848D01*
X102296918Y-141706810D01*
X102360271Y-141677345D01*
X102429497Y-141686809D01*
X102448919Y-141698395D01*
X102449173Y-141698016D01*
X102452543Y-141700267D01*
X102452550Y-141700273D01*
X102452557Y-141700277D01*
X102656943Y-141818280D01*
X102656948Y-141818282D01*
X102656951Y-141818284D01*
X102875007Y-141908606D01*
X103102986Y-141969693D01*
X103336989Y-142000500D01*
X103336996Y-142000500D01*
X103573004Y-142000500D01*
X103573011Y-142000500D01*
X103807014Y-141969693D01*
X104034993Y-141908606D01*
X104253049Y-141818284D01*
X104457450Y-141700273D01*
X104644699Y-141556592D01*
X104811592Y-141389699D01*
X104955273Y-141202450D01*
X105073284Y-140998049D01*
X105163606Y-140779993D01*
X105224693Y-140552014D01*
X105255500Y-140318011D01*
X105255500Y-140081995D01*
X111814500Y-140081995D01*
X111814500Y-140318004D01*
X111814501Y-140318020D01*
X111845306Y-140552010D01*
X111906394Y-140779993D01*
X111996714Y-140998045D01*
X111996719Y-140998056D01*
X112067677Y-141120957D01*
X112114727Y-141202450D01*
X112114729Y-141202453D01*
X112114730Y-141202454D01*
X112258406Y-141389697D01*
X112258412Y-141389704D01*
X112425295Y-141556587D01*
X112425302Y-141556593D01*
X112477430Y-141596592D01*
X112612550Y-141700273D01*
X112726131Y-141765849D01*
X112816943Y-141818280D01*
X112816948Y-141818282D01*
X112816951Y-141818284D01*
X113035007Y-141908606D01*
X113262986Y-141969693D01*
X113496989Y-142000500D01*
X113496996Y-142000500D01*
X113733004Y-142000500D01*
X113733011Y-142000500D01*
X113967014Y-141969693D01*
X114194993Y-141908606D01*
X114413049Y-141818284D01*
X114617450Y-141700273D01*
X114804699Y-141556592D01*
X114971592Y-141389699D01*
X115115273Y-141202450D01*
X115233284Y-140998049D01*
X115323606Y-140779993D01*
X115384693Y-140552014D01*
X115415500Y-140318011D01*
X115415500Y-140081989D01*
X115384693Y-139847986D01*
X115323606Y-139620007D01*
X115233284Y-139401951D01*
X115233282Y-139401948D01*
X115233280Y-139401943D01*
X115191118Y-139328918D01*
X115115273Y-139197550D01*
X115002285Y-139050301D01*
X114971593Y-139010302D01*
X114971587Y-139010295D01*
X114804704Y-138843412D01*
X114804697Y-138843406D01*
X114617454Y-138699730D01*
X114617453Y-138699729D01*
X114617450Y-138699727D01*
X114535957Y-138652677D01*
X114413056Y-138581719D01*
X114413045Y-138581714D01*
X114194993Y-138491394D01*
X113967014Y-138430307D01*
X113967013Y-138430306D01*
X113967010Y-138430306D01*
X113733020Y-138399501D01*
X113733017Y-138399500D01*
X113733011Y-138399500D01*
X113496989Y-138399500D01*
X113496983Y-138399500D01*
X113496979Y-138399501D01*
X113262989Y-138430306D01*
X113035006Y-138491394D01*
X112816954Y-138581714D01*
X112816943Y-138581719D01*
X112612545Y-138699730D01*
X112425302Y-138843406D01*
X112425295Y-138843412D01*
X112258412Y-139010295D01*
X112258406Y-139010302D01*
X112114730Y-139197545D01*
X111996719Y-139401943D01*
X111996714Y-139401954D01*
X111906394Y-139620006D01*
X111845306Y-139847989D01*
X111814501Y-140081979D01*
X111814500Y-140081995D01*
X105255500Y-140081995D01*
X105255500Y-140081989D01*
X105224693Y-139847986D01*
X105163606Y-139620007D01*
X105073284Y-139401951D01*
X105073282Y-139401948D01*
X105073280Y-139401943D01*
X105031118Y-139328918D01*
X104955273Y-139197550D01*
X104842285Y-139050301D01*
X104811593Y-139010302D01*
X104811587Y-139010295D01*
X104644704Y-138843412D01*
X104644697Y-138843406D01*
X104457454Y-138699730D01*
X104457453Y-138699729D01*
X104457450Y-138699727D01*
X104375957Y-138652677D01*
X104253056Y-138581719D01*
X104253045Y-138581714D01*
X104034993Y-138491394D01*
X103807014Y-138430307D01*
X103807013Y-138430306D01*
X103807010Y-138430306D01*
X103573020Y-138399501D01*
X103573017Y-138399500D01*
X103573011Y-138399500D01*
X103336989Y-138399500D01*
X103336983Y-138399500D01*
X103336979Y-138399501D01*
X103102989Y-138430306D01*
X102875006Y-138491394D01*
X102656954Y-138581714D01*
X102656943Y-138581719D01*
X102450371Y-138700984D01*
X102382471Y-138717457D01*
X102316444Y-138694604D01*
X102273253Y-138639683D01*
X102269155Y-138627708D01*
X102267440Y-138621716D01*
X102255995Y-138581714D01*
X102248910Y-138556954D01*
X102248909Y-138556953D01*
X102248909Y-138556951D01*
X102154698Y-138376593D01*
X102102684Y-138312803D01*
X102026109Y-138218890D01*
X101868409Y-138090304D01*
X101868410Y-138090304D01*
X101868407Y-138090302D01*
X101688049Y-137996091D01*
X101688048Y-137996090D01*
X101688045Y-137996089D01*
X101570829Y-137962550D01*
X101492418Y-137940114D01*
X101492415Y-137940113D01*
X101492413Y-137940113D01*
X101426102Y-137934217D01*
X101373037Y-137929500D01*
X101373032Y-137929500D01*
X96756971Y-137929500D01*
X96756965Y-137929500D01*
X96756964Y-137929501D01*
X96745316Y-137930536D01*
X96637584Y-137940113D01*
X96441954Y-137996089D01*
X96351772Y-138043196D01*
X96261593Y-138090302D01*
X96261591Y-138090303D01*
X96261590Y-138090304D01*
X96103890Y-138218890D01*
X95975304Y-138376590D01*
X95975302Y-138376593D01*
X95926350Y-138470307D01*
X95895488Y-138529390D01*
X95847001Y-138579697D01*
X95779013Y-138595804D01*
X95738127Y-138586539D01*
X95604996Y-138531395D01*
X95604994Y-138531394D01*
X95604993Y-138531394D01*
X95377014Y-138470307D01*
X95377013Y-138470306D01*
X95377010Y-138470306D01*
X95143020Y-138439501D01*
X95143017Y-138439500D01*
X95143011Y-138439500D01*
X94906989Y-138439500D01*
X94906983Y-138439500D01*
X94906979Y-138439501D01*
X94672989Y-138470306D01*
X94445006Y-138531394D01*
X94226954Y-138621714D01*
X94226943Y-138621719D01*
X94022545Y-138739730D01*
X93835302Y-138883406D01*
X93835295Y-138883412D01*
X93668412Y-139050295D01*
X93668406Y-139050302D01*
X93524730Y-139237545D01*
X93406719Y-139441943D01*
X93406714Y-139441954D01*
X93316394Y-139660006D01*
X93255306Y-139887989D01*
X93224501Y-140121979D01*
X93224500Y-140121995D01*
X86665500Y-140121995D01*
X86665500Y-140121989D01*
X86634693Y-139887986D01*
X86573606Y-139660007D01*
X86483284Y-139441951D01*
X86483282Y-139441948D01*
X86483280Y-139441943D01*
X86441118Y-139368918D01*
X86365273Y-139237550D01*
X86221592Y-139050301D01*
X86221587Y-139050295D01*
X86054704Y-138883412D01*
X86054697Y-138883406D01*
X85867454Y-138739730D01*
X85867453Y-138739729D01*
X85867450Y-138739727D01*
X85785957Y-138692677D01*
X85663056Y-138621719D01*
X85663045Y-138621714D01*
X85444993Y-138531394D01*
X85217010Y-138470306D01*
X84983020Y-138439501D01*
X84983017Y-138439500D01*
X84983011Y-138439500D01*
X84746989Y-138439500D01*
X84746983Y-138439500D01*
X84746979Y-138439501D01*
X84512989Y-138470306D01*
X84285006Y-138531394D01*
X84066954Y-138621714D01*
X84066943Y-138621719D01*
X83862545Y-138739730D01*
X83675302Y-138883406D01*
X83675295Y-138883412D01*
X83508412Y-139050295D01*
X83508406Y-139050302D01*
X83364730Y-139237545D01*
X83246719Y-139441943D01*
X83246714Y-139441954D01*
X83156394Y-139660006D01*
X83095306Y-139887989D01*
X83064501Y-140121979D01*
X83064500Y-140121995D01*
X80500500Y-140121995D01*
X80500500Y-134582486D01*
X95814500Y-134582486D01*
X95814500Y-134877513D01*
X95846571Y-135121113D01*
X95853007Y-135169993D01*
X95853008Y-135169995D01*
X95929361Y-135454951D01*
X95929364Y-135454961D01*
X96042254Y-135727500D01*
X96042258Y-135727510D01*
X96189761Y-135982993D01*
X96369352Y-136217040D01*
X96369358Y-136217047D01*
X96577952Y-136425641D01*
X96577959Y-136425647D01*
X96812006Y-136605238D01*
X97067489Y-136752741D01*
X97067490Y-136752741D01*
X97067493Y-136752743D01*
X97340048Y-136865639D01*
X97625007Y-136941993D01*
X97917494Y-136980500D01*
X97917501Y-136980500D01*
X100212499Y-136980500D01*
X100212506Y-136980500D01*
X100504993Y-136941993D01*
X100789952Y-136865639D01*
X101062507Y-136752743D01*
X101317994Y-136605238D01*
X101552042Y-136425646D01*
X101760646Y-136217042D01*
X101940238Y-135982994D01*
X102087743Y-135727507D01*
X102200639Y-135454952D01*
X102276993Y-135169993D01*
X102315500Y-134877506D01*
X102315500Y-134582494D01*
X102276993Y-134290007D01*
X102200639Y-134005048D01*
X102087743Y-133732493D01*
X101940238Y-133477006D01*
X101760646Y-133242958D01*
X101760641Y-133242952D01*
X101552047Y-133034358D01*
X101552040Y-133034352D01*
X101317993Y-132854761D01*
X101062510Y-132707258D01*
X101062500Y-132707254D01*
X100789961Y-132594364D01*
X100789954Y-132594362D01*
X100789952Y-132594361D01*
X100504993Y-132518007D01*
X100456113Y-132511571D01*
X100212513Y-132479500D01*
X100212506Y-132479500D01*
X97917494Y-132479500D01*
X97917486Y-132479500D01*
X97639085Y-132516153D01*
X97625007Y-132518007D01*
X97340048Y-132594361D01*
X97340038Y-132594364D01*
X97067499Y-132707254D01*
X97067489Y-132707258D01*
X96812006Y-132854761D01*
X96577959Y-133034352D01*
X96577952Y-133034358D01*
X96369358Y-133242952D01*
X96369352Y-133242959D01*
X96189761Y-133477006D01*
X96042258Y-133732489D01*
X96042254Y-133732499D01*
X95929364Y-134005038D01*
X95929361Y-134005048D01*
X95853008Y-134290004D01*
X95853006Y-134290015D01*
X95814500Y-134582486D01*
X80500500Y-134582486D01*
X80500500Y-129132486D01*
X95814500Y-129132486D01*
X95814500Y-129427513D01*
X95846571Y-129671113D01*
X95853007Y-129719993D01*
X95853008Y-129719995D01*
X95929361Y-130004951D01*
X95929364Y-130004961D01*
X96042254Y-130277500D01*
X96042258Y-130277510D01*
X96189761Y-130532993D01*
X96369352Y-130767040D01*
X96369358Y-130767047D01*
X96577952Y-130975641D01*
X96577959Y-130975647D01*
X96812006Y-131155238D01*
X97067489Y-131302741D01*
X97067490Y-131302741D01*
X97067493Y-131302743D01*
X97340048Y-131415639D01*
X97625007Y-131491993D01*
X97917494Y-131530500D01*
X97917501Y-131530500D01*
X100212499Y-131530500D01*
X100212506Y-131530500D01*
X100504993Y-131491993D01*
X100789952Y-131415639D01*
X101062507Y-131302743D01*
X101317994Y-131155238D01*
X101552042Y-130975646D01*
X101760646Y-130767042D01*
X101940238Y-130532994D01*
X102087743Y-130277507D01*
X102200639Y-130004952D01*
X102276993Y-129719993D01*
X102315500Y-129427506D01*
X102315500Y-129132494D01*
X102276993Y-128840007D01*
X102200639Y-128555048D01*
X102087743Y-128282493D01*
X101940238Y-128027006D01*
X101760646Y-127792958D01*
X101760641Y-127792952D01*
X101552047Y-127584358D01*
X101552040Y-127584352D01*
X101317993Y-127404761D01*
X101062510Y-127257258D01*
X101062500Y-127257254D01*
X100789961Y-127144364D01*
X100789954Y-127144362D01*
X100789952Y-127144361D01*
X100504993Y-127068007D01*
X100456113Y-127061571D01*
X100212513Y-127029500D01*
X100212506Y-127029500D01*
X97917494Y-127029500D01*
X97917486Y-127029500D01*
X97639085Y-127066153D01*
X97625007Y-127068007D01*
X97340048Y-127144361D01*
X97340038Y-127144364D01*
X97067499Y-127257254D01*
X97067489Y-127257258D01*
X96812006Y-127404761D01*
X96577959Y-127584352D01*
X96577952Y-127584358D01*
X96369358Y-127792952D01*
X96369352Y-127792959D01*
X96189761Y-128027006D01*
X96042258Y-128282489D01*
X96042254Y-128282499D01*
X95929364Y-128555038D01*
X95929361Y-128555048D01*
X95853008Y-128840004D01*
X95853006Y-128840015D01*
X95814500Y-129132486D01*
X80500500Y-129132486D01*
X80500500Y-123721995D01*
X83104500Y-123721995D01*
X83104500Y-123958004D01*
X83104501Y-123958020D01*
X83135306Y-124192010D01*
X83196394Y-124419993D01*
X83286714Y-124638045D01*
X83286719Y-124638056D01*
X83357677Y-124760957D01*
X83404727Y-124842450D01*
X83404729Y-124842453D01*
X83404730Y-124842454D01*
X83548406Y-125029697D01*
X83548412Y-125029704D01*
X83715295Y-125196587D01*
X83715302Y-125196593D01*
X83825306Y-125281001D01*
X83902550Y-125340273D01*
X84033918Y-125416118D01*
X84106943Y-125458280D01*
X84106948Y-125458282D01*
X84106951Y-125458284D01*
X84325007Y-125548606D01*
X84552986Y-125609693D01*
X84786989Y-125640500D01*
X84786996Y-125640500D01*
X85023004Y-125640500D01*
X85023011Y-125640500D01*
X85257014Y-125609693D01*
X85484993Y-125548606D01*
X85703049Y-125458284D01*
X85907450Y-125340273D01*
X86094699Y-125196592D01*
X86261592Y-125029699D01*
X86405273Y-124842450D01*
X86523284Y-124638049D01*
X86613606Y-124419993D01*
X86674693Y-124192014D01*
X86705500Y-123958011D01*
X86705500Y-123721995D01*
X93264500Y-123721995D01*
X93264500Y-123958004D01*
X93264501Y-123958020D01*
X93295306Y-124192010D01*
X93356394Y-124419993D01*
X93446714Y-124638045D01*
X93446719Y-124638056D01*
X93517677Y-124760957D01*
X93564727Y-124842450D01*
X93564729Y-124842453D01*
X93564730Y-124842454D01*
X93708406Y-125029697D01*
X93708412Y-125029704D01*
X93875295Y-125196587D01*
X93875302Y-125196593D01*
X93985306Y-125281001D01*
X94062550Y-125340273D01*
X94193918Y-125416118D01*
X94266943Y-125458280D01*
X94266948Y-125458282D01*
X94266951Y-125458284D01*
X94485007Y-125548606D01*
X94712986Y-125609693D01*
X94946989Y-125640500D01*
X94946996Y-125640500D01*
X95183004Y-125640500D01*
X95183011Y-125640500D01*
X95417014Y-125609693D01*
X95644993Y-125548606D01*
X95796774Y-125485735D01*
X95866242Y-125478267D01*
X95928722Y-125509542D01*
X95954134Y-125542885D01*
X95975299Y-125583403D01*
X96103890Y-125741109D01*
X96197803Y-125817684D01*
X96261593Y-125869698D01*
X96441951Y-125963909D01*
X96637582Y-126019886D01*
X96756963Y-126030500D01*
X101373036Y-126030499D01*
X101492418Y-126019886D01*
X101688049Y-125963909D01*
X101868407Y-125869698D01*
X102026109Y-125741109D01*
X102154698Y-125583407D01*
X102248909Y-125403049D01*
X102266755Y-125340678D01*
X102304122Y-125281641D01*
X102367475Y-125252177D01*
X102436701Y-125261642D01*
X102461453Y-125276411D01*
X102492550Y-125300273D01*
X102492557Y-125300277D01*
X102696943Y-125418280D01*
X102696948Y-125418282D01*
X102696951Y-125418284D01*
X102915007Y-125508606D01*
X103142986Y-125569693D01*
X103376989Y-125600500D01*
X103376996Y-125600500D01*
X103613004Y-125600500D01*
X103613011Y-125600500D01*
X103847014Y-125569693D01*
X104074993Y-125508606D01*
X104293049Y-125418284D01*
X104497450Y-125300273D01*
X104684699Y-125156592D01*
X104851592Y-124989699D01*
X104995273Y-124802450D01*
X105113284Y-124598049D01*
X105203606Y-124379993D01*
X105264693Y-124152014D01*
X105295500Y-123918011D01*
X105295500Y-123681995D01*
X111854500Y-123681995D01*
X111854500Y-123918004D01*
X111854501Y-123918020D01*
X111885306Y-124152010D01*
X111946394Y-124379993D01*
X112036714Y-124598045D01*
X112036719Y-124598056D01*
X112107677Y-124720957D01*
X112154727Y-124802450D01*
X112154729Y-124802453D01*
X112154730Y-124802454D01*
X112298406Y-124989697D01*
X112298412Y-124989704D01*
X112465295Y-125156587D01*
X112465302Y-125156593D01*
X112517430Y-125196592D01*
X112652550Y-125300273D01*
X112783918Y-125376118D01*
X112856943Y-125418280D01*
X112856948Y-125418282D01*
X112856951Y-125418284D01*
X113075007Y-125508606D01*
X113302986Y-125569693D01*
X113536989Y-125600500D01*
X113536996Y-125600500D01*
X113773004Y-125600500D01*
X113773011Y-125600500D01*
X114007014Y-125569693D01*
X114234993Y-125508606D01*
X114453049Y-125418284D01*
X114657450Y-125300273D01*
X114844699Y-125156592D01*
X115011592Y-124989699D01*
X115155273Y-124802450D01*
X115273284Y-124598049D01*
X115363606Y-124379993D01*
X115424693Y-124152014D01*
X115455500Y-123918011D01*
X115455500Y-123681989D01*
X115424693Y-123447986D01*
X115363606Y-123220007D01*
X115273284Y-123001951D01*
X115273282Y-123001948D01*
X115273280Y-123001943D01*
X115231118Y-122928918D01*
X115155273Y-122797550D01*
X115042285Y-122650301D01*
X115011593Y-122610302D01*
X115011587Y-122610295D01*
X114844704Y-122443412D01*
X114844697Y-122443406D01*
X114657454Y-122299730D01*
X114657453Y-122299729D01*
X114657450Y-122299727D01*
X114574991Y-122252119D01*
X114453056Y-122181719D01*
X114453045Y-122181714D01*
X114234993Y-122091394D01*
X114007014Y-122030307D01*
X114007013Y-122030306D01*
X114007010Y-122030306D01*
X113773020Y-121999501D01*
X113773017Y-121999500D01*
X113773011Y-121999500D01*
X113536989Y-121999500D01*
X113536983Y-121999500D01*
X113536979Y-121999501D01*
X113302989Y-122030306D01*
X113075006Y-122091394D01*
X112856954Y-122181714D01*
X112856943Y-122181719D01*
X112688928Y-122278724D01*
X112652554Y-122299725D01*
X112652545Y-122299730D01*
X112465302Y-122443406D01*
X112465295Y-122443412D01*
X112298412Y-122610295D01*
X112298406Y-122610302D01*
X112154730Y-122797545D01*
X112036719Y-123001943D01*
X112036714Y-123001954D01*
X111946394Y-123220006D01*
X111885306Y-123447989D01*
X111854501Y-123681979D01*
X111854500Y-123681995D01*
X105295500Y-123681995D01*
X105295500Y-123681989D01*
X105264693Y-123447986D01*
X105203606Y-123220007D01*
X105113284Y-123001951D01*
X105113282Y-123001948D01*
X105113280Y-123001943D01*
X105071118Y-122928918D01*
X104995273Y-122797550D01*
X104882285Y-122650301D01*
X104851593Y-122610302D01*
X104851587Y-122610295D01*
X104684704Y-122443412D01*
X104684697Y-122443406D01*
X104497454Y-122299730D01*
X104497453Y-122299729D01*
X104497450Y-122299727D01*
X104414991Y-122252119D01*
X104293056Y-122181719D01*
X104293045Y-122181714D01*
X104074993Y-122091394D01*
X103847014Y-122030307D01*
X103847013Y-122030306D01*
X103847010Y-122030306D01*
X103613020Y-121999501D01*
X103613017Y-121999500D01*
X103613011Y-121999500D01*
X103376989Y-121999500D01*
X103376983Y-121999500D01*
X103376979Y-121999501D01*
X103142989Y-122030306D01*
X102915006Y-122091394D01*
X102696954Y-122181714D01*
X102696943Y-122181719D01*
X102492551Y-122299725D01*
X102470840Y-122316385D01*
X102405670Y-122341578D01*
X102337225Y-122327539D01*
X102287237Y-122278724D01*
X102276142Y-122252126D01*
X102248909Y-122156951D01*
X102154698Y-121976593D01*
X102102684Y-121912803D01*
X102026109Y-121818890D01*
X101868409Y-121690304D01*
X101868410Y-121690304D01*
X101868407Y-121690302D01*
X101688049Y-121596091D01*
X101688048Y-121596090D01*
X101688045Y-121596089D01*
X101570829Y-121562550D01*
X101492418Y-121540114D01*
X101492415Y-121540113D01*
X101492413Y-121540113D01*
X101426102Y-121534217D01*
X101373037Y-121529500D01*
X101373032Y-121529500D01*
X96756971Y-121529500D01*
X96756965Y-121529500D01*
X96756964Y-121529501D01*
X96745316Y-121530536D01*
X96637584Y-121540113D01*
X96441954Y-121596089D01*
X96351772Y-121643196D01*
X96261593Y-121690302D01*
X96261591Y-121690303D01*
X96261590Y-121690304D01*
X96103890Y-121818890D01*
X95975302Y-121976593D01*
X95975300Y-121976595D01*
X95902602Y-122115768D01*
X95854116Y-122166075D01*
X95786128Y-122182182D01*
X95745242Y-122172917D01*
X95645000Y-122131396D01*
X95417010Y-122070306D01*
X95183020Y-122039501D01*
X95183017Y-122039500D01*
X95183011Y-122039500D01*
X94946989Y-122039500D01*
X94946983Y-122039500D01*
X94946979Y-122039501D01*
X94712989Y-122070306D01*
X94485006Y-122131394D01*
X94266954Y-122221714D01*
X94266943Y-122221719D01*
X94062545Y-122339730D01*
X93875302Y-122483406D01*
X93875295Y-122483412D01*
X93708412Y-122650295D01*
X93708406Y-122650302D01*
X93564730Y-122837545D01*
X93446719Y-123041943D01*
X93446714Y-123041954D01*
X93356394Y-123260006D01*
X93295306Y-123487989D01*
X93264501Y-123721979D01*
X93264500Y-123721995D01*
X86705500Y-123721995D01*
X86705500Y-123721989D01*
X86674693Y-123487986D01*
X86613606Y-123260007D01*
X86523284Y-123041951D01*
X86523282Y-123041948D01*
X86523280Y-123041943D01*
X86481118Y-122968918D01*
X86405273Y-122837550D01*
X86261592Y-122650301D01*
X86261587Y-122650295D01*
X86094704Y-122483412D01*
X86094697Y-122483406D01*
X85907454Y-122339730D01*
X85907453Y-122339729D01*
X85907450Y-122339727D01*
X85801790Y-122278724D01*
X85703056Y-122221719D01*
X85703045Y-122221714D01*
X85484993Y-122131394D01*
X85257010Y-122070306D01*
X85023020Y-122039501D01*
X85023017Y-122039500D01*
X85023011Y-122039500D01*
X84786989Y-122039500D01*
X84786983Y-122039500D01*
X84786979Y-122039501D01*
X84552989Y-122070306D01*
X84325006Y-122131394D01*
X84106954Y-122221714D01*
X84106943Y-122221719D01*
X83902545Y-122339730D01*
X83715302Y-122483406D01*
X83715295Y-122483412D01*
X83548412Y-122650295D01*
X83548406Y-122650302D01*
X83404730Y-122837545D01*
X83286719Y-123041943D01*
X83286714Y-123041954D01*
X83196394Y-123260006D01*
X83135306Y-123487989D01*
X83104501Y-123721979D01*
X83104500Y-123721995D01*
X80500500Y-123721995D01*
X80500500Y-118182486D01*
X95814500Y-118182486D01*
X95814500Y-118477513D01*
X95846571Y-118721113D01*
X95853007Y-118769993D01*
X95853008Y-118769995D01*
X95929361Y-119054951D01*
X95929364Y-119054961D01*
X96042254Y-119327500D01*
X96042258Y-119327510D01*
X96189761Y-119582993D01*
X96369352Y-119817040D01*
X96369358Y-119817047D01*
X96577952Y-120025641D01*
X96577959Y-120025647D01*
X96812006Y-120205238D01*
X97067489Y-120352741D01*
X97067490Y-120352741D01*
X97067493Y-120352743D01*
X97340048Y-120465639D01*
X97625007Y-120541993D01*
X97917494Y-120580500D01*
X97917501Y-120580500D01*
X100212499Y-120580500D01*
X100212506Y-120580500D01*
X100504993Y-120541993D01*
X100789952Y-120465639D01*
X101062507Y-120352743D01*
X101317994Y-120205238D01*
X101552042Y-120025646D01*
X101760646Y-119817042D01*
X101940238Y-119582994D01*
X102087743Y-119327507D01*
X102200639Y-119054952D01*
X102276993Y-118769993D01*
X102315500Y-118477506D01*
X102315500Y-118182494D01*
X102276993Y-117890007D01*
X102200639Y-117605048D01*
X102087743Y-117332493D01*
X101940238Y-117077006D01*
X101760646Y-116842958D01*
X101760641Y-116842952D01*
X101552047Y-116634358D01*
X101552040Y-116634352D01*
X101317993Y-116454761D01*
X101062510Y-116307258D01*
X101062500Y-116307254D01*
X100789961Y-116194364D01*
X100789954Y-116194362D01*
X100789952Y-116194361D01*
X100504993Y-116118007D01*
X100456113Y-116111571D01*
X100212513Y-116079500D01*
X100212506Y-116079500D01*
X97917494Y-116079500D01*
X97917486Y-116079500D01*
X97639085Y-116116153D01*
X97625007Y-116118007D01*
X97340048Y-116194361D01*
X97340038Y-116194364D01*
X97067499Y-116307254D01*
X97067489Y-116307258D01*
X96812006Y-116454761D01*
X96577959Y-116634352D01*
X96577952Y-116634358D01*
X96369358Y-116842952D01*
X96369352Y-116842959D01*
X96189761Y-117077006D01*
X96042258Y-117332489D01*
X96042254Y-117332499D01*
X95929364Y-117605038D01*
X95929361Y-117605048D01*
X95853008Y-117890004D01*
X95853006Y-117890015D01*
X95814500Y-118182486D01*
X80500500Y-118182486D01*
X80500500Y-112732486D01*
X95814500Y-112732486D01*
X95814500Y-113027513D01*
X95846571Y-113271113D01*
X95853007Y-113319993D01*
X95853008Y-113319995D01*
X95929361Y-113604951D01*
X95929364Y-113604961D01*
X96042254Y-113877500D01*
X96042258Y-113877510D01*
X96189761Y-114132993D01*
X96369352Y-114367040D01*
X96369358Y-114367047D01*
X96577952Y-114575641D01*
X96577959Y-114575647D01*
X96812006Y-114755238D01*
X97067489Y-114902741D01*
X97067490Y-114902741D01*
X97067493Y-114902743D01*
X97340048Y-115015639D01*
X97625007Y-115091993D01*
X97917494Y-115130500D01*
X97917501Y-115130500D01*
X100212499Y-115130500D01*
X100212506Y-115130500D01*
X100504993Y-115091993D01*
X100789952Y-115015639D01*
X101062507Y-114902743D01*
X101317994Y-114755238D01*
X101552042Y-114575646D01*
X101760646Y-114367042D01*
X101940238Y-114132994D01*
X102087743Y-113877507D01*
X102200639Y-113604952D01*
X102276993Y-113319993D01*
X102315500Y-113027506D01*
X102315500Y-112732494D01*
X102276993Y-112440007D01*
X102200639Y-112155048D01*
X102087743Y-111882493D01*
X101940238Y-111627006D01*
X101760646Y-111392958D01*
X101760641Y-111392952D01*
X101552047Y-111184358D01*
X101552040Y-111184352D01*
X101317993Y-111004761D01*
X101062510Y-110857258D01*
X101062500Y-110857254D01*
X100789961Y-110744364D01*
X100789954Y-110744362D01*
X100789952Y-110744361D01*
X100504993Y-110668007D01*
X100456113Y-110661571D01*
X100212513Y-110629500D01*
X100212506Y-110629500D01*
X97917494Y-110629500D01*
X97917486Y-110629500D01*
X97639085Y-110666153D01*
X97625007Y-110668007D01*
X97340048Y-110744361D01*
X97340038Y-110744364D01*
X97067499Y-110857254D01*
X97067489Y-110857258D01*
X96812006Y-111004761D01*
X96577959Y-111184352D01*
X96577952Y-111184358D01*
X96369358Y-111392952D01*
X96369352Y-111392959D01*
X96189761Y-111627006D01*
X96042258Y-111882489D01*
X96042254Y-111882499D01*
X95929364Y-112155038D01*
X95929361Y-112155048D01*
X95853008Y-112440004D01*
X95853006Y-112440015D01*
X95814500Y-112732486D01*
X80500500Y-112732486D01*
X80500500Y-107281995D01*
X83194500Y-107281995D01*
X83194500Y-107518004D01*
X83194501Y-107518020D01*
X83225306Y-107752010D01*
X83286394Y-107979993D01*
X83376714Y-108198045D01*
X83376719Y-108198056D01*
X83447677Y-108320957D01*
X83494727Y-108402450D01*
X83494729Y-108402453D01*
X83494730Y-108402454D01*
X83638406Y-108589697D01*
X83638412Y-108589704D01*
X83805295Y-108756587D01*
X83805301Y-108756592D01*
X83992550Y-108900273D01*
X84123918Y-108976118D01*
X84196943Y-109018280D01*
X84196948Y-109018282D01*
X84196951Y-109018284D01*
X84415007Y-109108606D01*
X84642986Y-109169693D01*
X84876989Y-109200500D01*
X84876996Y-109200500D01*
X85113004Y-109200500D01*
X85113011Y-109200500D01*
X85347014Y-109169693D01*
X85574993Y-109108606D01*
X85793049Y-109018284D01*
X85997450Y-108900273D01*
X86184699Y-108756592D01*
X86351592Y-108589699D01*
X86495273Y-108402450D01*
X86613284Y-108198049D01*
X86703606Y-107979993D01*
X86764693Y-107752014D01*
X86795500Y-107518011D01*
X86795500Y-107281995D01*
X93354500Y-107281995D01*
X93354500Y-107518004D01*
X93354501Y-107518020D01*
X93385306Y-107752010D01*
X93446394Y-107979993D01*
X93536714Y-108198045D01*
X93536719Y-108198056D01*
X93607677Y-108320957D01*
X93654727Y-108402450D01*
X93654729Y-108402453D01*
X93654730Y-108402454D01*
X93798406Y-108589697D01*
X93798412Y-108589704D01*
X93965295Y-108756587D01*
X93965301Y-108756592D01*
X94152550Y-108900273D01*
X94283918Y-108976118D01*
X94356943Y-109018280D01*
X94356948Y-109018282D01*
X94356951Y-109018284D01*
X94575007Y-109108606D01*
X94802986Y-109169693D01*
X95036989Y-109200500D01*
X95036996Y-109200500D01*
X95273004Y-109200500D01*
X95273011Y-109200500D01*
X95507014Y-109169693D01*
X95734993Y-109108606D01*
X95795607Y-109083498D01*
X95865072Y-109076030D01*
X95927552Y-109107304D01*
X95952965Y-109140647D01*
X95963335Y-109160498D01*
X95975302Y-109183407D01*
X95975304Y-109183409D01*
X96103890Y-109341109D01*
X96197803Y-109417684D01*
X96261593Y-109469698D01*
X96441951Y-109563909D01*
X96637582Y-109619886D01*
X96756963Y-109630500D01*
X101373036Y-109630499D01*
X101492418Y-109619886D01*
X101688049Y-109563909D01*
X101868407Y-109469698D01*
X102026109Y-109341109D01*
X102154698Y-109183407D01*
X102248909Y-109003049D01*
X102292343Y-108851251D01*
X102329709Y-108792216D01*
X102393062Y-108762752D01*
X102462288Y-108772217D01*
X102487045Y-108786989D01*
X102582550Y-108860273D01*
X102713918Y-108936118D01*
X102786943Y-108978280D01*
X102786948Y-108978282D01*
X102786951Y-108978284D01*
X103005007Y-109068606D01*
X103232986Y-109129693D01*
X103466989Y-109160500D01*
X103466996Y-109160500D01*
X103703004Y-109160500D01*
X103703011Y-109160500D01*
X103937014Y-109129693D01*
X104164993Y-109068606D01*
X104383049Y-108978284D01*
X104587450Y-108860273D01*
X104774699Y-108716592D01*
X104941592Y-108549699D01*
X105085273Y-108362450D01*
X105203284Y-108158049D01*
X105293606Y-107939993D01*
X105354693Y-107712014D01*
X105385500Y-107478011D01*
X105385500Y-107241995D01*
X111944500Y-107241995D01*
X111944500Y-107478004D01*
X111944501Y-107478020D01*
X111975306Y-107712010D01*
X112036394Y-107939993D01*
X112126714Y-108158045D01*
X112126719Y-108158056D01*
X112197677Y-108280957D01*
X112244727Y-108362450D01*
X112244729Y-108362453D01*
X112244730Y-108362454D01*
X112388406Y-108549697D01*
X112388412Y-108549704D01*
X112555295Y-108716587D01*
X112555302Y-108716593D01*
X112607430Y-108756592D01*
X112742550Y-108860273D01*
X112873918Y-108936118D01*
X112946943Y-108978280D01*
X112946948Y-108978282D01*
X112946951Y-108978284D01*
X113165007Y-109068606D01*
X113392986Y-109129693D01*
X113626989Y-109160500D01*
X113626996Y-109160500D01*
X113863004Y-109160500D01*
X113863011Y-109160500D01*
X114097014Y-109129693D01*
X114324993Y-109068606D01*
X114543049Y-108978284D01*
X114747450Y-108860273D01*
X114934699Y-108716592D01*
X115101592Y-108549699D01*
X115245273Y-108362450D01*
X115363284Y-108158049D01*
X115453606Y-107939993D01*
X115514693Y-107712014D01*
X115545500Y-107478011D01*
X115545500Y-107241989D01*
X115514693Y-107007986D01*
X115453606Y-106780007D01*
X115363284Y-106561951D01*
X115363282Y-106561948D01*
X115363280Y-106561943D01*
X115321118Y-106488918D01*
X115245273Y-106357550D01*
X115132285Y-106210301D01*
X115101593Y-106170302D01*
X115101587Y-106170295D01*
X114934704Y-106003412D01*
X114934697Y-106003406D01*
X114747454Y-105859730D01*
X114747453Y-105859729D01*
X114747450Y-105859727D01*
X114665957Y-105812677D01*
X114543056Y-105741719D01*
X114543045Y-105741714D01*
X114324993Y-105651394D01*
X114097014Y-105590307D01*
X114097013Y-105590306D01*
X114097010Y-105590306D01*
X113863020Y-105559501D01*
X113863017Y-105559500D01*
X113863011Y-105559500D01*
X113626989Y-105559500D01*
X113626983Y-105559500D01*
X113626979Y-105559501D01*
X113392989Y-105590306D01*
X113165006Y-105651394D01*
X112946954Y-105741714D01*
X112946943Y-105741719D01*
X112742545Y-105859730D01*
X112555302Y-106003406D01*
X112555295Y-106003412D01*
X112388412Y-106170295D01*
X112388406Y-106170302D01*
X112244730Y-106357545D01*
X112126719Y-106561943D01*
X112126714Y-106561954D01*
X112036394Y-106780006D01*
X111975306Y-107007989D01*
X111944501Y-107241979D01*
X111944500Y-107241995D01*
X105385500Y-107241995D01*
X105385500Y-107241989D01*
X105354693Y-107007986D01*
X105293606Y-106780007D01*
X105203284Y-106561951D01*
X105203282Y-106561948D01*
X105203280Y-106561943D01*
X105161118Y-106488918D01*
X105085273Y-106357550D01*
X104972285Y-106210301D01*
X104941593Y-106170302D01*
X104941587Y-106170295D01*
X104774704Y-106003412D01*
X104774697Y-106003406D01*
X104587454Y-105859730D01*
X104587453Y-105859729D01*
X104587450Y-105859727D01*
X104505957Y-105812677D01*
X104383056Y-105741719D01*
X104383045Y-105741714D01*
X104164993Y-105651394D01*
X103937014Y-105590307D01*
X103937013Y-105590306D01*
X103937010Y-105590306D01*
X103703020Y-105559501D01*
X103703017Y-105559500D01*
X103703011Y-105559500D01*
X103466989Y-105559500D01*
X103466983Y-105559500D01*
X103466979Y-105559501D01*
X103232989Y-105590306D01*
X103005006Y-105651394D01*
X102786954Y-105741714D01*
X102786943Y-105741719D01*
X102582545Y-105859730D01*
X102477659Y-105940211D01*
X102412489Y-105965405D01*
X102344044Y-105951366D01*
X102294055Y-105902552D01*
X102282959Y-105875951D01*
X102248909Y-105756951D01*
X102154698Y-105576593D01*
X102102684Y-105512803D01*
X102026109Y-105418890D01*
X101868409Y-105290304D01*
X101868410Y-105290304D01*
X101868407Y-105290302D01*
X101688049Y-105196091D01*
X101688048Y-105196090D01*
X101688045Y-105196089D01*
X101570829Y-105162550D01*
X101492418Y-105140114D01*
X101492415Y-105140113D01*
X101492413Y-105140113D01*
X101426102Y-105134217D01*
X101373037Y-105129500D01*
X101373032Y-105129500D01*
X96756971Y-105129500D01*
X96756965Y-105129500D01*
X96756964Y-105129501D01*
X96745316Y-105130536D01*
X96637584Y-105140113D01*
X96441954Y-105196089D01*
X96351772Y-105243196D01*
X96261593Y-105290302D01*
X96261591Y-105290303D01*
X96261590Y-105290304D01*
X96103890Y-105418890D01*
X95975301Y-105576594D01*
X95935788Y-105652236D01*
X95887301Y-105702543D01*
X95819313Y-105718649D01*
X95778429Y-105709385D01*
X95734996Y-105691395D01*
X95734994Y-105691394D01*
X95734993Y-105691394D01*
X95507014Y-105630307D01*
X95507013Y-105630306D01*
X95507010Y-105630306D01*
X95273020Y-105599501D01*
X95273017Y-105599500D01*
X95273011Y-105599500D01*
X95036989Y-105599500D01*
X95036983Y-105599500D01*
X95036979Y-105599501D01*
X94802989Y-105630306D01*
X94575006Y-105691394D01*
X94356954Y-105781714D01*
X94356943Y-105781719D01*
X94152545Y-105899730D01*
X93965302Y-106043406D01*
X93965295Y-106043412D01*
X93798412Y-106210295D01*
X93798406Y-106210302D01*
X93654730Y-106397545D01*
X93536719Y-106601943D01*
X93536714Y-106601954D01*
X93446394Y-106820006D01*
X93385306Y-107047989D01*
X93354501Y-107281979D01*
X93354500Y-107281995D01*
X86795500Y-107281995D01*
X86795500Y-107281989D01*
X86764693Y-107047986D01*
X86703606Y-106820007D01*
X86613284Y-106601951D01*
X86613282Y-106601948D01*
X86613280Y-106601943D01*
X86571118Y-106528918D01*
X86495273Y-106397550D01*
X86351592Y-106210301D01*
X86351587Y-106210295D01*
X86184704Y-106043412D01*
X86184697Y-106043406D01*
X85997454Y-105899730D01*
X85997453Y-105899729D01*
X85997450Y-105899727D01*
X85915957Y-105852677D01*
X85793056Y-105781719D01*
X85793045Y-105781714D01*
X85574993Y-105691394D01*
X85347010Y-105630306D01*
X85113020Y-105599501D01*
X85113017Y-105599500D01*
X85113011Y-105599500D01*
X84876989Y-105599500D01*
X84876983Y-105599500D01*
X84876979Y-105599501D01*
X84642989Y-105630306D01*
X84415006Y-105691394D01*
X84196954Y-105781714D01*
X84196943Y-105781719D01*
X83992545Y-105899730D01*
X83805302Y-106043406D01*
X83805295Y-106043412D01*
X83638412Y-106210295D01*
X83638406Y-106210302D01*
X83494730Y-106397545D01*
X83376719Y-106601943D01*
X83376714Y-106601954D01*
X83286394Y-106820006D01*
X83225306Y-107047989D01*
X83194501Y-107281979D01*
X83194500Y-107281995D01*
X80500500Y-107281995D01*
X80500500Y-101782486D01*
X95814500Y-101782486D01*
X95814500Y-102077513D01*
X95846571Y-102321113D01*
X95853007Y-102369993D01*
X95853008Y-102369995D01*
X95929361Y-102654951D01*
X95929364Y-102654961D01*
X96042254Y-102927500D01*
X96042258Y-102927510D01*
X96189761Y-103182993D01*
X96369352Y-103417040D01*
X96369358Y-103417047D01*
X96577952Y-103625641D01*
X96577959Y-103625647D01*
X96812006Y-103805238D01*
X97067489Y-103952741D01*
X97067490Y-103952741D01*
X97067493Y-103952743D01*
X97340048Y-104065639D01*
X97625007Y-104141993D01*
X97917494Y-104180500D01*
X97917501Y-104180500D01*
X100212499Y-104180500D01*
X100212506Y-104180500D01*
X100504993Y-104141993D01*
X100789952Y-104065639D01*
X101062507Y-103952743D01*
X101317994Y-103805238D01*
X101552042Y-103625646D01*
X101760646Y-103417042D01*
X101940238Y-103182994D01*
X102087743Y-102927507D01*
X102200639Y-102654952D01*
X102276993Y-102369993D01*
X102315500Y-102077506D01*
X102315500Y-101782494D01*
X102276993Y-101490007D01*
X102200639Y-101205048D01*
X102087743Y-100932493D01*
X101940238Y-100677006D01*
X101760646Y-100442958D01*
X101760641Y-100442952D01*
X101552047Y-100234358D01*
X101552040Y-100234352D01*
X101317993Y-100054761D01*
X101062510Y-99907258D01*
X101062500Y-99907254D01*
X100789961Y-99794364D01*
X100789954Y-99794362D01*
X100789952Y-99794361D01*
X100504993Y-99718007D01*
X100456113Y-99711571D01*
X100212513Y-99679500D01*
X100212506Y-99679500D01*
X97917494Y-99679500D01*
X97917486Y-99679500D01*
X97639085Y-99716153D01*
X97625007Y-99718007D01*
X97340048Y-99794361D01*
X97340038Y-99794364D01*
X97067499Y-99907254D01*
X97067489Y-99907258D01*
X96812006Y-100054761D01*
X96577959Y-100234352D01*
X96577952Y-100234358D01*
X96369358Y-100442952D01*
X96369352Y-100442959D01*
X96189761Y-100677006D01*
X96042258Y-100932489D01*
X96042254Y-100932499D01*
X95929364Y-101205038D01*
X95929361Y-101205048D01*
X95853008Y-101490004D01*
X95853006Y-101490015D01*
X95814500Y-101782486D01*
X80500500Y-101782486D01*
X80500500Y-96332486D01*
X95814500Y-96332486D01*
X95814500Y-96627513D01*
X95846571Y-96871113D01*
X95853007Y-96919993D01*
X95853008Y-96919995D01*
X95929361Y-97204951D01*
X95929364Y-97204961D01*
X96042254Y-97477500D01*
X96042258Y-97477510D01*
X96189761Y-97732993D01*
X96369352Y-97967040D01*
X96369358Y-97967047D01*
X96577952Y-98175641D01*
X96577959Y-98175647D01*
X96812006Y-98355238D01*
X97067489Y-98502741D01*
X97067490Y-98502741D01*
X97067493Y-98502743D01*
X97340048Y-98615639D01*
X97625007Y-98691993D01*
X97917494Y-98730500D01*
X97917501Y-98730500D01*
X100212499Y-98730500D01*
X100212506Y-98730500D01*
X100504993Y-98691993D01*
X100789952Y-98615639D01*
X101062507Y-98502743D01*
X101317994Y-98355238D01*
X101552042Y-98175646D01*
X101760646Y-97967042D01*
X101940238Y-97732994D01*
X102087743Y-97477507D01*
X102200639Y-97204952D01*
X102276993Y-96919993D01*
X102315500Y-96627506D01*
X102315500Y-96332494D01*
X102276993Y-96040007D01*
X102200639Y-95755048D01*
X102087743Y-95482493D01*
X101940238Y-95227006D01*
X101849398Y-95108621D01*
X101760647Y-94992959D01*
X101760641Y-94992952D01*
X101552047Y-94784358D01*
X101552040Y-94784352D01*
X101317993Y-94604761D01*
X101062510Y-94457258D01*
X101062500Y-94457254D01*
X100789961Y-94344364D01*
X100789954Y-94344362D01*
X100789952Y-94344361D01*
X100504993Y-94268007D01*
X100456113Y-94261571D01*
X100212513Y-94229500D01*
X100212506Y-94229500D01*
X97917494Y-94229500D01*
X97917486Y-94229500D01*
X97639085Y-94266153D01*
X97625007Y-94268007D01*
X97434421Y-94319074D01*
X97340048Y-94344361D01*
X97340038Y-94344364D01*
X97067499Y-94457254D01*
X97067489Y-94457258D01*
X96812006Y-94604761D01*
X96577959Y-94784352D01*
X96577952Y-94784358D01*
X96369358Y-94992952D01*
X96369352Y-94992959D01*
X96189761Y-95227006D01*
X96042258Y-95482489D01*
X96042254Y-95482499D01*
X95929364Y-95755038D01*
X95929361Y-95755048D01*
X95853008Y-96040004D01*
X95853006Y-96040015D01*
X95814500Y-96332486D01*
X80500500Y-96332486D01*
X80500500Y-90882220D01*
X103243108Y-90882220D01*
X103296313Y-90904260D01*
X103296319Y-90904261D01*
X103470959Y-90938999D01*
X103470963Y-90939000D01*
X103649037Y-90939000D01*
X103649040Y-90938999D01*
X103823680Y-90904261D01*
X103823691Y-90904258D01*
X103876890Y-90882221D01*
X103876890Y-90882220D01*
X103560001Y-90565330D01*
X103560000Y-90565330D01*
X103243108Y-90882220D01*
X80500500Y-90882220D01*
X80500500Y-89945959D01*
X102656000Y-89945959D01*
X102656000Y-90124040D01*
X102690738Y-90298679D01*
X102690740Y-90298687D01*
X102712778Y-90351891D01*
X103029670Y-90035000D01*
X103029670Y-90034999D01*
X102977010Y-89982339D01*
X103160000Y-89982339D01*
X103160000Y-90087661D01*
X103187259Y-90189394D01*
X103239920Y-90280606D01*
X103314394Y-90355080D01*
X103405606Y-90407741D01*
X103507339Y-90435000D01*
X103612661Y-90435000D01*
X103714394Y-90407741D01*
X103805606Y-90355080D01*
X103880080Y-90280606D01*
X103932741Y-90189394D01*
X103960000Y-90087661D01*
X103960000Y-90034999D01*
X104090330Y-90034999D01*
X104090330Y-90035000D01*
X104435009Y-90379679D01*
X104476610Y-90411996D01*
X104493964Y-90446205D01*
X104566715Y-90670108D01*
X104684945Y-90902147D01*
X104838018Y-91112834D01*
X105022166Y-91296982D01*
X105232853Y-91450055D01*
X105464892Y-91568285D01*
X105712570Y-91648761D01*
X105809026Y-91664038D01*
X105969783Y-91689500D01*
X105969788Y-91689500D01*
X106230217Y-91689500D01*
X106373110Y-91666867D01*
X106487430Y-91648761D01*
X106735108Y-91568285D01*
X106967147Y-91450055D01*
X107177834Y-91296982D01*
X107282319Y-91192497D01*
X107343642Y-91159012D01*
X107413334Y-91163996D01*
X107457681Y-91192497D01*
X107562166Y-91296982D01*
X107772853Y-91450055D01*
X108004892Y-91568285D01*
X108252570Y-91648761D01*
X108349026Y-91664038D01*
X108509783Y-91689500D01*
X108509788Y-91689500D01*
X108770217Y-91689500D01*
X108913110Y-91666867D01*
X109027430Y-91648761D01*
X109275108Y-91568285D01*
X109507147Y-91450055D01*
X109717834Y-91296982D01*
X109822319Y-91192497D01*
X109883642Y-91159012D01*
X109953334Y-91163996D01*
X109997681Y-91192497D01*
X110102166Y-91296982D01*
X110312853Y-91450055D01*
X110544892Y-91568285D01*
X110792570Y-91648761D01*
X110889026Y-91664038D01*
X111049783Y-91689500D01*
X111049788Y-91689500D01*
X111310217Y-91689500D01*
X111453110Y-91666867D01*
X111567430Y-91648761D01*
X111815108Y-91568285D01*
X112047147Y-91450055D01*
X112257834Y-91296982D01*
X112441982Y-91112834D01*
X112595055Y-90902147D01*
X112713285Y-90670108D01*
X112793761Y-90422430D01*
X112816224Y-90280606D01*
X112834500Y-90165217D01*
X112834500Y-89904782D01*
X112793761Y-89647573D01*
X112793761Y-89647570D01*
X112713285Y-89399892D01*
X112595055Y-89167853D01*
X112441982Y-88957166D01*
X112257834Y-88773018D01*
X112047147Y-88619945D01*
X111815108Y-88501715D01*
X111567430Y-88421239D01*
X111567428Y-88421238D01*
X111567426Y-88421238D01*
X111310217Y-88380500D01*
X111310212Y-88380500D01*
X111049788Y-88380500D01*
X111049783Y-88380500D01*
X110792573Y-88421238D01*
X110544889Y-88501716D01*
X110312852Y-88619945D01*
X110102163Y-88773020D01*
X109997681Y-88877503D01*
X109936358Y-88910988D01*
X109866666Y-88906004D01*
X109822319Y-88877503D01*
X109717836Y-88773020D01*
X109717834Y-88773018D01*
X109507147Y-88619945D01*
X109275108Y-88501715D01*
X109027430Y-88421239D01*
X109027428Y-88421238D01*
X109027426Y-88421238D01*
X108770217Y-88380500D01*
X108770212Y-88380500D01*
X108509788Y-88380500D01*
X108509783Y-88380500D01*
X108252573Y-88421238D01*
X108004889Y-88501716D01*
X107772852Y-88619945D01*
X107562163Y-88773020D01*
X107457681Y-88877503D01*
X107396358Y-88910988D01*
X107326666Y-88906004D01*
X107282319Y-88877503D01*
X107177836Y-88773020D01*
X107177834Y-88773018D01*
X106967147Y-88619945D01*
X106735108Y-88501715D01*
X106487430Y-88421239D01*
X106487428Y-88421238D01*
X106487426Y-88421238D01*
X106230217Y-88380500D01*
X106230212Y-88380500D01*
X105969788Y-88380500D01*
X105969783Y-88380500D01*
X105712573Y-88421238D01*
X105464889Y-88501716D01*
X105232852Y-88619945D01*
X105022163Y-88773020D01*
X104838020Y-88957163D01*
X104684945Y-89167852D01*
X104566716Y-89399887D01*
X104493964Y-89623794D01*
X104454526Y-89681469D01*
X104436053Y-89689275D01*
X104090330Y-90034999D01*
X103960000Y-90034999D01*
X103960000Y-89982339D01*
X103932741Y-89880606D01*
X103880080Y-89789394D01*
X103805606Y-89714920D01*
X103714394Y-89662259D01*
X103612661Y-89635000D01*
X103507339Y-89635000D01*
X103405606Y-89662259D01*
X103314394Y-89714920D01*
X103239920Y-89789394D01*
X103187259Y-89880606D01*
X103160000Y-89982339D01*
X102977010Y-89982339D01*
X102712778Y-89718107D01*
X102690740Y-89771311D01*
X102690737Y-89771320D01*
X102656000Y-89945959D01*
X80500500Y-89945959D01*
X80500500Y-89187778D01*
X103243107Y-89187778D01*
X103560000Y-89504670D01*
X103560001Y-89504670D01*
X103876891Y-89187778D01*
X103823687Y-89165740D01*
X103823679Y-89165738D01*
X103649040Y-89131000D01*
X103470959Y-89131000D01*
X103296320Y-89165737D01*
X103296311Y-89165740D01*
X103243107Y-89187778D01*
X80500500Y-89187778D01*
X80500500Y-85745186D01*
X84039500Y-85745186D01*
X84039500Y-86014813D01*
X84069686Y-86282719D01*
X84069688Y-86282731D01*
X84129684Y-86545594D01*
X84129687Y-86545602D01*
X84218734Y-86800082D01*
X84335714Y-87042994D01*
X84335716Y-87042997D01*
X84479162Y-87271289D01*
X84647266Y-87482085D01*
X84837915Y-87672734D01*
X85048711Y-87840838D01*
X85277003Y-87984284D01*
X85519921Y-88101267D01*
X85711049Y-88168145D01*
X85774397Y-88190312D01*
X85774405Y-88190315D01*
X85774408Y-88190315D01*
X85774409Y-88190316D01*
X86037268Y-88250312D01*
X86305187Y-88280499D01*
X86305188Y-88280500D01*
X86305191Y-88280500D01*
X86574812Y-88280500D01*
X86574812Y-88280499D01*
X86842732Y-88250312D01*
X87105591Y-88190316D01*
X87360079Y-88101267D01*
X87602997Y-87984284D01*
X87831289Y-87840838D01*
X88042085Y-87672734D01*
X88232734Y-87482085D01*
X88400838Y-87271289D01*
X88544284Y-87042997D01*
X88661267Y-86800079D01*
X88750316Y-86545591D01*
X88810312Y-86282732D01*
X88840500Y-86014809D01*
X88840500Y-85745191D01*
X88810312Y-85477268D01*
X88750316Y-85214409D01*
X88661267Y-84959921D01*
X88661264Y-84959916D01*
X88661262Y-84959909D01*
X88544363Y-84717165D01*
X88544362Y-84717164D01*
X88544286Y-84717006D01*
X88512097Y-84665778D01*
X94199500Y-84665778D01*
X94199500Y-87094221D01*
X94209904Y-87226412D01*
X94209905Y-87226419D01*
X94264902Y-87444678D01*
X94264903Y-87444681D01*
X94357991Y-87649622D01*
X94357997Y-87649632D01*
X94486174Y-87834645D01*
X94486178Y-87834650D01*
X94486181Y-87834654D01*
X94645346Y-87993819D01*
X94645350Y-87993822D01*
X94645354Y-87993825D01*
X94784603Y-88090297D01*
X94830374Y-88122007D01*
X95035317Y-88215096D01*
X95035321Y-88215097D01*
X95253580Y-88270094D01*
X95253582Y-88270094D01*
X95253589Y-88270096D01*
X95385784Y-88280500D01*
X95385792Y-88280500D01*
X97814208Y-88280500D01*
X97814216Y-88280500D01*
X97946411Y-88270096D01*
X98164683Y-88215096D01*
X98369626Y-88122007D01*
X98554654Y-87993819D01*
X98713819Y-87834654D01*
X98842007Y-87649626D01*
X98935096Y-87444683D01*
X98990096Y-87226411D01*
X99000500Y-87094216D01*
X99000500Y-86224038D01*
X112774500Y-86224038D01*
X112774500Y-86475962D01*
X112793817Y-86597925D01*
X112813910Y-86724785D01*
X112891760Y-86964383D01*
X113006132Y-87188848D01*
X113154201Y-87392649D01*
X113154205Y-87392654D01*
X113332345Y-87570794D01*
X113332350Y-87570798D01*
X113472654Y-87672734D01*
X113536155Y-87718870D01*
X113679184Y-87791747D01*
X113760616Y-87833239D01*
X113760618Y-87833239D01*
X113760621Y-87833241D01*
X114000215Y-87911090D01*
X114249038Y-87950500D01*
X114249039Y-87950500D01*
X114500961Y-87950500D01*
X114500962Y-87950500D01*
X114749785Y-87911090D01*
X114989379Y-87833241D01*
X115213845Y-87718870D01*
X115417656Y-87570793D01*
X115595793Y-87392656D01*
X115698629Y-87251112D01*
X115753957Y-87208449D01*
X115798946Y-87200000D01*
X115958720Y-87200000D01*
X115958722Y-87199999D01*
X116122925Y-87167337D01*
X116122936Y-87167334D01*
X116150560Y-87155890D01*
X116150561Y-87155890D01*
X115936693Y-86942023D01*
X115903208Y-86880700D01*
X115906442Y-86816030D01*
X115936090Y-86724785D01*
X115949416Y-86640643D01*
X115990796Y-86629556D01*
X116059205Y-86590060D01*
X116115060Y-86534205D01*
X116154556Y-86465796D01*
X116175000Y-86389496D01*
X116175000Y-86349999D01*
X116405330Y-86349999D01*
X116405330Y-86350001D01*
X116680890Y-86625561D01*
X116680890Y-86625560D01*
X116692334Y-86597936D01*
X116692337Y-86597925D01*
X116724999Y-86433722D01*
X116725000Y-86433720D01*
X116725000Y-86266279D01*
X116724999Y-86266277D01*
X116692337Y-86102071D01*
X116692336Y-86102070D01*
X116680890Y-86074438D01*
X116680889Y-86074438D01*
X116405330Y-86349999D01*
X116175000Y-86349999D01*
X116175000Y-86310504D01*
X116154556Y-86234204D01*
X116115060Y-86165795D01*
X116059205Y-86109940D01*
X115990796Y-86070444D01*
X115949416Y-86059356D01*
X115936090Y-85975215D01*
X115906442Y-85883970D01*
X115904448Y-85814134D01*
X115936693Y-85757974D01*
X116150561Y-85544107D01*
X116122944Y-85532667D01*
X116122929Y-85532663D01*
X115958721Y-85500000D01*
X115798947Y-85500000D01*
X115731908Y-85480315D01*
X115698629Y-85448885D01*
X115595798Y-85307350D01*
X115595794Y-85307345D01*
X115417654Y-85129205D01*
X115417649Y-85129201D01*
X115213848Y-84981132D01*
X115213847Y-84981131D01*
X115213845Y-84981130D01*
X115143747Y-84945413D01*
X114989383Y-84866760D01*
X114749785Y-84788910D01*
X114500962Y-84749500D01*
X114249038Y-84749500D01*
X114124626Y-84769205D01*
X114000214Y-84788910D01*
X113760616Y-84866760D01*
X113536151Y-84981132D01*
X113332350Y-85129201D01*
X113332345Y-85129205D01*
X113154205Y-85307345D01*
X113154201Y-85307350D01*
X113006132Y-85511151D01*
X112891760Y-85735616D01*
X112813910Y-85975214D01*
X112807638Y-86014813D01*
X112774500Y-86224038D01*
X99000500Y-86224038D01*
X99000500Y-84665784D01*
X98990096Y-84533589D01*
X98935096Y-84315317D01*
X98842007Y-84110374D01*
X98713819Y-83925346D01*
X98554654Y-83766181D01*
X98554650Y-83766178D01*
X98554645Y-83766174D01*
X98369632Y-83637997D01*
X98369630Y-83637995D01*
X98369626Y-83637993D01*
X98164683Y-83544904D01*
X98164681Y-83544903D01*
X98164678Y-83544902D01*
X97946419Y-83489905D01*
X97946412Y-83489904D01*
X97814221Y-83479500D01*
X97814216Y-83479500D01*
X95385784Y-83479500D01*
X95385778Y-83479500D01*
X95253587Y-83489904D01*
X95253580Y-83489905D01*
X95035321Y-83544902D01*
X95035318Y-83544903D01*
X94830377Y-83637991D01*
X94830367Y-83637997D01*
X94645354Y-83766174D01*
X94645342Y-83766184D01*
X94486184Y-83925342D01*
X94486174Y-83925354D01*
X94357997Y-84110367D01*
X94357991Y-84110377D01*
X94264903Y-84315318D01*
X94264902Y-84315321D01*
X94209905Y-84533580D01*
X94209904Y-84533587D01*
X94199500Y-84665778D01*
X88512097Y-84665778D01*
X88400838Y-84488711D01*
X88232734Y-84277915D01*
X88042085Y-84087266D01*
X87831289Y-83919162D01*
X87602997Y-83775716D01*
X87602994Y-83775714D01*
X87360082Y-83658734D01*
X87105602Y-83569687D01*
X87105594Y-83569684D01*
X86908446Y-83524687D01*
X86842732Y-83509688D01*
X86842728Y-83509687D01*
X86842719Y-83509686D01*
X86574813Y-83479500D01*
X86574809Y-83479500D01*
X86305191Y-83479500D01*
X86305186Y-83479500D01*
X86037280Y-83509686D01*
X86037268Y-83509688D01*
X85774405Y-83569684D01*
X85774397Y-83569687D01*
X85519917Y-83658734D01*
X85277005Y-83775714D01*
X85048712Y-83919161D01*
X84837915Y-84087265D01*
X84647265Y-84277915D01*
X84479161Y-84488712D01*
X84335714Y-84717005D01*
X84218734Y-84959917D01*
X84129687Y-85214397D01*
X84129684Y-85214405D01*
X84069688Y-85477268D01*
X84069686Y-85477280D01*
X84039500Y-85745186D01*
X80500500Y-85745186D01*
X80500500Y-83012220D01*
X103243108Y-83012220D01*
X103296313Y-83034260D01*
X103296319Y-83034261D01*
X103470959Y-83068999D01*
X103470963Y-83069000D01*
X103649037Y-83069000D01*
X103649040Y-83068999D01*
X103823680Y-83034261D01*
X103823691Y-83034258D01*
X103876890Y-83012221D01*
X103876890Y-83012220D01*
X103560001Y-82695330D01*
X103560000Y-82695330D01*
X103243108Y-83012220D01*
X80500500Y-83012220D01*
X80500500Y-82075959D01*
X102656000Y-82075959D01*
X102656000Y-82254040D01*
X102690738Y-82428679D01*
X102690740Y-82428687D01*
X102712778Y-82481891D01*
X103029670Y-82165000D01*
X103029670Y-82164999D01*
X102977010Y-82112339D01*
X103160000Y-82112339D01*
X103160000Y-82217661D01*
X103187259Y-82319394D01*
X103239920Y-82410606D01*
X103314394Y-82485080D01*
X103405606Y-82537741D01*
X103507339Y-82565000D01*
X103612661Y-82565000D01*
X103714394Y-82537741D01*
X103805606Y-82485080D01*
X103880080Y-82410606D01*
X103932741Y-82319394D01*
X103960000Y-82217661D01*
X103960000Y-82164999D01*
X104090330Y-82164999D01*
X104090330Y-82165000D01*
X104435009Y-82509679D01*
X104476610Y-82541996D01*
X104493964Y-82576205D01*
X104566715Y-82800108D01*
X104684945Y-83032147D01*
X104838018Y-83242834D01*
X105022166Y-83426982D01*
X105232853Y-83580055D01*
X105464892Y-83698285D01*
X105712570Y-83778761D01*
X105809026Y-83794038D01*
X105969783Y-83819500D01*
X105969788Y-83819500D01*
X106230217Y-83819500D01*
X106373110Y-83796867D01*
X106487430Y-83778761D01*
X106735108Y-83698285D01*
X106967147Y-83580055D01*
X107177834Y-83426982D01*
X107282319Y-83322497D01*
X107343642Y-83289012D01*
X107413334Y-83293996D01*
X107457681Y-83322497D01*
X107562166Y-83426982D01*
X107772853Y-83580055D01*
X108004892Y-83698285D01*
X108252570Y-83778761D01*
X108349026Y-83794038D01*
X108509783Y-83819500D01*
X108509788Y-83819500D01*
X108770217Y-83819500D01*
X108913110Y-83796867D01*
X109027430Y-83778761D01*
X109275108Y-83698285D01*
X109507147Y-83580055D01*
X109631102Y-83489996D01*
X109696906Y-83466517D01*
X109764960Y-83482342D01*
X109800086Y-83511952D01*
X109814891Y-83530109D01*
X109972593Y-83658698D01*
X110152951Y-83752909D01*
X110348582Y-83808886D01*
X110467963Y-83819500D01*
X111892036Y-83819499D01*
X112011418Y-83808886D01*
X112207049Y-83752909D01*
X112387407Y-83658698D01*
X112545109Y-83530109D01*
X112545117Y-83530098D01*
X112549150Y-83526066D01*
X112610470Y-83492574D01*
X112680162Y-83497550D01*
X112735218Y-83538251D01*
X112828406Y-83659697D01*
X112828412Y-83659704D01*
X112995295Y-83826587D01*
X112995301Y-83826592D01*
X113182550Y-83970273D01*
X113313918Y-84046118D01*
X113386943Y-84088280D01*
X113386948Y-84088282D01*
X113386951Y-84088284D01*
X113605007Y-84178606D01*
X113832986Y-84239693D01*
X114066989Y-84270500D01*
X114066996Y-84270500D01*
X114303004Y-84270500D01*
X114303011Y-84270500D01*
X114537014Y-84239693D01*
X114764993Y-84178606D01*
X114983049Y-84088284D01*
X115187450Y-83970273D01*
X115374699Y-83826592D01*
X115541592Y-83659699D01*
X115685273Y-83472450D01*
X115710380Y-83428964D01*
X116256364Y-83428964D01*
X116378729Y-83479650D01*
X116378733Y-83479651D01*
X116581579Y-83519999D01*
X116581583Y-83520000D01*
X116788417Y-83520000D01*
X116788420Y-83519999D01*
X116991266Y-83479651D01*
X116991270Y-83479650D01*
X117113635Y-83428964D01*
X116685001Y-83000330D01*
X116685000Y-83000330D01*
X116256364Y-83428964D01*
X115710380Y-83428964D01*
X115803284Y-83268049D01*
X115893606Y-83049993D01*
X115954693Y-82822014D01*
X115972250Y-82688654D01*
X116000514Y-82624762D01*
X116007506Y-82617161D01*
X116154669Y-82469999D01*
X116102009Y-82417339D01*
X116285000Y-82417339D01*
X116285000Y-82522661D01*
X116312259Y-82624394D01*
X116364920Y-82715606D01*
X116439394Y-82790080D01*
X116530606Y-82842741D01*
X116632339Y-82870000D01*
X116737661Y-82870000D01*
X116839394Y-82842741D01*
X116930606Y-82790080D01*
X117005080Y-82715606D01*
X117057741Y-82624394D01*
X117085000Y-82522661D01*
X117085000Y-82469999D01*
X117215330Y-82469999D01*
X117215330Y-82470001D01*
X117643964Y-82898635D01*
X117694650Y-82776270D01*
X117694651Y-82776266D01*
X117734999Y-82573420D01*
X117735000Y-82573417D01*
X117735000Y-82366583D01*
X117734999Y-82366579D01*
X117694651Y-82163733D01*
X117694650Y-82163729D01*
X117643964Y-82041364D01*
X117215330Y-82469999D01*
X117085000Y-82469999D01*
X117085000Y-82417339D01*
X117057741Y-82315606D01*
X117005080Y-82224394D01*
X116930606Y-82149920D01*
X116839394Y-82097259D01*
X116737661Y-82070000D01*
X116632339Y-82070000D01*
X116530606Y-82097259D01*
X116439394Y-82149920D01*
X116364920Y-82224394D01*
X116312259Y-82315606D01*
X116285000Y-82417339D01*
X116102009Y-82417339D01*
X116007507Y-82322837D01*
X115974022Y-82261514D01*
X115972249Y-82251341D01*
X115968701Y-82224394D01*
X115954693Y-82117986D01*
X115893606Y-81890007D01*
X115803284Y-81671951D01*
X115710379Y-81511034D01*
X116256363Y-81511034D01*
X116685000Y-81939670D01*
X116685001Y-81939670D01*
X117113635Y-81511034D01*
X116991274Y-81460350D01*
X116991266Y-81460348D01*
X116788420Y-81420000D01*
X116581579Y-81420000D01*
X116378733Y-81460348D01*
X116378723Y-81460351D01*
X116256363Y-81511034D01*
X115710379Y-81511034D01*
X115685273Y-81467550D01*
X115553437Y-81295738D01*
X115541593Y-81280302D01*
X115541587Y-81280295D01*
X115374704Y-81113412D01*
X115374697Y-81113406D01*
X115187454Y-80969730D01*
X115187453Y-80969729D01*
X115187450Y-80969727D01*
X115105957Y-80922677D01*
X114983056Y-80851719D01*
X114983045Y-80851714D01*
X114764993Y-80761394D01*
X114537010Y-80700306D01*
X114303020Y-80669501D01*
X114303017Y-80669500D01*
X114303011Y-80669500D01*
X114066989Y-80669500D01*
X114066983Y-80669500D01*
X114066979Y-80669501D01*
X113832989Y-80700306D01*
X113605006Y-80761394D01*
X113386954Y-80851714D01*
X113386943Y-80851719D01*
X113182545Y-80969730D01*
X112995302Y-81113406D01*
X112995295Y-81113412D01*
X112956915Y-81151792D01*
X112895592Y-81185277D01*
X112825900Y-81180291D01*
X112769967Y-81138419D01*
X112759330Y-81121527D01*
X112673698Y-80957593D01*
X112649958Y-80928479D01*
X112545109Y-80799890D01*
X112387409Y-80671304D01*
X112387410Y-80671304D01*
X112387407Y-80671302D01*
X112207049Y-80577091D01*
X112207048Y-80577090D01*
X112207045Y-80577089D01*
X112061387Y-80535412D01*
X112011418Y-80521114D01*
X112011415Y-80521113D01*
X112011413Y-80521113D01*
X111945102Y-80515217D01*
X111892037Y-80510500D01*
X111892032Y-80510500D01*
X110467971Y-80510500D01*
X110467965Y-80510500D01*
X110467964Y-80510501D01*
X110457352Y-80511444D01*
X110348583Y-80521113D01*
X110348582Y-80521114D01*
X110298610Y-80535412D01*
X110228742Y-80534928D01*
X110170227Y-80496748D01*
X110141643Y-80432992D01*
X110140500Y-80416196D01*
X110140500Y-80321902D01*
X110103553Y-80088631D01*
X110033817Y-79874008D01*
X110030568Y-79864008D01*
X110030566Y-79864005D01*
X110030566Y-79864003D01*
X109928438Y-79663567D01*
X109923343Y-79653567D01*
X109784517Y-79462490D01*
X109617510Y-79295483D01*
X109426433Y-79156657D01*
X109215996Y-79049433D01*
X108991368Y-78976446D01*
X108758097Y-78939500D01*
X108758092Y-78939500D01*
X108521908Y-78939500D01*
X108521903Y-78939500D01*
X108288631Y-78976446D01*
X108064003Y-79049433D01*
X107853566Y-79156657D01*
X107744550Y-79235862D01*
X107662490Y-79295483D01*
X107662488Y-79295485D01*
X107662487Y-79295485D01*
X107495485Y-79462487D01*
X107495478Y-79462496D01*
X107466684Y-79502127D01*
X107411354Y-79544793D01*
X107341740Y-79550771D01*
X107279946Y-79518164D01*
X107266053Y-79502131D01*
X107244517Y-79472490D01*
X107077510Y-79305483D01*
X106886433Y-79166657D01*
X106866807Y-79156657D01*
X106675996Y-79059433D01*
X106451368Y-78986446D01*
X106218097Y-78949500D01*
X106218092Y-78949500D01*
X105981908Y-78949500D01*
X105981903Y-78949500D01*
X105748631Y-78986446D01*
X105524003Y-79059433D01*
X105313566Y-79166657D01*
X105204550Y-79245862D01*
X105122490Y-79305483D01*
X105122488Y-79305485D01*
X105122487Y-79305485D01*
X104955485Y-79472487D01*
X104955485Y-79472488D01*
X104955483Y-79472490D01*
X104922299Y-79518164D01*
X104816657Y-79663566D01*
X104709433Y-79874003D01*
X104636446Y-80098631D01*
X104599500Y-80331902D01*
X104599500Y-80568097D01*
X104636446Y-80801368D01*
X104709434Y-81025999D01*
X104746260Y-81098273D01*
X104759156Y-81166942D01*
X104736094Y-81227452D01*
X104684944Y-81297853D01*
X104566716Y-81529887D01*
X104493964Y-81753794D01*
X104454526Y-81811469D01*
X104436053Y-81819275D01*
X104090330Y-82164999D01*
X103960000Y-82164999D01*
X103960000Y-82112339D01*
X103932741Y-82010606D01*
X103880080Y-81919394D01*
X103805606Y-81844920D01*
X103714394Y-81792259D01*
X103612661Y-81765000D01*
X103507339Y-81765000D01*
X103405606Y-81792259D01*
X103314394Y-81844920D01*
X103239920Y-81919394D01*
X103187259Y-82010606D01*
X103160000Y-82112339D01*
X102977010Y-82112339D01*
X102712778Y-81848107D01*
X102690740Y-81901311D01*
X102690737Y-81901320D01*
X102656000Y-82075959D01*
X80500500Y-82075959D01*
X80500500Y-81317778D01*
X103243107Y-81317778D01*
X103560000Y-81634670D01*
X103560001Y-81634670D01*
X103876891Y-81317778D01*
X103823687Y-81295740D01*
X103823679Y-81295738D01*
X103649040Y-81261000D01*
X103470959Y-81261000D01*
X103296320Y-81295737D01*
X103296311Y-81295740D01*
X103243107Y-81317778D01*
X80500500Y-81317778D01*
X80500500Y-74626372D01*
X85649500Y-74626372D01*
X85649500Y-76488627D01*
X85672419Y-76662705D01*
X85683730Y-76748616D01*
X85751602Y-77001918D01*
X85751605Y-77001928D01*
X85851953Y-77244190D01*
X85851958Y-77244200D01*
X85983075Y-77471303D01*
X86142718Y-77679351D01*
X86142726Y-77679360D01*
X86328140Y-77864774D01*
X86328148Y-77864781D01*
X86536196Y-78024424D01*
X86763299Y-78155541D01*
X86763309Y-78155546D01*
X86899621Y-78212008D01*
X87005581Y-78255898D01*
X87258884Y-78323770D01*
X87507188Y-78356460D01*
X87518864Y-78357998D01*
X87518880Y-78358000D01*
X87518887Y-78358000D01*
X87781113Y-78358000D01*
X87781120Y-78358000D01*
X88041116Y-78323770D01*
X88294419Y-78255898D01*
X88536697Y-78155543D01*
X88763803Y-78024424D01*
X88971851Y-77864782D01*
X88971855Y-77864777D01*
X88971860Y-77864774D01*
X89157274Y-77679360D01*
X89157277Y-77679355D01*
X89157282Y-77679351D01*
X89316924Y-77471303D01*
X89448043Y-77244197D01*
X89472845Y-77184321D01*
X89548394Y-77001928D01*
X89548398Y-77001919D01*
X89616270Y-76748616D01*
X89650500Y-76488620D01*
X89650500Y-74626380D01*
X89616270Y-74366384D01*
X89548398Y-74113081D01*
X89512425Y-74026234D01*
X89496713Y-73988301D01*
X89478063Y-73943277D01*
X93149500Y-73943277D01*
X93149500Y-77171708D01*
X93149501Y-77171723D01*
X93159904Y-77303913D01*
X93159905Y-77303920D01*
X93214902Y-77522178D01*
X93214903Y-77522181D01*
X93307991Y-77727122D01*
X93307997Y-77727132D01*
X93436174Y-77912145D01*
X93436178Y-77912150D01*
X93436181Y-77912154D01*
X93595346Y-78071319D01*
X93595350Y-78071322D01*
X93595354Y-78071325D01*
X93613397Y-78083825D01*
X93780374Y-78199507D01*
X93985317Y-78292596D01*
X93985321Y-78292597D01*
X94203579Y-78347594D01*
X94203581Y-78347594D01*
X94203588Y-78347596D01*
X94335783Y-78358000D01*
X95964216Y-78357999D01*
X96096412Y-78347596D01*
X96314683Y-78292596D01*
X96519626Y-78199507D01*
X96704654Y-78071319D01*
X96863819Y-77912154D01*
X96992007Y-77727126D01*
X97085096Y-77522183D01*
X97140096Y-77303912D01*
X97150500Y-77171717D01*
X97150499Y-74671617D01*
X102430000Y-74671617D01*
X102430000Y-75195000D01*
X103088684Y-75195000D01*
X103059668Y-75238426D01*
X103006901Y-75365818D01*
X102980000Y-75501056D01*
X102980000Y-75638944D01*
X103006901Y-75774182D01*
X103059668Y-75901574D01*
X103088684Y-75945000D01*
X102430000Y-75945000D01*
X102430000Y-76468382D01*
X102460778Y-76662705D01*
X102521581Y-76849835D01*
X102610904Y-77025143D01*
X102726555Y-77184321D01*
X102865678Y-77323444D01*
X103024858Y-77439097D01*
X103200167Y-77528420D01*
X103304999Y-77562482D01*
X103305000Y-77562481D01*
X103305000Y-76161315D01*
X103348426Y-76190332D01*
X103475818Y-76243099D01*
X103611056Y-76270000D01*
X103748944Y-76270000D01*
X103884182Y-76243099D01*
X104011574Y-76190332D01*
X104055000Y-76161315D01*
X104055000Y-77562482D01*
X104159832Y-77528420D01*
X104335141Y-77439097D01*
X104494321Y-77323444D01*
X104633444Y-77184321D01*
X104749095Y-77025143D01*
X104838418Y-76849835D01*
X104899221Y-76662705D01*
X104930000Y-76468382D01*
X104930000Y-75945000D01*
X104271316Y-75945000D01*
X104300332Y-75901574D01*
X104353099Y-75774182D01*
X104380000Y-75638944D01*
X104380000Y-75501056D01*
X104353099Y-75365818D01*
X104300332Y-75238426D01*
X104271316Y-75195000D01*
X104930000Y-75195000D01*
X104930000Y-74671617D01*
X104899221Y-74477294D01*
X104838418Y-74290164D01*
X104749095Y-74114856D01*
X104684707Y-74026234D01*
X104684706Y-74026231D01*
X104633516Y-73955777D01*
X109179500Y-73955777D01*
X109179500Y-77184208D01*
X109179501Y-77184223D01*
X109189904Y-77316413D01*
X109189905Y-77316420D01*
X109244902Y-77534678D01*
X109244903Y-77534681D01*
X109337991Y-77739622D01*
X109337997Y-77739632D01*
X109466174Y-77924645D01*
X109466178Y-77924650D01*
X109466181Y-77924654D01*
X109625346Y-78083819D01*
X109625350Y-78083822D01*
X109625354Y-78083825D01*
X109764603Y-78180297D01*
X109810374Y-78212007D01*
X110015317Y-78305096D01*
X110015321Y-78305097D01*
X110233579Y-78360094D01*
X110233581Y-78360094D01*
X110233588Y-78360096D01*
X110365783Y-78370500D01*
X111994216Y-78370499D01*
X112126412Y-78360096D01*
X112344683Y-78305096D01*
X112549626Y-78212007D01*
X112734654Y-78083819D01*
X112893819Y-77924654D01*
X113022007Y-77739626D01*
X113115096Y-77534683D01*
X113170096Y-77316412D01*
X113180500Y-77184217D01*
X113180499Y-73955784D01*
X113170096Y-73823588D01*
X113115096Y-73605317D01*
X113022007Y-73400374D01*
X112917984Y-73250226D01*
X112893825Y-73215354D01*
X112893822Y-73215350D01*
X112893819Y-73215346D01*
X112734654Y-73056181D01*
X112734650Y-73056178D01*
X112734645Y-73056174D01*
X112549632Y-72927997D01*
X112549630Y-72927995D01*
X112549626Y-72927993D01*
X112522106Y-72915493D01*
X112344681Y-72834903D01*
X112344678Y-72834902D01*
X112126420Y-72779905D01*
X112126413Y-72779904D01*
X112082347Y-72776436D01*
X111994217Y-72769500D01*
X111994215Y-72769500D01*
X110365791Y-72769500D01*
X110365776Y-72769501D01*
X110233586Y-72779904D01*
X110233579Y-72779905D01*
X110015321Y-72834902D01*
X110015318Y-72834903D01*
X109810377Y-72927991D01*
X109810367Y-72927997D01*
X109625354Y-73056174D01*
X109625342Y-73056184D01*
X109466184Y-73215342D01*
X109466174Y-73215354D01*
X109337997Y-73400367D01*
X109337991Y-73400377D01*
X109244903Y-73605318D01*
X109244902Y-73605321D01*
X109189905Y-73823579D01*
X109189904Y-73823586D01*
X109179500Y-73955777D01*
X104633516Y-73955777D01*
X104633450Y-73955686D01*
X104633443Y-73955677D01*
X104494321Y-73816555D01*
X104335143Y-73700904D01*
X104159837Y-73611581D01*
X104055000Y-73577517D01*
X104055000Y-74978684D01*
X104011574Y-74949668D01*
X103884182Y-74896901D01*
X103748944Y-74870000D01*
X103611056Y-74870000D01*
X103475818Y-74896901D01*
X103348426Y-74949668D01*
X103305000Y-74978684D01*
X103305000Y-73577517D01*
X103200162Y-73611581D01*
X103024856Y-73700904D01*
X102865678Y-73816555D01*
X102726555Y-73955678D01*
X102610904Y-74114856D01*
X102521581Y-74290164D01*
X102460778Y-74477294D01*
X102430000Y-74671617D01*
X97150499Y-74671617D01*
X97150499Y-73943284D01*
X97140096Y-73811088D01*
X97085096Y-73592817D01*
X96992007Y-73387874D01*
X96896644Y-73250226D01*
X96863825Y-73202854D01*
X96863822Y-73202850D01*
X96863819Y-73202846D01*
X96704654Y-73043681D01*
X96704650Y-73043678D01*
X96704645Y-73043674D01*
X96519632Y-72915497D01*
X96519630Y-72915495D01*
X96519626Y-72915493D01*
X96395483Y-72859105D01*
X96314681Y-72822403D01*
X96314678Y-72822402D01*
X96096420Y-72767405D01*
X96096413Y-72767404D01*
X96052347Y-72763936D01*
X95964217Y-72757000D01*
X95964215Y-72757000D01*
X94335791Y-72757000D01*
X94335776Y-72757001D01*
X94203586Y-72767404D01*
X94203579Y-72767405D01*
X93985321Y-72822402D01*
X93985318Y-72822403D01*
X93780377Y-72915491D01*
X93780367Y-72915497D01*
X93595354Y-73043674D01*
X93595342Y-73043684D01*
X93436184Y-73202842D01*
X93436174Y-73202854D01*
X93307997Y-73387867D01*
X93307991Y-73387877D01*
X93214903Y-73592818D01*
X93214902Y-73592821D01*
X93159905Y-73811079D01*
X93159904Y-73811086D01*
X93149500Y-73943277D01*
X89478063Y-73943277D01*
X89448046Y-73870809D01*
X89448041Y-73870799D01*
X89316924Y-73643696D01*
X89157281Y-73435648D01*
X89157274Y-73435640D01*
X88971860Y-73250226D01*
X88971851Y-73250218D01*
X88763803Y-73090575D01*
X88536700Y-72959458D01*
X88536690Y-72959453D01*
X88294428Y-72859105D01*
X88294421Y-72859103D01*
X88294419Y-72859102D01*
X88041116Y-72791230D01*
X87983339Y-72783623D01*
X87781127Y-72757000D01*
X87781120Y-72757000D01*
X87518880Y-72757000D01*
X87518872Y-72757000D01*
X87287772Y-72787426D01*
X87258884Y-72791230D01*
X87095890Y-72834904D01*
X87005581Y-72859102D01*
X87005571Y-72859105D01*
X86763309Y-72959453D01*
X86763299Y-72959458D01*
X86536196Y-73090575D01*
X86328148Y-73250218D01*
X86142718Y-73435648D01*
X85983075Y-73643696D01*
X85851958Y-73870799D01*
X85851953Y-73870809D01*
X85751605Y-74113071D01*
X85751602Y-74113081D01*
X85683730Y-74366385D01*
X85649500Y-74626372D01*
X80500500Y-74626372D01*
X80500500Y-71454500D01*
X80520185Y-71387461D01*
X80572989Y-71341706D01*
X80624500Y-71330500D01*
X118345500Y-71330500D01*
X118412539Y-71350185D01*
G37*
G04 #@! TD.AperFunction*
G04 #@! TD*
M02*
