M48
; DRILL file {KiCad 9.0.3} date 2025-10-12T17:28:31-0500
; FORMAT={-:-/ absolute / inch / decimal}
; #@! TF.CreationDate,2025-10-12T17:28:31-05:00
; #@! TF.GenerationSoftware,Kicad,Pcbnew,9.0.3
; #@! TF.FileFunction,Plated,1,4,PTH
FMAT,2
INCH
; #@! TA.AperFunction,Plated,PTH,ViaDrill
T1C0.0118
; #@! TA.AperFunction,Plated,PTH,ViaDrill
T2C0.0197
; #@! TA.AperFunction,Plated,PTH,ComponentDrill
T3C0.0236
; #@! TA.AperFunction,Plated,PTH,ComponentDrill
T4C0.0315
; #@! TA.AperFunction,Plated,PTH,ComponentDrill
T5C0.0394
; #@! TA.AperFunction,Plated,PTH,ComponentDrill
T6C0.0472
; #@! TA.AperFunction,Plated,PTH,ViaDrill
T7C0.0492
; #@! TA.AperFunction,Plated,PTH,ComponentDrill
T8C0.0551
; #@! TA.AperFunction,Plated,PTH,ComponentDrill
T9C0.0591
%
G90
G05
T1
X3.187Y-2.8258
X3.187Y-2.877
X3.187Y-2.9281
X3.187Y-2.9793
X3.187Y-3.0305
X3.187Y-3.0817
X3.187Y-3.1329
X3.187Y-3.1841
X3.187Y-3.2352
X3.187Y-3.2864
X3.187Y-3.3376
X3.187Y-3.3888
X3.187Y-3.44
X3.187Y-3.4911
X3.187Y-3.5423
X3.187Y-3.5935
X3.187Y-3.6447
X3.187Y-3.6447
X3.187Y-3.6959
X3.187Y-3.747
X3.187Y-3.7982
X3.187Y-3.8494
X3.187Y-3.9006
X3.187Y-3.9518
X3.187Y-4.003
X3.187Y-4.0541
X3.187Y-4.1053
X3.187Y-4.1565
X3.187Y-4.2077
X3.187Y-4.2589
X3.187Y-4.31
X3.187Y-4.3612
X3.187Y-4.4124
X3.187Y-4.4636
X3.187Y-4.5148
X3.187Y-4.5659
X3.187Y-4.6171
X3.187Y-4.6683
X3.187Y-4.7195
X3.187Y-4.7707
X3.187Y-4.8219
X3.187Y-4.873
X3.187Y-4.9242
X3.187Y-4.9754
X3.187Y-5.0266
X3.187Y-5.0778
X3.187Y-5.1289
X3.187Y-5.1801
X3.187Y-5.2313
X3.187Y-5.2825
X3.187Y-5.2825
X3.187Y-5.3337
X3.187Y-5.3848
X3.187Y-5.436
X3.187Y-5.4872
X3.187Y-5.5384
X3.187Y-5.5896
X3.187Y-5.6407
X3.187Y-5.6919
X3.187Y-5.7431
X3.187Y-5.7943
X3.187Y-5.8455
X3.187Y-5.8967
X3.187Y-5.9478
X3.187Y-5.999
X3.187Y-6.0502
X3.187Y-6.1014
X3.187Y-6.1526
X3.187Y-6.2037
X3.187Y-6.2549
X3.187Y-6.3061
X3.187Y-6.3573
X3.187Y-6.4085
X3.187Y-6.4596
X3.187Y-6.4596
X3.2382Y-2.8258
X3.2382Y-6.4596
X3.2894Y-2.8258
X3.2894Y-6.4596
X3.3406Y-2.8258
X3.3406Y-6.4596
T2
X4.1772Y-3.1673
X4.2272Y-3.3898
X4.2772Y-3.1669
T3
X4.503Y-3.3996
X4.562Y-3.3996
T4
X3.3411Y-5.5213
X3.3427Y-4.8756
X3.3463Y-4.2283
X3.7411Y-5.5213
X3.7427Y-4.8756
X3.7463Y-4.2283
X3.8051Y-5.8811
X4.002Y-5.8811
X4.073Y-5.5197
X4.0746Y-4.874
X4.0772Y-3.2348
X4.0772Y-3.5447
X4.0781Y-4.2268
X4.1772Y-3.2348
X4.1772Y-3.5447
X4.2122Y-6.0815
X4.2772Y-3.2348
X4.2772Y-3.5447
X4.3772Y-3.2348
X4.3772Y-3.5447
X4.473Y-5.5197
X4.4746Y-4.874
X4.4781Y-4.2268
X4.4955Y-3.2469
X4.5939Y-3.2469
X4.6122Y-6.0815
T5
X4.5563Y-6.2783
X4.5563Y-6.3768
T6
X3.4995Y-6.3578
X3.6995Y-6.3578
X3.8995Y-6.3578
X4.0995Y-6.3578
X4.2995Y-6.3578
T7
X4.6157Y-3.6646
T8
X3.4031Y-3.3811
X3.4508Y-2.9747
X3.7461Y-2.9747
X3.8031Y-3.3811
X4.0819Y-2.9752
X4.3772Y-2.9752
T9
X3.9002Y-3.7984
X3.9002Y-4.013
X3.9002Y-4.2276
X3.9002Y-4.4441
X3.9002Y-4.6587
X3.9002Y-4.8732
X3.9002Y-5.0898
X3.9002Y-5.3043
X3.9002Y-5.5189
M30
