G04 #@! TF.GenerationSoftware,KiCad,Pcbnew,9.0.3*
G04 #@! TF.CreationDate,2025-10-12T17:28:26-05:00*
G04 #@! TF.ProjectId,OSO-SWAT-C1,4f534f2d-5357-4415-942d-43312e6b6963,rev?*
G04 #@! TF.SameCoordinates,Original*
G04 #@! TF.FileFunction,Copper,L1,Top*
G04 #@! TF.FilePolarity,Positive*
%FSLAX46Y46*%
G04 Gerber Fmt 4.6, Leading zero omitted, Abs format (unit mm)*
G04 Created by KiCad (PCBNEW 9.0.3) date 2025-10-12 17:28:26*
%MOMM*%
%LPD*%
G01*
G04 APERTURE LIST*
G04 Aperture macros list*
%AMRoundRect*
0 Rectangle with rounded corners*
0 $1 Rounding radius*
0 $2 $3 $4 $5 $6 $7 $8 $9 X,Y pos of 4 corners*
0 Add a 4 corners polygon primitive as box body*
4,1,4,$2,$3,$4,$5,$6,$7,$8,$9,$2,$3,0*
0 Add four circle primitives for the rounded corners*
1,1,$1+$1,$2,$3*
1,1,$1+$1,$4,$5*
1,1,$1+$1,$6,$7*
1,1,$1+$1,$8,$9*
0 Add four rect primitives between the rounded corners*
20,1,$1+$1,$2,$3,$4,$5,0*
20,1,$1+$1,$4,$5,$6,$7,0*
20,1,$1+$1,$6,$7,$8,$9,0*
20,1,$1+$1,$8,$9,$2,$3,0*%
G04 Aperture macros list end*
G04 #@! TA.AperFunction,ComponentPad*
%ADD10C,1.600000*%
G04 #@! TD*
G04 #@! TA.AperFunction,ComponentPad*
%ADD11O,2.000000X1.700000*%
G04 #@! TD*
G04 #@! TA.AperFunction,ComponentPad*
%ADD12RoundRect,0.250000X0.750000X-0.600000X0.750000X0.600000X-0.750000X0.600000X-0.750000X-0.600000X0*%
G04 #@! TD*
G04 #@! TA.AperFunction,ComponentPad*
%ADD13C,1.200000*%
G04 #@! TD*
G04 #@! TA.AperFunction,ComponentPad*
%ADD14R,4.500000X2.500000*%
G04 #@! TD*
G04 #@! TA.AperFunction,ComponentPad*
%ADD15O,4.500000X2.500000*%
G04 #@! TD*
G04 #@! TA.AperFunction,ComponentPad*
%ADD16RoundRect,0.250000X-0.650000X-1.550000X0.650000X-1.550000X0.650000X1.550000X-0.650000X1.550000X0*%
G04 #@! TD*
G04 #@! TA.AperFunction,ComponentPad*
%ADD17O,1.800000X3.600000*%
G04 #@! TD*
G04 #@! TA.AperFunction,ComponentPad*
%ADD18RoundRect,0.250001X1.149999X1.149999X-1.149999X1.149999X-1.149999X-1.149999X1.149999X-1.149999X0*%
G04 #@! TD*
G04 #@! TA.AperFunction,ComponentPad*
%ADD19C,2.800000*%
G04 #@! TD*
G04 #@! TA.AperFunction,ComponentPad*
%ADD20RoundRect,0.250000X0.750000X1.550000X-0.750000X1.550000X-0.750000X-1.550000X0.750000X-1.550000X0*%
G04 #@! TD*
G04 #@! TA.AperFunction,ComponentPad*
%ADD21O,2.000000X3.600000*%
G04 #@! TD*
G04 #@! TA.AperFunction,ComponentPad*
%ADD22R,1.308000X1.308000*%
G04 #@! TD*
G04 #@! TA.AperFunction,ComponentPad*
%ADD23C,1.308000*%
G04 #@! TD*
G04 #@! TA.AperFunction,ViaPad*
%ADD24C,0.600000*%
G04 #@! TD*
G04 #@! TA.AperFunction,ViaPad*
%ADD25C,2.450000*%
G04 #@! TD*
G04 #@! TA.AperFunction,ViaPad*
%ADD26C,1.000000*%
G04 #@! TD*
G04 #@! TA.AperFunction,Conductor*
%ADD27C,1.016000*%
G04 #@! TD*
G04 APERTURE END LIST*
D10*
G04 #@! TO.P,REF\u002A\u002A,1*
G04 #@! TO.N,GND*
X106990000Y-154470000D03*
G04 #@! TO.P,REF\u002A\u002A,2*
G04 #@! TO.N,INPUT*
X117150000Y-154470000D03*
G04 #@! TD*
D11*
G04 #@! TO.P,REF\u002A\u002A,2*
G04 #@! TO.N,INPUT*
X115730000Y-159470000D03*
D12*
G04 #@! TO.P,REF\u002A\u002A,1*
X115730000Y-161970000D03*
G04 #@! TD*
D10*
G04 #@! TO.P,REF\u002A\u002A,2*
G04 #@! TO.N,GND*
X116685000Y-82470000D03*
G04 #@! TO.P,REF\u002A\u002A,1*
G04 #@! TO.N,VCC*
X114185000Y-82470000D03*
G04 #@! TD*
D13*
G04 #@! TO.P,REF\u002A\u002A,1*
G04 #@! TO.N,VCC*
X114375000Y-86350000D03*
G04 #@! TO.P,REF\u002A\u002A,2*
G04 #@! TO.N,GND*
X115875000Y-86350000D03*
G04 #@! TD*
D14*
G04 #@! TO.P,REF\u002A\u002A,1*
G04 #@! TO.N,Gate1*
X99065000Y-107380000D03*
D15*
G04 #@! TO.P,REF\u002A\u002A,2*
G04 #@! TO.N,Drain*
X99065000Y-101930000D03*
G04 #@! TO.P,REF\u002A\u002A,3*
G04 #@! TO.N,Source*
X99065000Y-96480000D03*
G04 #@! TD*
D10*
G04 #@! TO.P,REF\u002A\u002A,1*
G04 #@! TO.N,Source*
X84905000Y-123840000D03*
G04 #@! TO.P,REF\u002A\u002A,2*
G04 #@! TO.N,Gate2*
X95065000Y-123840000D03*
G04 #@! TD*
G04 #@! TO.P,REF\u002A\u002A,1*
G04 #@! TO.N,Gate3*
X103455000Y-140200000D03*
G04 #@! TO.P,REF\u002A\u002A,2*
G04 #@! TO.N,OUTPUT*
X113615000Y-140200000D03*
G04 #@! TD*
G04 #@! TO.P,REF\u002A\u002A,1*
G04 #@! TO.N,Source*
X84995000Y-107400000D03*
G04 #@! TO.P,REF\u002A\u002A,2*
G04 #@! TO.N,Gate1*
X95155000Y-107400000D03*
G04 #@! TD*
D16*
G04 #@! TO.P,REF\u002A\u002A,1*
G04 #@! TO.N,Source*
X88887500Y-161487500D03*
D17*
G04 #@! TO.P,REF\u002A\u002A,2*
G04 #@! TO.N,Gate3*
X93967500Y-161487500D03*
G04 #@! TO.P,REF\u002A\u002A,3*
G04 #@! TO.N,Gate2*
X99047500Y-161487500D03*
G04 #@! TO.P,REF\u002A\u002A,4*
G04 #@! TO.N,Gate1*
X104127500Y-161487500D03*
G04 #@! TO.P,REF\u002A\u002A,5*
G04 #@! TO.N,Drain*
X109207500Y-161487500D03*
G04 #@! TD*
D18*
G04 #@! TO.P,REF\u002A\u002A,1*
G04 #@! TO.N,Drain*
X96600000Y-85880000D03*
D19*
G04 #@! TO.P,REF\u002A\u002A,2*
G04 #@! TO.N,Source*
X86440000Y-85880000D03*
G04 #@! TD*
D14*
G04 #@! TO.P,REF\u002A\u002A,1*
G04 #@! TO.N,Gate2*
X99065000Y-123780000D03*
D15*
G04 #@! TO.P,REF\u002A\u002A,2*
G04 #@! TO.N,Drain*
X99065000Y-118330000D03*
G04 #@! TO.P,REF\u002A\u002A,3*
G04 #@! TO.N,Source*
X99065000Y-112880000D03*
G04 #@! TD*
D14*
G04 #@! TO.P,REF\u002A\u002A,1*
G04 #@! TO.N,Gate3*
X99065000Y-140180000D03*
D15*
G04 #@! TO.P,REF\u002A\u002A,2*
G04 #@! TO.N,Drain*
X99065000Y-134730000D03*
G04 #@! TO.P,REF\u002A\u002A,3*
G04 #@! TO.N,Source*
X99065000Y-129280000D03*
G04 #@! TD*
D20*
G04 #@! TO.P,REF\u002A\u002A,1*
G04 #@! TO.N,VCC*
X111180000Y-75570000D03*
D21*
G04 #@! TO.P,REF\u002A\u002A,2*
G04 #@! TO.N,GND*
X103680000Y-75570000D03*
G04 #@! TD*
D10*
G04 #@! TO.P,REF\u002A\u002A,1*
G04 #@! TO.N,Gate1*
X103585000Y-107360000D03*
G04 #@! TO.P,REF\u002A\u002A,2*
G04 #@! TO.N,OUTPUT*
X113745000Y-107360000D03*
G04 #@! TD*
G04 #@! TO.P,REF\u002A\u002A,1*
G04 #@! TO.N,Gate2*
X103495000Y-123800000D03*
G04 #@! TO.P,REF\u002A\u002A,2*
G04 #@! TO.N,OUTPUT*
X113655000Y-123800000D03*
G04 #@! TD*
G04 #@! TO.P,REF\u002A\u002A,1*
G04 #@! TO.N,Source*
X96650000Y-149380000D03*
G04 #@! TO.P,REF\u002A\u002A,2*
G04 #@! TO.N,Drain*
X101650000Y-149380000D03*
G04 #@! TD*
G04 #@! TO.P,REF\u002A\u002A,1*
G04 #@! TO.N,Source*
X84865000Y-140240000D03*
G04 #@! TO.P,REF\u002A\u002A,2*
G04 #@! TO.N,Gate3*
X95025000Y-140240000D03*
G04 #@! TD*
D22*
G04 #@! TO.P,REF\u002A\u002A,1*
G04 #@! TO.N,VCC*
X111180000Y-82165000D03*
D23*
G04 #@! TO.P,REF\u002A\u002A,2*
G04 #@! TO.N,INPUT*
X108640000Y-82165000D03*
G04 #@! TO.P,REF\u002A\u002A,3*
G04 #@! TO.N,NC*
X106100000Y-82165000D03*
G04 #@! TO.P,REF\u002A\u002A,4*
G04 #@! TO.N,GND*
X103560000Y-82165000D03*
G04 #@! TO.P,REF\u002A\u002A,5*
X103560000Y-90035000D03*
G04 #@! TO.P,REF\u002A\u002A,6*
G04 #@! TO.N,OUTPUT*
X106100000Y-90035000D03*
G04 #@! TO.P,REF\u002A\u002A,7*
X108640000Y-90035000D03*
G04 #@! TO.P,REF\u002A\u002A,8*
G04 #@! TO.N,VCC*
X111180000Y-90035000D03*
G04 #@! TD*
D20*
G04 #@! TO.P,REF\u002A\u002A,1*
G04 #@! TO.N,Drain*
X95150000Y-75557500D03*
D21*
G04 #@! TO.P,REF\u002A\u002A,2*
G04 #@! TO.N,Source*
X87650000Y-75557500D03*
G04 #@! TD*
D24*
G04 #@! TO.N,GND*
X82250000Y-71775000D03*
X84850000Y-71775000D03*
X83550000Y-71775000D03*
X80950000Y-164075000D03*
X82250000Y-164075000D03*
X84850000Y-164075000D03*
X83550000Y-164075000D03*
X80950000Y-158875000D03*
X80950000Y-156275000D03*
X80950000Y-162775000D03*
X80950000Y-164075000D03*
X80950000Y-160175000D03*
X80950000Y-157575000D03*
X80950000Y-161475000D03*
X80950000Y-96475000D03*
X80950000Y-93875000D03*
X80950000Y-112075000D03*
X80950000Y-126375000D03*
X80950000Y-122475000D03*
X80950000Y-127675000D03*
X80950000Y-114675000D03*
X80950000Y-121175000D03*
X80950000Y-92575000D03*
X80950000Y-125075000D03*
X80950000Y-134175000D03*
X80950000Y-100375000D03*
X80950000Y-101675000D03*
X80950000Y-97775000D03*
X80950000Y-110775000D03*
X80950000Y-128975000D03*
X80950000Y-115975000D03*
X80950000Y-109475000D03*
X80950000Y-123775000D03*
X80950000Y-102975000D03*
X80950000Y-95175000D03*
X80950000Y-104275000D03*
X80950000Y-117275000D03*
X80950000Y-131575000D03*
X80950000Y-130275000D03*
X80950000Y-113375000D03*
X80950000Y-119875000D03*
X80950000Y-132875000D03*
X80950000Y-99075000D03*
X80950000Y-108175000D03*
X80950000Y-106875000D03*
X80950000Y-105575000D03*
X80950000Y-118575000D03*
X80950000Y-141975000D03*
X80950000Y-140675000D03*
X80950000Y-138075000D03*
X80950000Y-154975000D03*
X80950000Y-143275000D03*
X80950000Y-139375000D03*
X80950000Y-149775000D03*
X80950000Y-152375000D03*
X80950000Y-134175000D03*
X80950000Y-151075000D03*
X80950000Y-148475000D03*
X80950000Y-135475000D03*
X80950000Y-153675000D03*
X80950000Y-147175000D03*
X80950000Y-144575000D03*
X80950000Y-136775000D03*
X80950000Y-145875000D03*
X80950000Y-87375000D03*
X80950000Y-84775000D03*
X80950000Y-83475000D03*
X80950000Y-89975000D03*
X80950000Y-92575000D03*
X80950000Y-86075000D03*
X80950000Y-91275000D03*
X80950000Y-88675000D03*
X80950000Y-82175000D03*
X80950000Y-79575000D03*
X80950000Y-78275000D03*
X80950000Y-80875000D03*
X80950000Y-76975000D03*
X80950000Y-75675000D03*
X80950000Y-74375000D03*
X80950000Y-73075000D03*
X80950000Y-71775000D03*
D25*
G04 #@! TO.N,INPUT*
X117240000Y-93080000D03*
D26*
G04 #@! TO.N,GND*
X107370000Y-86100000D03*
G04 #@! TO.N,INPUT*
X108640000Y-80440000D03*
G04 #@! TO.N,NC*
X106100000Y-80450000D03*
G04 #@! TD*
D27*
G04 #@! TO.N,INPUT*
X108640000Y-82165000D02*
X108640000Y-80440000D01*
G04 #@! TO.N,Gate1*
X95155000Y-107400000D02*
X103545000Y-107400000D01*
X103545000Y-107400000D02*
X103585000Y-107360000D01*
G04 #@! TO.N,Gate2*
X103455000Y-123840000D02*
X103495000Y-123800000D01*
X95065000Y-123840000D02*
X103455000Y-123840000D01*
G04 #@! TO.N,Gate3*
X95025000Y-140240000D02*
X103415000Y-140240000D01*
X103415000Y-140240000D02*
X103455000Y-140200000D01*
G04 #@! TO.N,NC*
X106100000Y-82165000D02*
X106100000Y-80450000D01*
G04 #@! TD*
G04 #@! TA.AperFunction,Conductor*
G04 #@! TO.N,VCC*
G36*
X114917062Y-71350185D02*
G01*
X114962817Y-71402989D01*
X114974023Y-71454611D01*
X114961289Y-85695152D01*
X114941544Y-85762174D01*
X114937615Y-85767915D01*
X114933771Y-85773206D01*
X114855128Y-85927552D01*
X114801597Y-86092302D01*
X114774500Y-86263389D01*
X114774500Y-86436610D01*
X114794642Y-86563787D01*
X114801598Y-86607701D01*
X114855127Y-86772445D01*
X114919892Y-86899555D01*
X114933769Y-86926789D01*
X114933776Y-86926801D01*
X114936439Y-86930466D01*
X114959917Y-86996273D01*
X114960119Y-87003459D01*
X114952387Y-95651795D01*
X114932642Y-95718817D01*
X114879798Y-95764524D01*
X114810630Y-95774406D01*
X114747101Y-95745324D01*
X114741223Y-95739880D01*
X110285729Y-91336509D01*
X110251884Y-91275384D01*
X110248893Y-91248068D01*
X110273765Y-79052420D01*
X108753544Y-77425890D01*
X108722150Y-77363472D01*
X108720137Y-77340880D01*
X108736650Y-71454151D01*
X108756523Y-71387168D01*
X108809455Y-71341562D01*
X108860650Y-71330500D01*
X114850023Y-71330500D01*
X114917062Y-71350185D01*
G37*
G04 #@! TD.AperFunction*
G04 #@! TD*
G04 #@! TA.AperFunction,Conductor*
G04 #@! TO.N,GND*
G36*
X106046473Y-71350185D02*
G01*
X106092228Y-71402989D01*
X106103434Y-71454152D01*
X106119862Y-77310872D01*
X106100365Y-77377967D01*
X106086454Y-77395891D01*
X104538388Y-79052213D01*
X104538388Y-79052214D01*
X104548861Y-83360000D01*
X104480000Y-83360000D01*
X104490000Y-88580000D01*
X104561551Y-88580000D01*
X104566950Y-90800994D01*
X104547428Y-90868081D01*
X104494735Y-90913964D01*
X104425601Y-90924075D01*
X104361975Y-90895205D01*
X104358275Y-90891882D01*
X101872855Y-88568669D01*
X100832937Y-87596619D01*
X100830518Y-87594295D01*
X100409496Y-87178387D01*
X100006737Y-86780519D01*
X99972878Y-86719402D01*
X99969881Y-86692455D01*
X99965853Y-83379685D01*
X99955500Y-74863593D01*
X99955500Y-71454500D01*
X99975185Y-71387461D01*
X100027989Y-71341706D01*
X100079500Y-71330500D01*
X105979434Y-71330500D01*
X106046473Y-71350185D01*
G37*
G04 #@! TD.AperFunction*
G04 #@! TD*
G04 #@! TA.AperFunction,Conductor*
G04 #@! TO.N,INPUT*
G36*
X118345778Y-93015200D02*
G01*
X118412771Y-93035033D01*
X118458408Y-93087939D01*
X118469500Y-93139200D01*
X118469500Y-164348760D01*
X118449815Y-164415799D01*
X118397011Y-164461554D01*
X118344695Y-164472757D01*
X117920212Y-164470000D01*
X114276083Y-164460384D01*
X114209095Y-164440522D01*
X114163480Y-164387598D01*
X114152410Y-164336656D01*
X114136487Y-157022267D01*
X114144544Y-156994605D01*
X114149720Y-156966261D01*
X114155008Y-156958678D01*
X114156025Y-156955189D01*
X114169904Y-156937321D01*
X114314817Y-156782333D01*
X114315202Y-156781924D01*
X115695238Y-155328091D01*
X115756776Y-155256862D01*
X115771103Y-155238618D01*
X115794857Y-155202154D01*
X115808158Y-155185178D01*
X116000000Y-154980000D01*
X116000000Y-154611772D01*
X116000647Y-154599125D01*
X116005539Y-154551405D01*
X116005540Y-154551397D01*
X116015237Y-142662710D01*
X116015159Y-142649361D01*
X116000802Y-142523747D01*
X116000000Y-142509666D01*
X116000000Y-93134275D01*
X116019685Y-93067236D01*
X116072489Y-93021481D01*
X116124272Y-93010275D01*
X118345778Y-93015200D01*
G37*
G04 #@! TD.AperFunction*
G04 #@! TD*
G04 #@! TA.AperFunction,Conductor*
G04 #@! TO.N,OUTPUT*
G36*
X109579178Y-89087009D02*
G01*
X109641414Y-89098186D01*
X109692590Y-89145755D01*
X109710000Y-89209115D01*
X109710000Y-91630000D01*
X109709999Y-91630000D01*
X112869662Y-94837445D01*
X114964337Y-96963798D01*
X114997361Y-97025370D01*
X115000000Y-97050818D01*
X115000000Y-141366456D01*
X114980315Y-141433495D01*
X114927511Y-141479250D01*
X114876458Y-141490455D01*
X112429958Y-141499482D01*
X112362846Y-141480045D01*
X112316896Y-141427410D01*
X112305500Y-141375483D01*
X112305500Y-99401805D01*
X112300188Y-99305455D01*
X112300000Y-99298629D01*
X112300000Y-98824999D01*
X105136228Y-91646303D01*
X105102806Y-91584945D01*
X105100000Y-91558713D01*
X105100000Y-89209500D01*
X105119685Y-89142461D01*
X105172489Y-89096706D01*
X105224000Y-89085500D01*
X109575766Y-89085500D01*
X109579088Y-89085321D01*
X109579178Y-89087009D01*
G37*
G04 #@! TD.AperFunction*
G04 #@! TD*
G04 #@! TA.AperFunction,Conductor*
G04 #@! TO.N,GND*
G36*
X109633276Y-83379685D02*
G01*
X109679031Y-83432489D01*
X109690237Y-83483762D01*
X109699762Y-88455762D01*
X109680206Y-88522839D01*
X109627489Y-88568695D01*
X109575762Y-88580000D01*
X104490000Y-88580000D01*
X104480000Y-83360000D01*
X104548860Y-83360000D01*
X109566237Y-83360000D01*
X109633276Y-83379685D01*
G37*
G04 #@! TD.AperFunction*
G04 #@! TD*
G04 #@! TA.AperFunction,Conductor*
G04 #@! TO.N,Drain*
G36*
X98893039Y-71350185D02*
G01*
X98938794Y-71402989D01*
X98950000Y-71454500D01*
X98950000Y-87150000D01*
X101868645Y-90033195D01*
X101902503Y-90094311D01*
X101905500Y-90121409D01*
X101905500Y-90165217D01*
X101946238Y-90422426D01*
X101946239Y-90422430D01*
X102026715Y-90670108D01*
X102144945Y-90902147D01*
X102298018Y-91112834D01*
X102482166Y-91296982D01*
X102692853Y-91450055D01*
X102924892Y-91568285D01*
X103172570Y-91648761D01*
X103269026Y-91664038D01*
X103429783Y-91689500D01*
X103494395Y-91689500D01*
X103561434Y-91709185D01*
X103581536Y-91725282D01*
X111263144Y-99313592D01*
X111297003Y-99374708D01*
X111300000Y-99401806D01*
X111300000Y-142547452D01*
X111300000Y-142547453D01*
X114885404Y-142537789D01*
X114952495Y-142557293D01*
X114998392Y-142609974D01*
X115009737Y-142661890D01*
X115000040Y-154550577D01*
X114980301Y-154617601D01*
X114965974Y-154635845D01*
X113130000Y-156569999D01*
X113130000Y-156570000D01*
X113148015Y-164845230D01*
X113128476Y-164912312D01*
X113075772Y-164958182D01*
X113024015Y-164969500D01*
X99981479Y-164969500D01*
X99914440Y-164949815D01*
X99868685Y-164897011D01*
X99857479Y-164845721D01*
X99857478Y-164845230D01*
X99856304Y-164186854D01*
X99875869Y-164119783D01*
X99918305Y-164079249D01*
X100105622Y-163971102D01*
X100105624Y-163971101D01*
X100105627Y-163971099D01*
X100303276Y-163819438D01*
X100479438Y-163643276D01*
X100631099Y-163445627D01*
X100755664Y-163229873D01*
X100851002Y-162999707D01*
X100915482Y-162759065D01*
X100948000Y-162512065D01*
X100948000Y-160462941D01*
X102227000Y-160462941D01*
X102227000Y-162512058D01*
X102227001Y-162512075D01*
X102259517Y-162759061D01*
X102323998Y-162999707D01*
X102419330Y-163229861D01*
X102419337Y-163229876D01*
X102543900Y-163445626D01*
X102695560Y-163643274D01*
X102695566Y-163643281D01*
X102871718Y-163819433D01*
X102871725Y-163819439D01*
X103069373Y-163971099D01*
X103285123Y-164095662D01*
X103285138Y-164095669D01*
X103343355Y-164119783D01*
X103515293Y-164191002D01*
X103755935Y-164255482D01*
X104002935Y-164288000D01*
X104002942Y-164288000D01*
X104252058Y-164288000D01*
X104252065Y-164288000D01*
X104499065Y-164255482D01*
X104739707Y-164191002D01*
X104969873Y-164095664D01*
X105185627Y-163971099D01*
X105383276Y-163819438D01*
X105559438Y-163643276D01*
X105711099Y-163445627D01*
X105835664Y-163229873D01*
X105931002Y-162999707D01*
X105995482Y-162759065D01*
X106028000Y-162512065D01*
X106028000Y-160496993D01*
X108057500Y-160496993D01*
X108057500Y-161112500D01*
X108733973Y-161112500D01*
X108727381Y-161119092D01*
X108648389Y-161255909D01*
X108607500Y-161408509D01*
X108607500Y-161566491D01*
X108648389Y-161719091D01*
X108727381Y-161855908D01*
X108733973Y-161862500D01*
X108057500Y-161862500D01*
X108057500Y-162478006D01*
X108085817Y-162656793D01*
X108141751Y-162828944D01*
X108141752Y-162828947D01*
X108223934Y-162990234D01*
X108330323Y-163136669D01*
X108458330Y-163264676D01*
X108604765Y-163371065D01*
X108766052Y-163453247D01*
X108766058Y-163453249D01*
X108832499Y-163474836D01*
X108832500Y-163474836D01*
X108832500Y-161961027D01*
X108839092Y-161967619D01*
X108975909Y-162046611D01*
X109128509Y-162087500D01*
X109286491Y-162087500D01*
X109439091Y-162046611D01*
X109575908Y-161967619D01*
X109582500Y-161961027D01*
X109582500Y-163474836D01*
X109648941Y-163453249D01*
X109648947Y-163453247D01*
X109810234Y-163371065D01*
X109956669Y-163264676D01*
X110084676Y-163136669D01*
X110191065Y-162990234D01*
X110273247Y-162828947D01*
X110273248Y-162828944D01*
X110329182Y-162656793D01*
X110357500Y-162478006D01*
X110357500Y-161862500D01*
X109681027Y-161862500D01*
X109687619Y-161855908D01*
X109766611Y-161719091D01*
X109807500Y-161566491D01*
X109807500Y-161408509D01*
X109766611Y-161255909D01*
X109687619Y-161119092D01*
X109681027Y-161112500D01*
X110357500Y-161112500D01*
X110357500Y-160496993D01*
X110329182Y-160318206D01*
X110273248Y-160146055D01*
X110273247Y-160146052D01*
X110191065Y-159984765D01*
X110084676Y-159838330D01*
X109956669Y-159710323D01*
X109810235Y-159603934D01*
X109648944Y-159521752D01*
X109582500Y-159500163D01*
X109582500Y-161013973D01*
X109575908Y-161007381D01*
X109439091Y-160928389D01*
X109286491Y-160887500D01*
X109128509Y-160887500D01*
X108975909Y-160928389D01*
X108839092Y-161007381D01*
X108832500Y-161013973D01*
X108832500Y-159500163D01*
X108832499Y-159500163D01*
X108766055Y-159521752D01*
X108604764Y-159603934D01*
X108458330Y-159710323D01*
X108330323Y-159838330D01*
X108223934Y-159984765D01*
X108141752Y-160146052D01*
X108141751Y-160146055D01*
X108085817Y-160318206D01*
X108057500Y-160496993D01*
X106028000Y-160496993D01*
X106028000Y-160462935D01*
X105995482Y-160215935D01*
X105931002Y-159975293D01*
X105835664Y-159745127D01*
X105746845Y-159591288D01*
X105711099Y-159529373D01*
X105559439Y-159331725D01*
X105559433Y-159331718D01*
X105383281Y-159155566D01*
X105383274Y-159155560D01*
X105185626Y-159003900D01*
X104969876Y-158879337D01*
X104969861Y-158879330D01*
X104739707Y-158783998D01*
X104499061Y-158719517D01*
X104252075Y-158687001D01*
X104252070Y-158687000D01*
X104252065Y-158687000D01*
X104002935Y-158687000D01*
X104002929Y-158687000D01*
X104002924Y-158687001D01*
X103755938Y-158719517D01*
X103515292Y-158783998D01*
X103285138Y-158879330D01*
X103285123Y-158879337D01*
X103069373Y-159003900D01*
X102871725Y-159155560D01*
X102871718Y-159155566D01*
X102695566Y-159331718D01*
X102695560Y-159331725D01*
X102543900Y-159529373D01*
X102419337Y-159745123D01*
X102419330Y-159745138D01*
X102323998Y-159975292D01*
X102259517Y-160215938D01*
X102227001Y-160462924D01*
X102227000Y-160462941D01*
X100948000Y-160462941D01*
X100948000Y-160462935D01*
X100915482Y-160215935D01*
X100851002Y-159975293D01*
X100755664Y-159745127D01*
X100666845Y-159591288D01*
X100631099Y-159529373D01*
X100479439Y-159331725D01*
X100479433Y-159331718D01*
X100303281Y-159155566D01*
X100303274Y-159155560D01*
X100105626Y-159003900D01*
X99912000Y-158892110D01*
X99863784Y-158841543D01*
X99850000Y-158784723D01*
X99850000Y-154351995D01*
X105189500Y-154351995D01*
X105189500Y-154588004D01*
X105189501Y-154588020D01*
X105220306Y-154822010D01*
X105281394Y-155049993D01*
X105371714Y-155268045D01*
X105371719Y-155268056D01*
X105442677Y-155390957D01*
X105489727Y-155472450D01*
X105489729Y-155472453D01*
X105489730Y-155472454D01*
X105633406Y-155659697D01*
X105633412Y-155659704D01*
X105800295Y-155826587D01*
X105800301Y-155826592D01*
X105987550Y-155970273D01*
X106118918Y-156046118D01*
X106191943Y-156088280D01*
X106191948Y-156088282D01*
X106191951Y-156088284D01*
X106410007Y-156178606D01*
X106637986Y-156239693D01*
X106871989Y-156270500D01*
X106871996Y-156270500D01*
X107108004Y-156270500D01*
X107108011Y-156270500D01*
X107342014Y-156239693D01*
X107569993Y-156178606D01*
X107788049Y-156088284D01*
X107992450Y-155970273D01*
X108179699Y-155826592D01*
X108346592Y-155659699D01*
X108490273Y-155472450D01*
X108608284Y-155268049D01*
X108698606Y-155049993D01*
X108759693Y-154822014D01*
X108790500Y-154588011D01*
X108790500Y-154351989D01*
X108759693Y-154117986D01*
X108698606Y-153890007D01*
X108608284Y-153671951D01*
X108608282Y-153671948D01*
X108608280Y-153671943D01*
X108566118Y-153598918D01*
X108490273Y-153467550D01*
X108346592Y-153280301D01*
X108346587Y-153280295D01*
X108179704Y-153113412D01*
X108179697Y-153113406D01*
X107992454Y-152969730D01*
X107992453Y-152969729D01*
X107992450Y-152969727D01*
X107910957Y-152922677D01*
X107788056Y-152851719D01*
X107788045Y-152851714D01*
X107569993Y-152761394D01*
X107342010Y-152700306D01*
X107108020Y-152669501D01*
X107108017Y-152669500D01*
X107108011Y-152669500D01*
X106871989Y-152669500D01*
X106871983Y-152669500D01*
X106871979Y-152669501D01*
X106637989Y-152700306D01*
X106410006Y-152761394D01*
X106191954Y-152851714D01*
X106191943Y-152851719D01*
X105987545Y-152969730D01*
X105800302Y-153113406D01*
X105800295Y-153113412D01*
X105633412Y-153280295D01*
X105633406Y-153280302D01*
X105489730Y-153467545D01*
X105371719Y-153671943D01*
X105371714Y-153671954D01*
X105281394Y-153890006D01*
X105220306Y-154117989D01*
X105189501Y-154351979D01*
X105189500Y-154351995D01*
X99850000Y-154351995D01*
X99850000Y-150338964D01*
X101221364Y-150338964D01*
X101343729Y-150389650D01*
X101343733Y-150389651D01*
X101546579Y-150429999D01*
X101546583Y-150430000D01*
X101753417Y-150430000D01*
X101753420Y-150429999D01*
X101956266Y-150389651D01*
X101956270Y-150389650D01*
X102078635Y-150338964D01*
X101650001Y-149910330D01*
X101650000Y-149910330D01*
X101221364Y-150338964D01*
X99850000Y-150338964D01*
X99850000Y-149276579D01*
X100600000Y-149276579D01*
X100600000Y-149483420D01*
X100640348Y-149686266D01*
X100640350Y-149686274D01*
X100691034Y-149808635D01*
X101119670Y-149380000D01*
X101119670Y-149379999D01*
X101067010Y-149327339D01*
X101250000Y-149327339D01*
X101250000Y-149432661D01*
X101277259Y-149534394D01*
X101329920Y-149625606D01*
X101404394Y-149700080D01*
X101495606Y-149752741D01*
X101597339Y-149780000D01*
X101702661Y-149780000D01*
X101804394Y-149752741D01*
X101895606Y-149700080D01*
X101970080Y-149625606D01*
X102022741Y-149534394D01*
X102050000Y-149432661D01*
X102050000Y-149379999D01*
X102180330Y-149379999D01*
X102180330Y-149380001D01*
X102608964Y-149808635D01*
X102659650Y-149686270D01*
X102659651Y-149686266D01*
X102699999Y-149483420D01*
X102700000Y-149483417D01*
X102700000Y-149276583D01*
X102699999Y-149276579D01*
X102659651Y-149073733D01*
X102659650Y-149073729D01*
X102608964Y-148951364D01*
X102180330Y-149379999D01*
X102050000Y-149379999D01*
X102050000Y-149327339D01*
X102022741Y-149225606D01*
X101970080Y-149134394D01*
X101895606Y-149059920D01*
X101804394Y-149007259D01*
X101702661Y-148980000D01*
X101597339Y-148980000D01*
X101495606Y-149007259D01*
X101404394Y-149059920D01*
X101329920Y-149134394D01*
X101277259Y-149225606D01*
X101250000Y-149327339D01*
X101067010Y-149327339D01*
X100691034Y-148951363D01*
X100640351Y-149073723D01*
X100640348Y-149073733D01*
X100600000Y-149276579D01*
X99850000Y-149276579D01*
X99850000Y-148421034D01*
X101221363Y-148421034D01*
X101650000Y-148849670D01*
X101650001Y-148849670D01*
X102078635Y-148421034D01*
X101956274Y-148370350D01*
X101956266Y-148370348D01*
X101753420Y-148330000D01*
X101546579Y-148330000D01*
X101343733Y-148370348D01*
X101343723Y-148370351D01*
X101221363Y-148421034D01*
X99850000Y-148421034D01*
X99850000Y-142554499D01*
X99869685Y-142487460D01*
X99922489Y-142441705D01*
X99973998Y-142430499D01*
X101373036Y-142430499D01*
X101492418Y-142419886D01*
X101688049Y-142363909D01*
X101868407Y-142269698D01*
X102026109Y-142141109D01*
X102154698Y-141983407D01*
X102194422Y-141907357D01*
X102242907Y-141857052D01*
X102310895Y-141840944D01*
X102324576Y-141842435D01*
X103123452Y-141974762D01*
X103164099Y-141977916D01*
X103170676Y-141978604D01*
X103305024Y-141996291D01*
X103336973Y-142000498D01*
X103336989Y-142000500D01*
X103336996Y-142000500D01*
X103573004Y-142000500D01*
X103573011Y-142000500D01*
X103807014Y-141969693D01*
X104034993Y-141908606D01*
X104253049Y-141818284D01*
X104457450Y-141700273D01*
X104644699Y-141556592D01*
X104811592Y-141389699D01*
X104955273Y-141202450D01*
X105073284Y-140998049D01*
X105163606Y-140779993D01*
X105224693Y-140552014D01*
X105255500Y-140318011D01*
X105255500Y-140081989D01*
X105224693Y-139847986D01*
X105163606Y-139620007D01*
X105073284Y-139401951D01*
X105073282Y-139401948D01*
X105073280Y-139401943D01*
X105031118Y-139328918D01*
X104955273Y-139197550D01*
X104811592Y-139010301D01*
X104811587Y-139010295D01*
X104644704Y-138843412D01*
X104644697Y-138843406D01*
X104457454Y-138699730D01*
X104457453Y-138699729D01*
X104457450Y-138699727D01*
X104375957Y-138652677D01*
X104253056Y-138581719D01*
X104253045Y-138581714D01*
X104034993Y-138491394D01*
X103956717Y-138470420D01*
X103807014Y-138430307D01*
X103807013Y-138430306D01*
X103807010Y-138430306D01*
X103573020Y-138399501D01*
X103573017Y-138399500D01*
X103573011Y-138399500D01*
X103336989Y-138399500D01*
X103336983Y-138399500D01*
X103336978Y-138399501D01*
X103102992Y-138430305D01*
X103102977Y-138430308D01*
X103097962Y-138431652D01*
X103080332Y-138435030D01*
X103069681Y-138436279D01*
X102370335Y-138591284D01*
X102300625Y-138586573D01*
X102244528Y-138544921D01*
X102233597Y-138527638D01*
X102154698Y-138376593D01*
X102130958Y-138347479D01*
X102026109Y-138218890D01*
X101868409Y-138090304D01*
X101868410Y-138090304D01*
X101868407Y-138090302D01*
X101688049Y-137996091D01*
X101688048Y-137996090D01*
X101688045Y-137996089D01*
X101570829Y-137962550D01*
X101492418Y-137940114D01*
X101492415Y-137940113D01*
X101492413Y-137940113D01*
X101419631Y-137933642D01*
X101373037Y-137929500D01*
X101373033Y-137929500D01*
X99974000Y-137929500D01*
X99906961Y-137909815D01*
X99861206Y-137857011D01*
X99850000Y-137805500D01*
X99850000Y-136354000D01*
X99869685Y-136286961D01*
X99922489Y-136241206D01*
X99974000Y-136230000D01*
X100183052Y-136230000D01*
X100416247Y-136193065D01*
X100640802Y-136120102D01*
X100851171Y-136012914D01*
X101042186Y-135874133D01*
X101209133Y-135707186D01*
X101347914Y-135516171D01*
X101455102Y-135305802D01*
X101520348Y-135105000D01*
X99850000Y-135105000D01*
X99850000Y-134355000D01*
X101520348Y-134355000D01*
X101520347Y-134354999D01*
X101455102Y-134154197D01*
X101347914Y-133943828D01*
X101209133Y-133752813D01*
X101042186Y-133585866D01*
X100851171Y-133447085D01*
X100640802Y-133339897D01*
X100416247Y-133266934D01*
X100416248Y-133266934D01*
X100183052Y-133230000D01*
X99974000Y-133230000D01*
X99906961Y-133210315D01*
X99861206Y-133157511D01*
X99850000Y-133106000D01*
X99850000Y-131654500D01*
X99869685Y-131587461D01*
X99922489Y-131541706D01*
X99974000Y-131530500D01*
X100212499Y-131530500D01*
X100212506Y-131530500D01*
X100504993Y-131491993D01*
X100789952Y-131415639D01*
X101062507Y-131302743D01*
X101317994Y-131155238D01*
X101552042Y-130975646D01*
X101760646Y-130767042D01*
X101940238Y-130532994D01*
X102087743Y-130277507D01*
X102200639Y-130004952D01*
X102276993Y-129719993D01*
X102315500Y-129427506D01*
X102315500Y-129132494D01*
X102276993Y-128840007D01*
X102200639Y-128555048D01*
X102087743Y-128282493D01*
X101940238Y-128027006D01*
X101760646Y-127792958D01*
X101760641Y-127792952D01*
X101552047Y-127584358D01*
X101552040Y-127584352D01*
X101317993Y-127404761D01*
X101062510Y-127257258D01*
X101062500Y-127257254D01*
X100789961Y-127144364D01*
X100789954Y-127144362D01*
X100789952Y-127144361D01*
X100504993Y-127068007D01*
X100456113Y-127061571D01*
X100212513Y-127029500D01*
X100212506Y-127029500D01*
X99974000Y-127029500D01*
X99906961Y-127009815D01*
X99861206Y-126957011D01*
X99850000Y-126905500D01*
X99850000Y-126154499D01*
X99869685Y-126087460D01*
X99922489Y-126041705D01*
X99973998Y-126030499D01*
X101373036Y-126030499D01*
X101492418Y-126019886D01*
X101688049Y-125963909D01*
X101868407Y-125869698D01*
X102026109Y-125741109D01*
X102154698Y-125583407D01*
X102197607Y-125501260D01*
X102246092Y-125450954D01*
X102314079Y-125434846D01*
X102327761Y-125436337D01*
X103163452Y-125574762D01*
X103204099Y-125577916D01*
X103210676Y-125578604D01*
X103345024Y-125596291D01*
X103376973Y-125600498D01*
X103376989Y-125600500D01*
X103376996Y-125600500D01*
X103613004Y-125600500D01*
X103613011Y-125600500D01*
X103847014Y-125569693D01*
X104074993Y-125508606D01*
X104293049Y-125418284D01*
X104497450Y-125300273D01*
X104684699Y-125156592D01*
X104851592Y-124989699D01*
X104995273Y-124802450D01*
X105113284Y-124598049D01*
X105203606Y-124379993D01*
X105264693Y-124152014D01*
X105295500Y-123918011D01*
X105295500Y-123681989D01*
X105264693Y-123447986D01*
X105203606Y-123220007D01*
X105113284Y-123001951D01*
X105113282Y-123001948D01*
X105113280Y-123001943D01*
X105071118Y-122928918D01*
X104995273Y-122797550D01*
X104851592Y-122610301D01*
X104851587Y-122610295D01*
X104684704Y-122443412D01*
X104684697Y-122443406D01*
X104497454Y-122299730D01*
X104497453Y-122299729D01*
X104497450Y-122299727D01*
X104364351Y-122222882D01*
X104293056Y-122181719D01*
X104293045Y-122181714D01*
X104074993Y-122091394D01*
X103996717Y-122070420D01*
X103847014Y-122030307D01*
X103847013Y-122030306D01*
X103847010Y-122030306D01*
X103613020Y-121999501D01*
X103613017Y-121999500D01*
X103613011Y-121999500D01*
X103376989Y-121999500D01*
X103376983Y-121999500D01*
X103376978Y-121999501D01*
X103142992Y-122030305D01*
X103142977Y-122030308D01*
X103137962Y-122031652D01*
X103120332Y-122035030D01*
X103109681Y-122036279D01*
X102374485Y-122199230D01*
X102304775Y-122194519D01*
X102248678Y-122152867D01*
X102237750Y-122135590D01*
X102154698Y-121976593D01*
X102130958Y-121947479D01*
X102026109Y-121818890D01*
X101868409Y-121690304D01*
X101868410Y-121690304D01*
X101868407Y-121690302D01*
X101688049Y-121596091D01*
X101688048Y-121596090D01*
X101688045Y-121596089D01*
X101570829Y-121562550D01*
X101492418Y-121540114D01*
X101492415Y-121540113D01*
X101492413Y-121540113D01*
X101419631Y-121533642D01*
X101373037Y-121529500D01*
X101373033Y-121529500D01*
X99974000Y-121529500D01*
X99906961Y-121509815D01*
X99861206Y-121457011D01*
X99850000Y-121405500D01*
X99850000Y-119954000D01*
X99869685Y-119886961D01*
X99922489Y-119841206D01*
X99974000Y-119830000D01*
X100183052Y-119830000D01*
X100416247Y-119793065D01*
X100640802Y-119720102D01*
X100851171Y-119612914D01*
X101042186Y-119474133D01*
X101209133Y-119307186D01*
X101347914Y-119116171D01*
X101455102Y-118905802D01*
X101520348Y-118705000D01*
X99850000Y-118705000D01*
X99850000Y-117955000D01*
X101520348Y-117955000D01*
X101520347Y-117954999D01*
X101455102Y-117754197D01*
X101347914Y-117543828D01*
X101209133Y-117352813D01*
X101042186Y-117185866D01*
X100851171Y-117047085D01*
X100640802Y-116939897D01*
X100416247Y-116866934D01*
X100416248Y-116866934D01*
X100183052Y-116830000D01*
X99974000Y-116830000D01*
X99906961Y-116810315D01*
X99861206Y-116757511D01*
X99850000Y-116706000D01*
X99850000Y-115254500D01*
X99869685Y-115187461D01*
X99922489Y-115141706D01*
X99974000Y-115130500D01*
X100212499Y-115130500D01*
X100212506Y-115130500D01*
X100504993Y-115091993D01*
X100789952Y-115015639D01*
X101062507Y-114902743D01*
X101317994Y-114755238D01*
X101552042Y-114575646D01*
X101760646Y-114367042D01*
X101940238Y-114132994D01*
X102087743Y-113877507D01*
X102200639Y-113604952D01*
X102276993Y-113319993D01*
X102315500Y-113027506D01*
X102315500Y-112732494D01*
X102276993Y-112440007D01*
X102200639Y-112155048D01*
X102087743Y-111882493D01*
X101940238Y-111627006D01*
X101760646Y-111392958D01*
X101760641Y-111392952D01*
X101552047Y-111184358D01*
X101552040Y-111184352D01*
X101317993Y-111004761D01*
X101062510Y-110857258D01*
X101062500Y-110857254D01*
X100789961Y-110744364D01*
X100789954Y-110744362D01*
X100789952Y-110744361D01*
X100504993Y-110668007D01*
X100456113Y-110661571D01*
X100212513Y-110629500D01*
X100212506Y-110629500D01*
X99974000Y-110629500D01*
X99906961Y-110609815D01*
X99861206Y-110557011D01*
X99850000Y-110505500D01*
X99850000Y-109754499D01*
X99869685Y-109687460D01*
X99922489Y-109641705D01*
X99973998Y-109630499D01*
X101373036Y-109630499D01*
X101492418Y-109619886D01*
X101688049Y-109563909D01*
X101868407Y-109469698D01*
X102026109Y-109341109D01*
X102154698Y-109183407D01*
X102224006Y-109050722D01*
X102272489Y-109000419D01*
X102340477Y-108984311D01*
X102354172Y-108985803D01*
X103253452Y-109134762D01*
X103294099Y-109137916D01*
X103300676Y-109138604D01*
X103435024Y-109156291D01*
X103466973Y-109160498D01*
X103466989Y-109160500D01*
X103466996Y-109160500D01*
X103703004Y-109160500D01*
X103703011Y-109160500D01*
X103937014Y-109129693D01*
X104164993Y-109068606D01*
X104383049Y-108978284D01*
X104587450Y-108860273D01*
X104774699Y-108716592D01*
X104941592Y-108549699D01*
X105085273Y-108362450D01*
X105203284Y-108158049D01*
X105293606Y-107939993D01*
X105354693Y-107712014D01*
X105385500Y-107478011D01*
X105385500Y-107241989D01*
X105354693Y-107007986D01*
X105293606Y-106780007D01*
X105203284Y-106561951D01*
X105203282Y-106561948D01*
X105203280Y-106561943D01*
X105161118Y-106488918D01*
X105085273Y-106357550D01*
X104941592Y-106170301D01*
X104941587Y-106170295D01*
X104774704Y-106003412D01*
X104774697Y-106003406D01*
X104587454Y-105859730D01*
X104587453Y-105859729D01*
X104587450Y-105859727D01*
X104505957Y-105812677D01*
X104383056Y-105741719D01*
X104383045Y-105741714D01*
X104164993Y-105651394D01*
X104086717Y-105630420D01*
X103937014Y-105590307D01*
X103937013Y-105590306D01*
X103937010Y-105590306D01*
X103703020Y-105559501D01*
X103703017Y-105559500D01*
X103703011Y-105559500D01*
X103466989Y-105559500D01*
X103466983Y-105559500D01*
X103466978Y-105559501D01*
X103232992Y-105590305D01*
X103232977Y-105590308D01*
X103227962Y-105591652D01*
X103210332Y-105595030D01*
X103199681Y-105596279D01*
X102365097Y-105781258D01*
X102295387Y-105776547D01*
X102239290Y-105734895D01*
X102228364Y-105717620D01*
X102154698Y-105576593D01*
X102130958Y-105547479D01*
X102026109Y-105418890D01*
X101868409Y-105290304D01*
X101868410Y-105290304D01*
X101868407Y-105290302D01*
X101688049Y-105196091D01*
X101688048Y-105196090D01*
X101688045Y-105196089D01*
X101570829Y-105162550D01*
X101492418Y-105140114D01*
X101492415Y-105140113D01*
X101492413Y-105140113D01*
X101419631Y-105133642D01*
X101373037Y-105129500D01*
X101373033Y-105129500D01*
X99974000Y-105129500D01*
X99906961Y-105109815D01*
X99861206Y-105057011D01*
X99850000Y-105005500D01*
X99850000Y-103554000D01*
X99869685Y-103486961D01*
X99922489Y-103441206D01*
X99974000Y-103430000D01*
X100183052Y-103430000D01*
X100416247Y-103393065D01*
X100640802Y-103320102D01*
X100851171Y-103212914D01*
X101042186Y-103074133D01*
X101209133Y-102907186D01*
X101347914Y-102716171D01*
X101455102Y-102505802D01*
X101520348Y-102305000D01*
X99850000Y-102305000D01*
X99850000Y-101555000D01*
X101520348Y-101555000D01*
X101520347Y-101554999D01*
X101455102Y-101354197D01*
X101347914Y-101143828D01*
X101209133Y-100952813D01*
X101042186Y-100785866D01*
X100851171Y-100647085D01*
X100640802Y-100539897D01*
X100416247Y-100466934D01*
X100416248Y-100466934D01*
X100183052Y-100430000D01*
X99974000Y-100430000D01*
X99906961Y-100410315D01*
X99861206Y-100357511D01*
X99850000Y-100306000D01*
X99850000Y-98854500D01*
X99869685Y-98787461D01*
X99922489Y-98741706D01*
X99974000Y-98730500D01*
X100212499Y-98730500D01*
X100212506Y-98730500D01*
X100504993Y-98691993D01*
X100789952Y-98615639D01*
X101062507Y-98502743D01*
X101317994Y-98355238D01*
X101552042Y-98175646D01*
X101760646Y-97967042D01*
X101940238Y-97732994D01*
X102087743Y-97477507D01*
X102200639Y-97204952D01*
X102276993Y-96919993D01*
X102315500Y-96627506D01*
X102315500Y-96332494D01*
X102276993Y-96040007D01*
X102200639Y-95755048D01*
X102087743Y-95482493D01*
X101940238Y-95227006D01*
X101760646Y-94992958D01*
X101760641Y-94992952D01*
X101552047Y-94784358D01*
X101552040Y-94784352D01*
X101317993Y-94604761D01*
X101062510Y-94457258D01*
X101062500Y-94457254D01*
X100789961Y-94344364D01*
X100789954Y-94344362D01*
X100789952Y-94344361D01*
X100504993Y-94268007D01*
X100456113Y-94261571D01*
X100212513Y-94229500D01*
X100212506Y-94229500D01*
X99906094Y-94229500D01*
X99839055Y-94209815D01*
X99818095Y-94192862D01*
X92161001Y-86479878D01*
X92146498Y-86453088D01*
X92130023Y-86427451D01*
X92129083Y-86420916D01*
X92127739Y-86418433D01*
X92125000Y-86392516D01*
X92125000Y-84682156D01*
X94950000Y-84682156D01*
X94950000Y-85505000D01*
X96008684Y-85505000D01*
X95979668Y-85548426D01*
X95926901Y-85675818D01*
X95900000Y-85811056D01*
X95900000Y-85948944D01*
X95926901Y-86084182D01*
X95979668Y-86211574D01*
X96008684Y-86255000D01*
X94950001Y-86255000D01*
X94950001Y-87077830D01*
X94956402Y-87137377D01*
X95006647Y-87272087D01*
X95092811Y-87387188D01*
X95207909Y-87473350D01*
X95342629Y-87523598D01*
X95342628Y-87523598D01*
X95402164Y-87529999D01*
X96224999Y-87529999D01*
X96225000Y-87529998D01*
X96225000Y-86471315D01*
X96268426Y-86500332D01*
X96395818Y-86553099D01*
X96531056Y-86580000D01*
X96668944Y-86580000D01*
X96804182Y-86553099D01*
X96931574Y-86500332D01*
X96975000Y-86471315D01*
X96975000Y-87529999D01*
X97797823Y-87529999D01*
X97797830Y-87529998D01*
X97857377Y-87523597D01*
X97992087Y-87473352D01*
X98107188Y-87387188D01*
X98193350Y-87272090D01*
X98243598Y-87137371D01*
X98249999Y-87077843D01*
X98250000Y-87077826D01*
X98250000Y-86255000D01*
X97191316Y-86255000D01*
X97220332Y-86211574D01*
X97273099Y-86084182D01*
X97300000Y-85948944D01*
X97300000Y-85811056D01*
X97273099Y-85675818D01*
X97220332Y-85548426D01*
X97191316Y-85505000D01*
X98249999Y-85505000D01*
X98249999Y-84682176D01*
X98249998Y-84682169D01*
X98243597Y-84622622D01*
X98193352Y-84487912D01*
X98107188Y-84372811D01*
X97992090Y-84286649D01*
X97857370Y-84236401D01*
X97857371Y-84236401D01*
X97797843Y-84230000D01*
X96975000Y-84230000D01*
X96975000Y-85288684D01*
X96931574Y-85259668D01*
X96804182Y-85206901D01*
X96668944Y-85180000D01*
X96531056Y-85180000D01*
X96395818Y-85206901D01*
X96268426Y-85259668D01*
X96225000Y-85288684D01*
X96225000Y-84230000D01*
X95402176Y-84230000D01*
X95402169Y-84230001D01*
X95342622Y-84236402D01*
X95207912Y-84286647D01*
X95092811Y-84372811D01*
X95006649Y-84487909D01*
X94956401Y-84622628D01*
X94950000Y-84682156D01*
X92125000Y-84682156D01*
X92125000Y-73959655D01*
X93900000Y-73959655D01*
X93900000Y-75182500D01*
X94558684Y-75182500D01*
X94529668Y-75225926D01*
X94476901Y-75353318D01*
X94450000Y-75488556D01*
X94450000Y-75626444D01*
X94476901Y-75761682D01*
X94529668Y-75889074D01*
X94558684Y-75932500D01*
X93900000Y-75932500D01*
X93900000Y-77155344D01*
X93906401Y-77214872D01*
X93906403Y-77214879D01*
X93956645Y-77349586D01*
X93956649Y-77349593D01*
X94042809Y-77464687D01*
X94042812Y-77464690D01*
X94157906Y-77550850D01*
X94157913Y-77550854D01*
X94292620Y-77601096D01*
X94292627Y-77601098D01*
X94352155Y-77607499D01*
X94352172Y-77607500D01*
X94775000Y-77607500D01*
X94775000Y-76148815D01*
X94818426Y-76177832D01*
X94945818Y-76230599D01*
X95081056Y-76257500D01*
X95218944Y-76257500D01*
X95354182Y-76230599D01*
X95481574Y-76177832D01*
X95525000Y-76148815D01*
X95525000Y-77607500D01*
X95947828Y-77607500D01*
X95947844Y-77607499D01*
X96007372Y-77601098D01*
X96007379Y-77601096D01*
X96142086Y-77550854D01*
X96142093Y-77550850D01*
X96257187Y-77464690D01*
X96257190Y-77464687D01*
X96343350Y-77349593D01*
X96343354Y-77349586D01*
X96393596Y-77214879D01*
X96393598Y-77214872D01*
X96399999Y-77155344D01*
X96400000Y-77155327D01*
X96400000Y-75932500D01*
X95741316Y-75932500D01*
X95770332Y-75889074D01*
X95823099Y-75761682D01*
X95850000Y-75626444D01*
X95850000Y-75488556D01*
X95823099Y-75353318D01*
X95770332Y-75225926D01*
X95741316Y-75182500D01*
X96400000Y-75182500D01*
X96400000Y-73959672D01*
X96399999Y-73959655D01*
X96393598Y-73900127D01*
X96393596Y-73900120D01*
X96343354Y-73765413D01*
X96343350Y-73765406D01*
X96257190Y-73650312D01*
X96257187Y-73650309D01*
X96142093Y-73564149D01*
X96142086Y-73564145D01*
X96007379Y-73513903D01*
X96007372Y-73513901D01*
X95947844Y-73507500D01*
X95525000Y-73507500D01*
X95525000Y-74966184D01*
X95481574Y-74937168D01*
X95354182Y-74884401D01*
X95218944Y-74857500D01*
X95081056Y-74857500D01*
X94945818Y-74884401D01*
X94818426Y-74937168D01*
X94775000Y-74966184D01*
X94775000Y-73507500D01*
X94352155Y-73507500D01*
X94292627Y-73513901D01*
X94292620Y-73513903D01*
X94157913Y-73564145D01*
X94157906Y-73564149D01*
X94042812Y-73650309D01*
X94042809Y-73650312D01*
X93956649Y-73765406D01*
X93956645Y-73765413D01*
X93906403Y-73900120D01*
X93906401Y-73900127D01*
X93900000Y-73959655D01*
X92125000Y-73959655D01*
X92125000Y-71454500D01*
X92144685Y-71387461D01*
X92197489Y-71341706D01*
X92249000Y-71330500D01*
X98826000Y-71330500D01*
X98893039Y-71350185D01*
G37*
G04 #@! TD.AperFunction*
G04 #@! TD*
G04 #@! TA.AperFunction,Conductor*
G04 #@! TO.N,Source*
G36*
X90293039Y-71350185D02*
G01*
X90338794Y-71402989D01*
X90350000Y-71454500D01*
X90350000Y-87360724D01*
X97967265Y-94776085D01*
X98001570Y-94836953D01*
X97997522Y-94906705D01*
X97956406Y-94963196D01*
X97900167Y-94987409D01*
X97713752Y-95016934D01*
X97489197Y-95089897D01*
X97278828Y-95197085D01*
X97087813Y-95335866D01*
X96920866Y-95502813D01*
X96782085Y-95693828D01*
X96674897Y-95904197D01*
X96609652Y-96104999D01*
X96609652Y-96105000D01*
X98299443Y-96105000D01*
X98299027Y-96855000D01*
X96609652Y-96855000D01*
X96674897Y-97055802D01*
X96782085Y-97266171D01*
X96920866Y-97457186D01*
X97087813Y-97624133D01*
X97278828Y-97762914D01*
X97489197Y-97870102D01*
X97713752Y-97943065D01*
X97713751Y-97943065D01*
X97946948Y-97980000D01*
X98174334Y-97980000D01*
X98241373Y-97999685D01*
X98287128Y-98052489D01*
X98298334Y-98104069D01*
X98297529Y-99555572D01*
X98277808Y-99622597D01*
X98224979Y-99668323D01*
X98173530Y-99679500D01*
X97917486Y-99679500D01*
X97639085Y-99716153D01*
X97625007Y-99718007D01*
X97598909Y-99725000D01*
X97340048Y-99794361D01*
X97340038Y-99794364D01*
X97067499Y-99907254D01*
X97067489Y-99907258D01*
X96812006Y-100054761D01*
X96577959Y-100234352D01*
X96577952Y-100234358D01*
X96369358Y-100442952D01*
X96369352Y-100442959D01*
X96189761Y-100677006D01*
X96042258Y-100932489D01*
X96042254Y-100932499D01*
X95929364Y-101205038D01*
X95929361Y-101205048D01*
X95853008Y-101490004D01*
X95853006Y-101490015D01*
X95814500Y-101782486D01*
X95814500Y-102077513D01*
X95827233Y-102174225D01*
X95853007Y-102369993D01*
X95853008Y-102369995D01*
X95929361Y-102654951D01*
X95929364Y-102654961D01*
X96042254Y-102927500D01*
X96042258Y-102927510D01*
X96189761Y-103182993D01*
X96369352Y-103417040D01*
X96369358Y-103417047D01*
X96577952Y-103625641D01*
X96577959Y-103625647D01*
X96812006Y-103805238D01*
X97067489Y-103952741D01*
X97067490Y-103952741D01*
X97067493Y-103952743D01*
X97340048Y-104065639D01*
X97625007Y-104141993D01*
X97917494Y-104180500D01*
X98170895Y-104180500D01*
X98237934Y-104200185D01*
X98283689Y-104252989D01*
X98294895Y-104304569D01*
X98294506Y-105005569D01*
X98274784Y-105072597D01*
X98221955Y-105118323D01*
X98170506Y-105129500D01*
X96756971Y-105129500D01*
X96756965Y-105129500D01*
X96756964Y-105129501D01*
X96745316Y-105130536D01*
X96637584Y-105140113D01*
X96441954Y-105196089D01*
X96351772Y-105243196D01*
X96261593Y-105290302D01*
X96261591Y-105290303D01*
X96261590Y-105290304D01*
X96103890Y-105418890D01*
X95975301Y-105576594D01*
X95950136Y-105624769D01*
X95901649Y-105675076D01*
X95833661Y-105691182D01*
X95816655Y-105689095D01*
X95563303Y-105640036D01*
X95513641Y-105630420D01*
X95513639Y-105630419D01*
X95513635Y-105630419D01*
X95493027Y-105628397D01*
X95488954Y-105627929D01*
X95273012Y-105599500D01*
X95273011Y-105599500D01*
X95036989Y-105599500D01*
X95036983Y-105599500D01*
X95036979Y-105599501D01*
X94802989Y-105630306D01*
X94575006Y-105691394D01*
X94356954Y-105781714D01*
X94356943Y-105781719D01*
X94152545Y-105899730D01*
X93965302Y-106043406D01*
X93965295Y-106043412D01*
X93798412Y-106210295D01*
X93798406Y-106210302D01*
X93654730Y-106397545D01*
X93536719Y-106601943D01*
X93536714Y-106601954D01*
X93446394Y-106820006D01*
X93385306Y-107047989D01*
X93354501Y-107281979D01*
X93354500Y-107281995D01*
X93354500Y-107518004D01*
X93354501Y-107518020D01*
X93385306Y-107752010D01*
X93446394Y-107979993D01*
X93536714Y-108198045D01*
X93536719Y-108198056D01*
X93594856Y-108298750D01*
X93654727Y-108402450D01*
X93654729Y-108402453D01*
X93654730Y-108402454D01*
X93798406Y-108589697D01*
X93798412Y-108589704D01*
X93965295Y-108756587D01*
X93965302Y-108756593D01*
X94038327Y-108812627D01*
X94152550Y-108900273D01*
X94283322Y-108975774D01*
X94356943Y-109018280D01*
X94356948Y-109018282D01*
X94356951Y-109018284D01*
X94575007Y-109108606D01*
X94802986Y-109169693D01*
X95036989Y-109200500D01*
X95036996Y-109200500D01*
X95273004Y-109200500D01*
X95273011Y-109200500D01*
X95492847Y-109171557D01*
X95497881Y-109171000D01*
X95499173Y-109170883D01*
X95513641Y-109169579D01*
X95835629Y-109107228D01*
X95905187Y-109113809D01*
X95960146Y-109156952D01*
X95969110Y-109171553D01*
X95975302Y-109183407D01*
X96103890Y-109341109D01*
X96197803Y-109417684D01*
X96261593Y-109469698D01*
X96441951Y-109563909D01*
X96637582Y-109619886D01*
X96756963Y-109630500D01*
X98167874Y-109630499D01*
X98234912Y-109650184D01*
X98280667Y-109702987D01*
X98291873Y-109754568D01*
X98291040Y-111256071D01*
X98271319Y-111323097D01*
X98218490Y-111368823D01*
X98167041Y-111380000D01*
X97946948Y-111380000D01*
X97713752Y-111416934D01*
X97489197Y-111489897D01*
X97278828Y-111597085D01*
X97087813Y-111735866D01*
X96920866Y-111902813D01*
X96782085Y-112093828D01*
X96674897Y-112304197D01*
X96609652Y-112504999D01*
X96609652Y-112505000D01*
X98290348Y-112505000D01*
X98289932Y-113255000D01*
X96609652Y-113255000D01*
X96674897Y-113455802D01*
X96782085Y-113666171D01*
X96920866Y-113857186D01*
X97087813Y-114024133D01*
X97278828Y-114162914D01*
X97489197Y-114270102D01*
X97713752Y-114343065D01*
X97713751Y-114343065D01*
X97946948Y-114380000D01*
X98165239Y-114380000D01*
X98232278Y-114399685D01*
X98278033Y-114452489D01*
X98289239Y-114504069D01*
X98288434Y-115955571D01*
X98268713Y-116022597D01*
X98215884Y-116068323D01*
X98164435Y-116079500D01*
X97917486Y-116079500D01*
X97639085Y-116116153D01*
X97625007Y-116118007D01*
X97340048Y-116194361D01*
X97340038Y-116194364D01*
X97067499Y-116307254D01*
X97067489Y-116307258D01*
X96812006Y-116454761D01*
X96577959Y-116634352D01*
X96577952Y-116634358D01*
X96369358Y-116842952D01*
X96369352Y-116842959D01*
X96189761Y-117077006D01*
X96042258Y-117332489D01*
X96042254Y-117332499D01*
X95929364Y-117605038D01*
X95929361Y-117605048D01*
X95884031Y-117774225D01*
X95853008Y-117890004D01*
X95853006Y-117890015D01*
X95814500Y-118182486D01*
X95814500Y-118182494D01*
X95814500Y-118477506D01*
X95853007Y-118769993D01*
X95929361Y-119054951D01*
X95929364Y-119054961D01*
X96042254Y-119327500D01*
X96042258Y-119327510D01*
X96189761Y-119582993D01*
X96369352Y-119817040D01*
X96369358Y-119817047D01*
X96577952Y-120025641D01*
X96577959Y-120025647D01*
X96812006Y-120205238D01*
X97067489Y-120352741D01*
X97067490Y-120352741D01*
X97067493Y-120352743D01*
X97340048Y-120465639D01*
X97625007Y-120541993D01*
X97917494Y-120580500D01*
X98161800Y-120580500D01*
X98228839Y-120600185D01*
X98274594Y-120652989D01*
X98285800Y-120704569D01*
X98285411Y-121405569D01*
X98265689Y-121472597D01*
X98212860Y-121518323D01*
X98161411Y-121529500D01*
X96756971Y-121529500D01*
X96756965Y-121529500D01*
X96756964Y-121529501D01*
X96745316Y-121530536D01*
X96637584Y-121540113D01*
X96441954Y-121596089D01*
X96351772Y-121643196D01*
X96261593Y-121690302D01*
X96261591Y-121690303D01*
X96261590Y-121690304D01*
X96103890Y-121818890D01*
X95975302Y-121976593D01*
X95975300Y-121976595D01*
X95922894Y-122076921D01*
X95874407Y-122127228D01*
X95806420Y-122143335D01*
X95789413Y-122141248D01*
X95628742Y-122110135D01*
X95423641Y-122070420D01*
X95423639Y-122070419D01*
X95423635Y-122070419D01*
X95403027Y-122068397D01*
X95398954Y-122067929D01*
X95183012Y-122039500D01*
X95183011Y-122039500D01*
X94946989Y-122039500D01*
X94946983Y-122039500D01*
X94946979Y-122039501D01*
X94712989Y-122070306D01*
X94485006Y-122131394D01*
X94266954Y-122221714D01*
X94266943Y-122221719D01*
X94062545Y-122339730D01*
X93875302Y-122483406D01*
X93875295Y-122483412D01*
X93708412Y-122650295D01*
X93708406Y-122650302D01*
X93564730Y-122837545D01*
X93446719Y-123041943D01*
X93446714Y-123041954D01*
X93356394Y-123260006D01*
X93295306Y-123487989D01*
X93264501Y-123721979D01*
X93264500Y-123721995D01*
X93264500Y-123958004D01*
X93264501Y-123958020D01*
X93295306Y-124192010D01*
X93356394Y-124419993D01*
X93446714Y-124638045D01*
X93446719Y-124638056D01*
X93517677Y-124760957D01*
X93564727Y-124842450D01*
X93564729Y-124842453D01*
X93564730Y-124842454D01*
X93708406Y-125029697D01*
X93708412Y-125029704D01*
X93875295Y-125196587D01*
X93875301Y-125196592D01*
X94062550Y-125340273D01*
X94193918Y-125416118D01*
X94266943Y-125458280D01*
X94266948Y-125458282D01*
X94266951Y-125458284D01*
X94485007Y-125548606D01*
X94712986Y-125609693D01*
X94946989Y-125640500D01*
X94946996Y-125640500D01*
X95183004Y-125640500D01*
X95183011Y-125640500D01*
X95402847Y-125611557D01*
X95407881Y-125611000D01*
X95409173Y-125610883D01*
X95423641Y-125609579D01*
X95846709Y-125527655D01*
X95916268Y-125534236D01*
X95971227Y-125577379D01*
X95973819Y-125581157D01*
X95975300Y-125583405D01*
X96103890Y-125741109D01*
X96153176Y-125781296D01*
X96261593Y-125869698D01*
X96441951Y-125963909D01*
X96637582Y-126019886D01*
X96756963Y-126030500D01*
X98158779Y-126030499D01*
X98225817Y-126050184D01*
X98271572Y-126102987D01*
X98282778Y-126154568D01*
X98281945Y-127656071D01*
X98262224Y-127723097D01*
X98209395Y-127768823D01*
X98157946Y-127780000D01*
X97946948Y-127780000D01*
X97713752Y-127816934D01*
X97489197Y-127889897D01*
X97278828Y-127997085D01*
X97087813Y-128135866D01*
X96920866Y-128302813D01*
X96782085Y-128493828D01*
X96674897Y-128704197D01*
X96609652Y-128904999D01*
X96609652Y-128905000D01*
X98281253Y-128905000D01*
X98280837Y-129655000D01*
X96609652Y-129655000D01*
X96674897Y-129855802D01*
X96782085Y-130066171D01*
X96920866Y-130257186D01*
X97087813Y-130424133D01*
X97278828Y-130562914D01*
X97489197Y-130670102D01*
X97713752Y-130743065D01*
X97713751Y-130743065D01*
X97946948Y-130780000D01*
X98156144Y-130780000D01*
X98223183Y-130799685D01*
X98268938Y-130852489D01*
X98280144Y-130904069D01*
X98279339Y-132355571D01*
X98259618Y-132422597D01*
X98206789Y-132468323D01*
X98155340Y-132479500D01*
X97917486Y-132479500D01*
X97639085Y-132516153D01*
X97625007Y-132518007D01*
X97429230Y-132570465D01*
X97340048Y-132594361D01*
X97340038Y-132594364D01*
X97067499Y-132707254D01*
X97067489Y-132707258D01*
X96812006Y-132854761D01*
X96577959Y-133034352D01*
X96577952Y-133034358D01*
X96369358Y-133242952D01*
X96369352Y-133242959D01*
X96189761Y-133477006D01*
X96042258Y-133732489D01*
X96042254Y-133732499D01*
X95929364Y-134005038D01*
X95929361Y-134005048D01*
X95853008Y-134290004D01*
X95853006Y-134290015D01*
X95814500Y-134582486D01*
X95814500Y-134877513D01*
X95827437Y-134975774D01*
X95853007Y-135169993D01*
X95853134Y-135170466D01*
X95929361Y-135454951D01*
X95929364Y-135454961D01*
X96042254Y-135727500D01*
X96042258Y-135727510D01*
X96189761Y-135982993D01*
X96369352Y-136217040D01*
X96369358Y-136217047D01*
X96577952Y-136425641D01*
X96577959Y-136425647D01*
X96812006Y-136605238D01*
X97067489Y-136752741D01*
X97067490Y-136752741D01*
X97067493Y-136752743D01*
X97340048Y-136865639D01*
X97625007Y-136941993D01*
X97917494Y-136980500D01*
X98152705Y-136980500D01*
X98219744Y-137000185D01*
X98265499Y-137052989D01*
X98276705Y-137104569D01*
X98276316Y-137805569D01*
X98256594Y-137872597D01*
X98203765Y-137918323D01*
X98152316Y-137929500D01*
X96756971Y-137929500D01*
X96756965Y-137929500D01*
X96756964Y-137929501D01*
X96745316Y-137930536D01*
X96637584Y-137940113D01*
X96441954Y-137996089D01*
X96351772Y-138043196D01*
X96261593Y-138090302D01*
X96261591Y-138090303D01*
X96261590Y-138090304D01*
X96103890Y-138218890D01*
X95975302Y-138376593D01*
X95975300Y-138376595D01*
X95919220Y-138483955D01*
X95870734Y-138534262D01*
X95802746Y-138550369D01*
X95785739Y-138548282D01*
X95516020Y-138496054D01*
X95383641Y-138470420D01*
X95383639Y-138470419D01*
X95383635Y-138470419D01*
X95363027Y-138468397D01*
X95358954Y-138467929D01*
X95143012Y-138439500D01*
X95143011Y-138439500D01*
X94906989Y-138439500D01*
X94906983Y-138439500D01*
X94906979Y-138439501D01*
X94672989Y-138470306D01*
X94445006Y-138531394D01*
X94226954Y-138621714D01*
X94226943Y-138621719D01*
X94022545Y-138739730D01*
X93835302Y-138883406D01*
X93835295Y-138883412D01*
X93668412Y-139050295D01*
X93668406Y-139050302D01*
X93524730Y-139237545D01*
X93406719Y-139441943D01*
X93406714Y-139441954D01*
X93316394Y-139660006D01*
X93255306Y-139887989D01*
X93224501Y-140121979D01*
X93224500Y-140121995D01*
X93224500Y-140358004D01*
X93224501Y-140358020D01*
X93255306Y-140592010D01*
X93316394Y-140819993D01*
X93406714Y-141038045D01*
X93406719Y-141038056D01*
X93450544Y-141113962D01*
X93524727Y-141242450D01*
X93524729Y-141242453D01*
X93524730Y-141242454D01*
X93668406Y-141429697D01*
X93668412Y-141429704D01*
X93835295Y-141596587D01*
X93835301Y-141596592D01*
X94022550Y-141740273D01*
X94153918Y-141816118D01*
X94226943Y-141858280D01*
X94226948Y-141858282D01*
X94226951Y-141858284D01*
X94445007Y-141948606D01*
X94672986Y-142009693D01*
X94906989Y-142040500D01*
X94906996Y-142040500D01*
X95143004Y-142040500D01*
X95143011Y-142040500D01*
X95362847Y-142011557D01*
X95367881Y-142011000D01*
X95369173Y-142010883D01*
X95383641Y-142009579D01*
X95842664Y-141920692D01*
X95912221Y-141927273D01*
X95967180Y-141970415D01*
X95973148Y-141980138D01*
X95975299Y-141983402D01*
X95975302Y-141983407D01*
X96021855Y-142040500D01*
X96103890Y-142141109D01*
X96197803Y-142217684D01*
X96261593Y-142269698D01*
X96441951Y-142363909D01*
X96637582Y-142419886D01*
X96756963Y-142430500D01*
X98146837Y-142430499D01*
X98213875Y-142450184D01*
X98259630Y-142502987D01*
X98270836Y-142554716D01*
X98242379Y-158786453D01*
X98222577Y-158853458D01*
X98180379Y-158893623D01*
X97989373Y-159003900D01*
X97791725Y-159155560D01*
X97791718Y-159155566D01*
X97615566Y-159331718D01*
X97615560Y-159331725D01*
X97463900Y-159529373D01*
X97339337Y-159745123D01*
X97339330Y-159745138D01*
X97243998Y-159975292D01*
X97179517Y-160215938D01*
X97147001Y-160462924D01*
X97147000Y-160462941D01*
X97147000Y-162512058D01*
X97147001Y-162512075D01*
X97179517Y-162759061D01*
X97243998Y-162999707D01*
X97339330Y-163229861D01*
X97339337Y-163229876D01*
X97463900Y-163445626D01*
X97615560Y-163643274D01*
X97615566Y-163643281D01*
X97791718Y-163819433D01*
X97791725Y-163819439D01*
X97989371Y-163971098D01*
X97989373Y-163971099D01*
X98170919Y-164075914D01*
X98219133Y-164126479D01*
X98232918Y-164183517D01*
X98231757Y-164845717D01*
X98211955Y-164912722D01*
X98159071Y-164958385D01*
X98107757Y-164969500D01*
X86050978Y-164969500D01*
X85983939Y-164949815D01*
X85938184Y-164897011D01*
X85928240Y-164827853D01*
X85950658Y-164772617D01*
X85954671Y-164767091D01*
X85962287Y-164756610D01*
X86055220Y-164574219D01*
X86118477Y-164379534D01*
X86150500Y-164177352D01*
X86150500Y-163972648D01*
X86118477Y-163770466D01*
X86055220Y-163575781D01*
X86055218Y-163575778D01*
X86055218Y-163575776D01*
X85988903Y-163445627D01*
X85962287Y-163393390D01*
X85954556Y-163382749D01*
X85841971Y-163227786D01*
X85697213Y-163083028D01*
X85531613Y-162962715D01*
X85531612Y-162962714D01*
X85531610Y-162962713D01*
X85443703Y-162917922D01*
X85349223Y-162869781D01*
X85154534Y-162806522D01*
X84979995Y-162778878D01*
X84952352Y-162774500D01*
X84747648Y-162774500D01*
X84686425Y-162784197D01*
X84545464Y-162806523D01*
X84545461Y-162806523D01*
X84350781Y-162869779D01*
X84350780Y-162869779D01*
X84256294Y-162917922D01*
X84187625Y-162930818D01*
X84143706Y-162917922D01*
X84049219Y-162869779D01*
X83854536Y-162806523D01*
X83713575Y-162784197D01*
X83652352Y-162774500D01*
X83447648Y-162774500D01*
X83386425Y-162784197D01*
X83245464Y-162806523D01*
X83245461Y-162806523D01*
X83050781Y-162869779D01*
X83050780Y-162869779D01*
X82956294Y-162917922D01*
X82887625Y-162930818D01*
X82843706Y-162917922D01*
X82749219Y-162869779D01*
X82554536Y-162806523D01*
X82353407Y-162774667D01*
X82290272Y-162744738D01*
X82253341Y-162685426D01*
X82250334Y-162671604D01*
X82218477Y-162470466D01*
X82155220Y-162275781D01*
X82155217Y-162275777D01*
X82155217Y-162275774D01*
X82107077Y-162181296D01*
X82094180Y-162112627D01*
X82107077Y-162068704D01*
X82155217Y-161974225D01*
X82155217Y-161974224D01*
X82155220Y-161974219D01*
X82218477Y-161779534D01*
X82250500Y-161577352D01*
X82250500Y-161372648D01*
X82218477Y-161170466D01*
X82155220Y-160975781D01*
X82155217Y-160975777D01*
X82155217Y-160975774D01*
X82107077Y-160881296D01*
X82094180Y-160812627D01*
X82107077Y-160768704D01*
X82155217Y-160674225D01*
X82155217Y-160674224D01*
X82155220Y-160674219D01*
X82218477Y-160479534D01*
X82250500Y-160277352D01*
X82250500Y-160072648D01*
X82221516Y-159889655D01*
X87737500Y-159889655D01*
X87737500Y-161112500D01*
X88413973Y-161112500D01*
X88407381Y-161119092D01*
X88328389Y-161255909D01*
X88287500Y-161408509D01*
X88287500Y-161566491D01*
X88328389Y-161719091D01*
X88407381Y-161855908D01*
X88413973Y-161862500D01*
X87737500Y-161862500D01*
X87737500Y-163085344D01*
X87743901Y-163144872D01*
X87743903Y-163144879D01*
X87794145Y-163279586D01*
X87794149Y-163279593D01*
X87880309Y-163394687D01*
X87880312Y-163394690D01*
X87995406Y-163480850D01*
X87995413Y-163480854D01*
X88130120Y-163531096D01*
X88130127Y-163531098D01*
X88189655Y-163537499D01*
X88189672Y-163537500D01*
X88512500Y-163537500D01*
X88512500Y-161961027D01*
X88519092Y-161967619D01*
X88655909Y-162046611D01*
X88808509Y-162087500D01*
X88966491Y-162087500D01*
X89119091Y-162046611D01*
X89255908Y-161967619D01*
X89262500Y-161961027D01*
X89262500Y-163537500D01*
X89585328Y-163537500D01*
X89585344Y-163537499D01*
X89644872Y-163531098D01*
X89644879Y-163531096D01*
X89779586Y-163480854D01*
X89779593Y-163480850D01*
X89894687Y-163394690D01*
X89894690Y-163394687D01*
X89980850Y-163279593D01*
X89980854Y-163279586D01*
X90031096Y-163144879D01*
X90031098Y-163144872D01*
X90037499Y-163085344D01*
X90037500Y-163085327D01*
X90037500Y-161862500D01*
X89361027Y-161862500D01*
X89367619Y-161855908D01*
X89446611Y-161719091D01*
X89487500Y-161566491D01*
X89487500Y-161408509D01*
X89446611Y-161255909D01*
X89367619Y-161119092D01*
X89361027Y-161112500D01*
X90037500Y-161112500D01*
X90037500Y-160462941D01*
X92067000Y-160462941D01*
X92067000Y-162512058D01*
X92067001Y-162512075D01*
X92099517Y-162759061D01*
X92163998Y-162999707D01*
X92259330Y-163229861D01*
X92259337Y-163229876D01*
X92383900Y-163445626D01*
X92535560Y-163643274D01*
X92535566Y-163643281D01*
X92711718Y-163819433D01*
X92711725Y-163819439D01*
X92909373Y-163971099D01*
X93125123Y-164095662D01*
X93125138Y-164095669D01*
X93199521Y-164126479D01*
X93355293Y-164191002D01*
X93595935Y-164255482D01*
X93842935Y-164288000D01*
X93842942Y-164288000D01*
X94092058Y-164288000D01*
X94092065Y-164288000D01*
X94339065Y-164255482D01*
X94579707Y-164191002D01*
X94809873Y-164095664D01*
X95025627Y-163971099D01*
X95223276Y-163819438D01*
X95399438Y-163643276D01*
X95551099Y-163445627D01*
X95675664Y-163229873D01*
X95771002Y-162999707D01*
X95835482Y-162759065D01*
X95868000Y-162512065D01*
X95868000Y-160462935D01*
X95835482Y-160215935D01*
X95771002Y-159975293D01*
X95675664Y-159745127D01*
X95580508Y-159580312D01*
X95551099Y-159529373D01*
X95399439Y-159331725D01*
X95399433Y-159331718D01*
X95223281Y-159155566D01*
X95223274Y-159155560D01*
X95025626Y-159003900D01*
X94809876Y-158879337D01*
X94809861Y-158879330D01*
X94579707Y-158783998D01*
X94339061Y-158719517D01*
X94092075Y-158687001D01*
X94092070Y-158687000D01*
X94092065Y-158687000D01*
X93842935Y-158687000D01*
X93842929Y-158687000D01*
X93842924Y-158687001D01*
X93595938Y-158719517D01*
X93355292Y-158783998D01*
X93125138Y-158879330D01*
X93125123Y-158879337D01*
X92909373Y-159003900D01*
X92711725Y-159155560D01*
X92711718Y-159155566D01*
X92535566Y-159331718D01*
X92535560Y-159331725D01*
X92383900Y-159529373D01*
X92259337Y-159745123D01*
X92259330Y-159745138D01*
X92163998Y-159975292D01*
X92099517Y-160215938D01*
X92067001Y-160462924D01*
X92067000Y-160462941D01*
X90037500Y-160462941D01*
X90037500Y-159889672D01*
X90037499Y-159889655D01*
X90031098Y-159830127D01*
X90031096Y-159830120D01*
X89980854Y-159695413D01*
X89980850Y-159695406D01*
X89894690Y-159580312D01*
X89894687Y-159580309D01*
X89779593Y-159494149D01*
X89779586Y-159494145D01*
X89644879Y-159443903D01*
X89644872Y-159443901D01*
X89585344Y-159437500D01*
X89262500Y-159437500D01*
X89262500Y-161013973D01*
X89255908Y-161007381D01*
X89119091Y-160928389D01*
X88966491Y-160887500D01*
X88808509Y-160887500D01*
X88655909Y-160928389D01*
X88519092Y-161007381D01*
X88512500Y-161013973D01*
X88512500Y-159437500D01*
X88189655Y-159437500D01*
X88130127Y-159443901D01*
X88130120Y-159443903D01*
X87995413Y-159494145D01*
X87995406Y-159494149D01*
X87880312Y-159580309D01*
X87880309Y-159580312D01*
X87794149Y-159695406D01*
X87794145Y-159695413D01*
X87743903Y-159830120D01*
X87743901Y-159830127D01*
X87737500Y-159889655D01*
X82221516Y-159889655D01*
X82218477Y-159870466D01*
X82209142Y-159841737D01*
X82177752Y-159745127D01*
X82155220Y-159675781D01*
X82155217Y-159675777D01*
X82155217Y-159675774D01*
X82107077Y-159581296D01*
X82094180Y-159512627D01*
X82107077Y-159468704D01*
X82122977Y-159437500D01*
X82155220Y-159374219D01*
X82218477Y-159179534D01*
X82250500Y-158977352D01*
X82250500Y-158772648D01*
X82236935Y-158687001D01*
X82218477Y-158570465D01*
X82198910Y-158510245D01*
X82155220Y-158375781D01*
X82155217Y-158375777D01*
X82155217Y-158375774D01*
X82107077Y-158281296D01*
X82094180Y-158212627D01*
X82107077Y-158168704D01*
X82155217Y-158074225D01*
X82155217Y-158074224D01*
X82155220Y-158074219D01*
X82218477Y-157879534D01*
X82250500Y-157677352D01*
X82250500Y-157472648D01*
X82218477Y-157270466D01*
X82155220Y-157075781D01*
X82155217Y-157075777D01*
X82155217Y-157075774D01*
X82107077Y-156981296D01*
X82094180Y-156912627D01*
X82107077Y-156868704D01*
X82155217Y-156774225D01*
X82155217Y-156774224D01*
X82155220Y-156774219D01*
X82218477Y-156579534D01*
X82250500Y-156377352D01*
X82250500Y-156172648D01*
X82218477Y-155970466D01*
X82155220Y-155775781D01*
X82155217Y-155775777D01*
X82155217Y-155775774D01*
X82107077Y-155681296D01*
X82094180Y-155612627D01*
X82107077Y-155568704D01*
X82155217Y-155474225D01*
X82155217Y-155474224D01*
X82155220Y-155474219D01*
X82218477Y-155279534D01*
X82250500Y-155077352D01*
X82250500Y-154872648D01*
X82231674Y-154753786D01*
X82218477Y-154670465D01*
X82179789Y-154551397D01*
X82155220Y-154475781D01*
X82155217Y-154475777D01*
X82155217Y-154475774D01*
X82107077Y-154381296D01*
X82094180Y-154312627D01*
X82107077Y-154268704D01*
X82155217Y-154174225D01*
X82155217Y-154174224D01*
X82155220Y-154174219D01*
X82218477Y-153979534D01*
X82250500Y-153777352D01*
X82250500Y-153572648D01*
X82218477Y-153370466D01*
X82155220Y-153175781D01*
X82155217Y-153175777D01*
X82155217Y-153175774D01*
X82107077Y-153081296D01*
X82094180Y-153012627D01*
X82107077Y-152968704D01*
X82155217Y-152874225D01*
X82155217Y-152874224D01*
X82155220Y-152874219D01*
X82218477Y-152679534D01*
X82250500Y-152477352D01*
X82250500Y-152272648D01*
X82218477Y-152070466D01*
X82155220Y-151875781D01*
X82155217Y-151875777D01*
X82155217Y-151875774D01*
X82107077Y-151781296D01*
X82094180Y-151712627D01*
X82107077Y-151668704D01*
X82155217Y-151574225D01*
X82155217Y-151574224D01*
X82155220Y-151574219D01*
X82218477Y-151379534D01*
X82250500Y-151177352D01*
X82250500Y-150972648D01*
X82218477Y-150770466D01*
X82155220Y-150575781D01*
X82155217Y-150575777D01*
X82155217Y-150575774D01*
X82107077Y-150481296D01*
X82106391Y-150477645D01*
X82104001Y-150474801D01*
X82099991Y-150443569D01*
X82094180Y-150412627D01*
X82095438Y-150408108D01*
X82095104Y-150405500D01*
X82102490Y-150382798D01*
X82105558Y-150371790D01*
X82106289Y-150370249D01*
X82122230Y-150338964D01*
X96221364Y-150338964D01*
X96343729Y-150389650D01*
X96343733Y-150389651D01*
X96546579Y-150429999D01*
X96546583Y-150430000D01*
X96753417Y-150430000D01*
X96753420Y-150429999D01*
X96956266Y-150389651D01*
X96956270Y-150389650D01*
X97078635Y-150338964D01*
X96650001Y-149910330D01*
X96650000Y-149910330D01*
X96221364Y-150338964D01*
X82122230Y-150338964D01*
X82155220Y-150274219D01*
X82218477Y-150079534D01*
X82250500Y-149877352D01*
X82250500Y-149672648D01*
X82218477Y-149470466D01*
X82218476Y-149470462D01*
X82218476Y-149470461D01*
X82168129Y-149315511D01*
X82155479Y-149276579D01*
X95600000Y-149276579D01*
X95600000Y-149483420D01*
X95640348Y-149686266D01*
X95640350Y-149686274D01*
X95691034Y-149808635D01*
X96119670Y-149380000D01*
X96119670Y-149379999D01*
X96067010Y-149327339D01*
X96250000Y-149327339D01*
X96250000Y-149432661D01*
X96277259Y-149534394D01*
X96329920Y-149625606D01*
X96404394Y-149700080D01*
X96495606Y-149752741D01*
X96597339Y-149780000D01*
X96702661Y-149780000D01*
X96804394Y-149752741D01*
X96895606Y-149700080D01*
X96970080Y-149625606D01*
X97022741Y-149534394D01*
X97050000Y-149432661D01*
X97050000Y-149379999D01*
X97180330Y-149379999D01*
X97180330Y-149380001D01*
X97608964Y-149808635D01*
X97659650Y-149686270D01*
X97659651Y-149686266D01*
X97699999Y-149483420D01*
X97700000Y-149483417D01*
X97700000Y-149276583D01*
X97699999Y-149276579D01*
X97659651Y-149073733D01*
X97659650Y-149073729D01*
X97608964Y-148951364D01*
X97180330Y-149379999D01*
X97050000Y-149379999D01*
X97050000Y-149327339D01*
X97022741Y-149225606D01*
X96970080Y-149134394D01*
X96895606Y-149059920D01*
X96804394Y-149007259D01*
X96702661Y-148980000D01*
X96597339Y-148980000D01*
X96495606Y-149007259D01*
X96404394Y-149059920D01*
X96329920Y-149134394D01*
X96277259Y-149225606D01*
X96250000Y-149327339D01*
X96067010Y-149327339D01*
X95691034Y-148951363D01*
X95640351Y-149073723D01*
X95640348Y-149073733D01*
X95600000Y-149276579D01*
X82155479Y-149276579D01*
X82155220Y-149275781D01*
X82105847Y-149178882D01*
X82104731Y-149176433D01*
X82100148Y-149144408D01*
X82094180Y-149112627D01*
X82095135Y-149109371D01*
X82094835Y-149107268D01*
X82097399Y-149101663D01*
X82107077Y-149068704D01*
X82155217Y-148974225D01*
X82155217Y-148974224D01*
X82155220Y-148974219D01*
X82218477Y-148779534D01*
X82250500Y-148577352D01*
X82250500Y-148421034D01*
X96221363Y-148421034D01*
X96650000Y-148849670D01*
X96650001Y-148849670D01*
X97078635Y-148421034D01*
X96956274Y-148370350D01*
X96956266Y-148370348D01*
X96753420Y-148330000D01*
X96546579Y-148330000D01*
X96343733Y-148370348D01*
X96343723Y-148370351D01*
X96221363Y-148421034D01*
X82250500Y-148421034D01*
X82250500Y-148372648D01*
X82218477Y-148170466D01*
X82155220Y-147975781D01*
X82155217Y-147975777D01*
X82155217Y-147975774D01*
X82107077Y-147881296D01*
X82094180Y-147812627D01*
X82107077Y-147768704D01*
X82155217Y-147674225D01*
X82155217Y-147674224D01*
X82155220Y-147674219D01*
X82218477Y-147479534D01*
X82250500Y-147277352D01*
X82250500Y-147072648D01*
X82218477Y-146870466D01*
X82155220Y-146675781D01*
X82155217Y-146675777D01*
X82155217Y-146675774D01*
X82107077Y-146581296D01*
X82094180Y-146512627D01*
X82107077Y-146468704D01*
X82155217Y-146374225D01*
X82155217Y-146374224D01*
X82155220Y-146374219D01*
X82218477Y-146179534D01*
X82250500Y-145977352D01*
X82250500Y-145772648D01*
X82218477Y-145570466D01*
X82155220Y-145375781D01*
X82155217Y-145375777D01*
X82155217Y-145375774D01*
X82107077Y-145281296D01*
X82094180Y-145212627D01*
X82107077Y-145168704D01*
X82155217Y-145074225D01*
X82155217Y-145074224D01*
X82155220Y-145074219D01*
X82218477Y-144879534D01*
X82250500Y-144677352D01*
X82250500Y-144472648D01*
X82218477Y-144270466D01*
X82155220Y-144075781D01*
X82155217Y-144075777D01*
X82155217Y-144075774D01*
X82107077Y-143981296D01*
X82094180Y-143912627D01*
X82107077Y-143868704D01*
X82155217Y-143774225D01*
X82155217Y-143774224D01*
X82155220Y-143774219D01*
X82218477Y-143579534D01*
X82250500Y-143377352D01*
X82250500Y-143172648D01*
X82218477Y-142970466D01*
X82155220Y-142775781D01*
X82155217Y-142775777D01*
X82155217Y-142775774D01*
X82107077Y-142681296D01*
X82094180Y-142612627D01*
X82107077Y-142568704D01*
X82114205Y-142554716D01*
X82155220Y-142474219D01*
X82218477Y-142279534D01*
X82250500Y-142077352D01*
X82250500Y-141872648D01*
X82218477Y-141670466D01*
X82155220Y-141475781D01*
X82155217Y-141475777D01*
X82155217Y-141475774D01*
X82107077Y-141381296D01*
X82106742Y-141379513D01*
X82105534Y-141378160D01*
X82100319Y-141345314D01*
X82094180Y-141312627D01*
X82094771Y-141310374D01*
X82094578Y-141309154D01*
X82098006Y-141298059D01*
X82104024Y-141275148D01*
X82105457Y-141271882D01*
X82142611Y-141198964D01*
X84436364Y-141198964D01*
X84558729Y-141249650D01*
X84558733Y-141249651D01*
X84761579Y-141289999D01*
X84761583Y-141290000D01*
X84968417Y-141290000D01*
X84968420Y-141289999D01*
X85171266Y-141249651D01*
X85171270Y-141249650D01*
X85293635Y-141198964D01*
X84865001Y-140770330D01*
X84865000Y-140770330D01*
X84436364Y-141198964D01*
X82142611Y-141198964D01*
X82155220Y-141174219D01*
X82218477Y-140979534D01*
X82250500Y-140777352D01*
X82250500Y-140572648D01*
X82218477Y-140370466D01*
X82155220Y-140175781D01*
X82135245Y-140136579D01*
X83815000Y-140136579D01*
X83815000Y-140343420D01*
X83855348Y-140546266D01*
X83855350Y-140546274D01*
X83906034Y-140668635D01*
X84334670Y-140240000D01*
X84334670Y-140239999D01*
X84282010Y-140187339D01*
X84465000Y-140187339D01*
X84465000Y-140292661D01*
X84492259Y-140394394D01*
X84544920Y-140485606D01*
X84619394Y-140560080D01*
X84710606Y-140612741D01*
X84812339Y-140640000D01*
X84917661Y-140640000D01*
X85019394Y-140612741D01*
X85110606Y-140560080D01*
X85185080Y-140485606D01*
X85237741Y-140394394D01*
X85265000Y-140292661D01*
X85265000Y-140239999D01*
X85395330Y-140239999D01*
X85395330Y-140240001D01*
X85823964Y-140668635D01*
X85874650Y-140546270D01*
X85874651Y-140546266D01*
X85914999Y-140343420D01*
X85915000Y-140343417D01*
X85915000Y-140136583D01*
X85914999Y-140136579D01*
X85874651Y-139933733D01*
X85874650Y-139933729D01*
X85823964Y-139811364D01*
X85395330Y-140239999D01*
X85265000Y-140239999D01*
X85265000Y-140187339D01*
X85237741Y-140085606D01*
X85185080Y-139994394D01*
X85110606Y-139919920D01*
X85019394Y-139867259D01*
X84917661Y-139840000D01*
X84812339Y-139840000D01*
X84710606Y-139867259D01*
X84619394Y-139919920D01*
X84544920Y-139994394D01*
X84492259Y-140085606D01*
X84465000Y-140187339D01*
X84282010Y-140187339D01*
X83906034Y-139811363D01*
X83855351Y-139933723D01*
X83855348Y-139933733D01*
X83815000Y-140136579D01*
X82135245Y-140136579D01*
X82106910Y-140080968D01*
X82106808Y-140080765D01*
X82100578Y-140046693D01*
X82094180Y-140012627D01*
X82094284Y-140012271D01*
X82094241Y-140012035D01*
X82094634Y-140011077D01*
X82107077Y-139968704D01*
X82155217Y-139874225D01*
X82155217Y-139874224D01*
X82155220Y-139874219D01*
X82218477Y-139679534D01*
X82250500Y-139477352D01*
X82250500Y-139281034D01*
X84436363Y-139281034D01*
X84865000Y-139709670D01*
X84865001Y-139709670D01*
X85293635Y-139281034D01*
X85171274Y-139230350D01*
X85171266Y-139230348D01*
X84968420Y-139190000D01*
X84761579Y-139190000D01*
X84558733Y-139230348D01*
X84558723Y-139230351D01*
X84436363Y-139281034D01*
X82250500Y-139281034D01*
X82250500Y-139272648D01*
X82218477Y-139070466D01*
X82211925Y-139050302D01*
X82157699Y-138883412D01*
X82155220Y-138875781D01*
X82155217Y-138875777D01*
X82155217Y-138875774D01*
X82107077Y-138781296D01*
X82094180Y-138712627D01*
X82107077Y-138668704D01*
X82155217Y-138574225D01*
X82155217Y-138574224D01*
X82155220Y-138574219D01*
X82218477Y-138379534D01*
X82250500Y-138177352D01*
X82250500Y-137972648D01*
X82218477Y-137770466D01*
X82155220Y-137575781D01*
X82155217Y-137575777D01*
X82155217Y-137575774D01*
X82107077Y-137481296D01*
X82094180Y-137412627D01*
X82107077Y-137368704D01*
X82155217Y-137274225D01*
X82155217Y-137274224D01*
X82155220Y-137274219D01*
X82218477Y-137079534D01*
X82250500Y-136877352D01*
X82250500Y-136672648D01*
X82218477Y-136470466D01*
X82203914Y-136425647D01*
X82198910Y-136410245D01*
X82155220Y-136275781D01*
X82155217Y-136275777D01*
X82155217Y-136275774D01*
X82107077Y-136181296D01*
X82094180Y-136112627D01*
X82107077Y-136068704D01*
X82155217Y-135974225D01*
X82155217Y-135974224D01*
X82155220Y-135974219D01*
X82218477Y-135779534D01*
X82250500Y-135577352D01*
X82250500Y-135372648D01*
X82218477Y-135170466D01*
X82218323Y-135169993D01*
X82198910Y-135110245D01*
X82155220Y-134975781D01*
X82155217Y-134975777D01*
X82155217Y-134975774D01*
X82107077Y-134881296D01*
X82094180Y-134812627D01*
X82107077Y-134768704D01*
X82155217Y-134674225D01*
X82155217Y-134674224D01*
X82155220Y-134674219D01*
X82218477Y-134479534D01*
X82250500Y-134277352D01*
X82250500Y-134072648D01*
X82239793Y-134005048D01*
X82218477Y-133870465D01*
X82198910Y-133810245D01*
X82155220Y-133675781D01*
X82155217Y-133675777D01*
X82155217Y-133675774D01*
X82107077Y-133581296D01*
X82094180Y-133512627D01*
X82107077Y-133468704D01*
X82155217Y-133374225D01*
X82155217Y-133374224D01*
X82155220Y-133374219D01*
X82218477Y-133179534D01*
X82250500Y-132977352D01*
X82250500Y-132772648D01*
X82218477Y-132570466D01*
X82155220Y-132375781D01*
X82155217Y-132375777D01*
X82155217Y-132375774D01*
X82107077Y-132281296D01*
X82094180Y-132212627D01*
X82107077Y-132168704D01*
X82155217Y-132074225D01*
X82155217Y-132074224D01*
X82155220Y-132074219D01*
X82218477Y-131879534D01*
X82250500Y-131677352D01*
X82250500Y-131472648D01*
X82234434Y-131371210D01*
X82218477Y-131270465D01*
X82168211Y-131115764D01*
X82155220Y-131075781D01*
X82155217Y-131075777D01*
X82155217Y-131075774D01*
X82107077Y-130981296D01*
X82094180Y-130912627D01*
X82107077Y-130868704D01*
X82155217Y-130774225D01*
X82155217Y-130774224D01*
X82155220Y-130774219D01*
X82218477Y-130579534D01*
X82250500Y-130377352D01*
X82250500Y-130172648D01*
X82239413Y-130102646D01*
X82218477Y-129970465D01*
X82173432Y-129831833D01*
X82155220Y-129775781D01*
X82155217Y-129775777D01*
X82155217Y-129775774D01*
X82107077Y-129681296D01*
X82094180Y-129612627D01*
X82107077Y-129568704D01*
X82155217Y-129474225D01*
X82155217Y-129474224D01*
X82155220Y-129474219D01*
X82218477Y-129279534D01*
X82250500Y-129077352D01*
X82250500Y-128872648D01*
X82218477Y-128670466D01*
X82155220Y-128475781D01*
X82155217Y-128475777D01*
X82155217Y-128475774D01*
X82107077Y-128381296D01*
X82094180Y-128312627D01*
X82107077Y-128268704D01*
X82155217Y-128174225D01*
X82155217Y-128174224D01*
X82155220Y-128174219D01*
X82218477Y-127979534D01*
X82250500Y-127777352D01*
X82250500Y-127572648D01*
X82218477Y-127370466D01*
X82155220Y-127175781D01*
X82155217Y-127175777D01*
X82155217Y-127175774D01*
X82107077Y-127081296D01*
X82094180Y-127012627D01*
X82107077Y-126968704D01*
X82155217Y-126874225D01*
X82155217Y-126874224D01*
X82155220Y-126874219D01*
X82218477Y-126679534D01*
X82250500Y-126477352D01*
X82250500Y-126272648D01*
X82218477Y-126070466D01*
X82155220Y-125875781D01*
X82155217Y-125875777D01*
X82155217Y-125875774D01*
X82107077Y-125781296D01*
X82094180Y-125712627D01*
X82107077Y-125668704D01*
X82121449Y-125640499D01*
X82150538Y-125583407D01*
X82155217Y-125574225D01*
X82155217Y-125574224D01*
X82155220Y-125574219D01*
X82218477Y-125379534D01*
X82250500Y-125177352D01*
X82250500Y-124972648D01*
X82237410Y-124890000D01*
X82222991Y-124798964D01*
X84476364Y-124798964D01*
X84598729Y-124849650D01*
X84598733Y-124849651D01*
X84801579Y-124889999D01*
X84801583Y-124890000D01*
X85008417Y-124890000D01*
X85008420Y-124889999D01*
X85211266Y-124849651D01*
X85211270Y-124849650D01*
X85333635Y-124798964D01*
X84905001Y-124370330D01*
X84905000Y-124370330D01*
X84476364Y-124798964D01*
X82222991Y-124798964D01*
X82219599Y-124777548D01*
X82219187Y-124774953D01*
X82218477Y-124770466D01*
X82155220Y-124575781D01*
X82155217Y-124575777D01*
X82155217Y-124575774D01*
X82107077Y-124481296D01*
X82094180Y-124412627D01*
X82107077Y-124368704D01*
X82155217Y-124274225D01*
X82155217Y-124274224D01*
X82155220Y-124274219D01*
X82218477Y-124079534D01*
X82250500Y-123877352D01*
X82250500Y-123736579D01*
X83855000Y-123736579D01*
X83855000Y-123943420D01*
X83895348Y-124146266D01*
X83895350Y-124146274D01*
X83946034Y-124268635D01*
X84374670Y-123840000D01*
X84374670Y-123839999D01*
X84322010Y-123787339D01*
X84505000Y-123787339D01*
X84505000Y-123892661D01*
X84532259Y-123994394D01*
X84584920Y-124085606D01*
X84659394Y-124160080D01*
X84750606Y-124212741D01*
X84852339Y-124240000D01*
X84957661Y-124240000D01*
X85059394Y-124212741D01*
X85150606Y-124160080D01*
X85225080Y-124085606D01*
X85277741Y-123994394D01*
X85305000Y-123892661D01*
X85305000Y-123839999D01*
X85435330Y-123839999D01*
X85435330Y-123840001D01*
X85863964Y-124268635D01*
X85914650Y-124146270D01*
X85914651Y-124146266D01*
X85954999Y-123943420D01*
X85955000Y-123943417D01*
X85955000Y-123736583D01*
X85954999Y-123736579D01*
X85914651Y-123533733D01*
X85914650Y-123533729D01*
X85863964Y-123411364D01*
X85435330Y-123839999D01*
X85305000Y-123839999D01*
X85305000Y-123787339D01*
X85277741Y-123685606D01*
X85225080Y-123594394D01*
X85150606Y-123519920D01*
X85059394Y-123467259D01*
X84957661Y-123440000D01*
X84852339Y-123440000D01*
X84750606Y-123467259D01*
X84659394Y-123519920D01*
X84584920Y-123594394D01*
X84532259Y-123685606D01*
X84505000Y-123787339D01*
X84322010Y-123787339D01*
X83946034Y-123411363D01*
X83895351Y-123533723D01*
X83895348Y-123533733D01*
X83855000Y-123736579D01*
X82250500Y-123736579D01*
X82250500Y-123672648D01*
X82226310Y-123519920D01*
X82218477Y-123470465D01*
X82166231Y-123309670D01*
X82155220Y-123275781D01*
X82155217Y-123275777D01*
X82155217Y-123275774D01*
X82107077Y-123181296D01*
X82106946Y-123180602D01*
X82106466Y-123180082D01*
X82100502Y-123146293D01*
X82094180Y-123112627D01*
X82094404Y-123111739D01*
X82094323Y-123111275D01*
X82095619Y-123106946D01*
X82103182Y-123077111D01*
X82104971Y-123072837D01*
X82155220Y-122974219D01*
X82185498Y-122881034D01*
X84476363Y-122881034D01*
X84905000Y-123309670D01*
X84905001Y-123309670D01*
X85333635Y-122881034D01*
X85211274Y-122830350D01*
X85211266Y-122830348D01*
X85008420Y-122790000D01*
X84801579Y-122790000D01*
X84598733Y-122830348D01*
X84598723Y-122830351D01*
X84476363Y-122881034D01*
X82185498Y-122881034D01*
X82218477Y-122779534D01*
X82250500Y-122577352D01*
X82250500Y-122372648D01*
X82218477Y-122170466D01*
X82208983Y-122141248D01*
X82185248Y-122068197D01*
X82155220Y-121975781D01*
X82155217Y-121975777D01*
X82155217Y-121975774D01*
X82107077Y-121881296D01*
X82094180Y-121812627D01*
X82107077Y-121768704D01*
X82155217Y-121674225D01*
X82155217Y-121674224D01*
X82155220Y-121674219D01*
X82218477Y-121479534D01*
X82250500Y-121277352D01*
X82250500Y-121072648D01*
X82218477Y-120870466D01*
X82155220Y-120675781D01*
X82155217Y-120675777D01*
X82155217Y-120675774D01*
X82107077Y-120581296D01*
X82094180Y-120512627D01*
X82107077Y-120468704D01*
X82108640Y-120465638D01*
X82155220Y-120374219D01*
X82218477Y-120179534D01*
X82250500Y-119977352D01*
X82250500Y-119772648D01*
X82218477Y-119570466D01*
X82155220Y-119375781D01*
X82155217Y-119375777D01*
X82155217Y-119375774D01*
X82107077Y-119281296D01*
X82094180Y-119212627D01*
X82107077Y-119168704D01*
X82155217Y-119074225D01*
X82155217Y-119074224D01*
X82155220Y-119074219D01*
X82218477Y-118879534D01*
X82250500Y-118677352D01*
X82250500Y-118472648D01*
X82218477Y-118270466D01*
X82155220Y-118075781D01*
X82155217Y-118075777D01*
X82155217Y-118075774D01*
X82107077Y-117981296D01*
X82094180Y-117912627D01*
X82107077Y-117868704D01*
X82155217Y-117774225D01*
X82155217Y-117774224D01*
X82155220Y-117774219D01*
X82218477Y-117579534D01*
X82250500Y-117377352D01*
X82250500Y-117172648D01*
X82218477Y-116970466D01*
X82155220Y-116775781D01*
X82155217Y-116775777D01*
X82155217Y-116775774D01*
X82107077Y-116681296D01*
X82094180Y-116612627D01*
X82107077Y-116568704D01*
X82155217Y-116474225D01*
X82155217Y-116474224D01*
X82155220Y-116474219D01*
X82218477Y-116279534D01*
X82250500Y-116077352D01*
X82250500Y-115872648D01*
X82218477Y-115670466D01*
X82155220Y-115475781D01*
X82155217Y-115475777D01*
X82155217Y-115475774D01*
X82107077Y-115381296D01*
X82094180Y-115312627D01*
X82107077Y-115268704D01*
X82114315Y-115254500D01*
X82155220Y-115174219D01*
X82218477Y-114979534D01*
X82250500Y-114777352D01*
X82250500Y-114572648D01*
X82218477Y-114370466D01*
X82155220Y-114175781D01*
X82155217Y-114175777D01*
X82155217Y-114175774D01*
X82107077Y-114081296D01*
X82094180Y-114012627D01*
X82107077Y-113968704D01*
X82155217Y-113874225D01*
X82155217Y-113874224D01*
X82155220Y-113874219D01*
X82218477Y-113679534D01*
X82250500Y-113477352D01*
X82250500Y-113272648D01*
X82218477Y-113070466D01*
X82155220Y-112875781D01*
X82155217Y-112875777D01*
X82155217Y-112875774D01*
X82107077Y-112781296D01*
X82094180Y-112712627D01*
X82107077Y-112668704D01*
X82155217Y-112574225D01*
X82155217Y-112574224D01*
X82155220Y-112574219D01*
X82218477Y-112379534D01*
X82250500Y-112177352D01*
X82250500Y-111972648D01*
X82218477Y-111770466D01*
X82155220Y-111575781D01*
X82155217Y-111575777D01*
X82155217Y-111575774D01*
X82124979Y-111516430D01*
X82107076Y-111481294D01*
X82094180Y-111412627D01*
X82107077Y-111368704D01*
X82155217Y-111274225D01*
X82155217Y-111274224D01*
X82155220Y-111274219D01*
X82218477Y-111079534D01*
X82250500Y-110877352D01*
X82250500Y-110672648D01*
X82218477Y-110470466D01*
X82155220Y-110275781D01*
X82155217Y-110275777D01*
X82155217Y-110275774D01*
X82107077Y-110181296D01*
X82094180Y-110112627D01*
X82107077Y-110068704D01*
X82155217Y-109974225D01*
X82155217Y-109974224D01*
X82155220Y-109974219D01*
X82218477Y-109779534D01*
X82250500Y-109577352D01*
X82250500Y-109372648D01*
X82218477Y-109170466D01*
X82155220Y-108975781D01*
X82155217Y-108975777D01*
X82155217Y-108975774D01*
X82124979Y-108916430D01*
X82107076Y-108881294D01*
X82094180Y-108812627D01*
X82107077Y-108768704D01*
X82113249Y-108756592D01*
X82155220Y-108674219D01*
X82218477Y-108479534D01*
X82237574Y-108358964D01*
X84566364Y-108358964D01*
X84688729Y-108409650D01*
X84688733Y-108409651D01*
X84891579Y-108449999D01*
X84891583Y-108450000D01*
X85098417Y-108450000D01*
X85098420Y-108449999D01*
X85301266Y-108409651D01*
X85301270Y-108409650D01*
X85423635Y-108358964D01*
X84995001Y-107930330D01*
X84995000Y-107930330D01*
X84566364Y-108358964D01*
X82237574Y-108358964D01*
X82250500Y-108277352D01*
X82250500Y-108072648D01*
X82218477Y-107870466D01*
X82155220Y-107675781D01*
X82155217Y-107675777D01*
X82155217Y-107675774D01*
X82107077Y-107581296D01*
X82094180Y-107512627D01*
X82107077Y-107468704D01*
X82115252Y-107452661D01*
X82155220Y-107374219D01*
X82180447Y-107296579D01*
X83945000Y-107296579D01*
X83945000Y-107503420D01*
X83985348Y-107706266D01*
X83985350Y-107706274D01*
X84036034Y-107828635D01*
X84464670Y-107400000D01*
X84464670Y-107399999D01*
X84412010Y-107347339D01*
X84595000Y-107347339D01*
X84595000Y-107452661D01*
X84622259Y-107554394D01*
X84674920Y-107645606D01*
X84749394Y-107720080D01*
X84840606Y-107772741D01*
X84942339Y-107800000D01*
X85047661Y-107800000D01*
X85149394Y-107772741D01*
X85240606Y-107720080D01*
X85315080Y-107645606D01*
X85367741Y-107554394D01*
X85395000Y-107452661D01*
X85395000Y-107399999D01*
X85525330Y-107399999D01*
X85525330Y-107400001D01*
X85953964Y-107828635D01*
X86004650Y-107706270D01*
X86004651Y-107706266D01*
X86044999Y-107503420D01*
X86045000Y-107503417D01*
X86045000Y-107296583D01*
X86044999Y-107296579D01*
X86004651Y-107093733D01*
X86004650Y-107093729D01*
X85953964Y-106971364D01*
X85525330Y-107399999D01*
X85395000Y-107399999D01*
X85395000Y-107347339D01*
X85367741Y-107245606D01*
X85315080Y-107154394D01*
X85240606Y-107079920D01*
X85149394Y-107027259D01*
X85047661Y-107000000D01*
X84942339Y-107000000D01*
X84840606Y-107027259D01*
X84749394Y-107079920D01*
X84674920Y-107154394D01*
X84622259Y-107245606D01*
X84595000Y-107347339D01*
X84412010Y-107347339D01*
X84036034Y-106971363D01*
X83985351Y-107093723D01*
X83985348Y-107093733D01*
X83945000Y-107296579D01*
X82180447Y-107296579D01*
X82218477Y-107179534D01*
X82250500Y-106977352D01*
X82250500Y-106772648D01*
X82218477Y-106570466D01*
X82176422Y-106441034D01*
X84566363Y-106441034D01*
X84995000Y-106869670D01*
X84995001Y-106869670D01*
X85423635Y-106441034D01*
X85301274Y-106390350D01*
X85301266Y-106390348D01*
X85098420Y-106350000D01*
X84891579Y-106350000D01*
X84688733Y-106390348D01*
X84688723Y-106390351D01*
X84566363Y-106441034D01*
X82176422Y-106441034D01*
X82155220Y-106375781D01*
X82155218Y-106375778D01*
X82155218Y-106375776D01*
X82107077Y-106281296D01*
X82094180Y-106212627D01*
X82107077Y-106168704D01*
X82155217Y-106074225D01*
X82155217Y-106074224D01*
X82155220Y-106074219D01*
X82218477Y-105879534D01*
X82250500Y-105677352D01*
X82250500Y-105472648D01*
X82218477Y-105270466D01*
X82155220Y-105075781D01*
X82155217Y-105075777D01*
X82155217Y-105075774D01*
X82107077Y-104981296D01*
X82094180Y-104912627D01*
X82107077Y-104868704D01*
X82155217Y-104774225D01*
X82155217Y-104774224D01*
X82155220Y-104774219D01*
X82218477Y-104579534D01*
X82250500Y-104377352D01*
X82250500Y-104172648D01*
X82218477Y-103970466D01*
X82212718Y-103952743D01*
X82164791Y-103805238D01*
X82155220Y-103775781D01*
X82155217Y-103775777D01*
X82155217Y-103775774D01*
X82107077Y-103681296D01*
X82094180Y-103612627D01*
X82107077Y-103568704D01*
X82155217Y-103474225D01*
X82155217Y-103474224D01*
X82155220Y-103474219D01*
X82218477Y-103279534D01*
X82250500Y-103077352D01*
X82250500Y-102872648D01*
X82218477Y-102670466D01*
X82155220Y-102475781D01*
X82155217Y-102475777D01*
X82155217Y-102475774D01*
X82107077Y-102381296D01*
X82094180Y-102312627D01*
X82107077Y-102268704D01*
X82155217Y-102174225D01*
X82155217Y-102174224D01*
X82155220Y-102174219D01*
X82218477Y-101979534D01*
X82250500Y-101777352D01*
X82250500Y-101572648D01*
X82218477Y-101370466D01*
X82155220Y-101175781D01*
X82155217Y-101175777D01*
X82155217Y-101175774D01*
X82107077Y-101081296D01*
X82094180Y-101012627D01*
X82107077Y-100968704D01*
X82155217Y-100874225D01*
X82155217Y-100874224D01*
X82155220Y-100874219D01*
X82218477Y-100679534D01*
X82250500Y-100477352D01*
X82250500Y-100272648D01*
X82218477Y-100070466D01*
X82213374Y-100054762D01*
X82165446Y-99907254D01*
X82155220Y-99875781D01*
X82155217Y-99875777D01*
X82155217Y-99875774D01*
X82107077Y-99781296D01*
X82094180Y-99712627D01*
X82107077Y-99668704D01*
X82155217Y-99574225D01*
X82155217Y-99574224D01*
X82155220Y-99574219D01*
X82218477Y-99379534D01*
X82250500Y-99177352D01*
X82250500Y-98972648D01*
X82218477Y-98770466D01*
X82155220Y-98575781D01*
X82155217Y-98575777D01*
X82155217Y-98575774D01*
X82107077Y-98481296D01*
X82094180Y-98412627D01*
X82107077Y-98368704D01*
X82155217Y-98274225D01*
X82155217Y-98274224D01*
X82155220Y-98274219D01*
X82218477Y-98079534D01*
X82250500Y-97877352D01*
X82250500Y-97672648D01*
X82218477Y-97470466D01*
X82155220Y-97275781D01*
X82155217Y-97275777D01*
X82155217Y-97275774D01*
X82107077Y-97181296D01*
X82094180Y-97112627D01*
X82107077Y-97068704D01*
X82155217Y-96974225D01*
X82155217Y-96974224D01*
X82155220Y-96974219D01*
X82218477Y-96779534D01*
X82250500Y-96577352D01*
X82250500Y-96372648D01*
X82218477Y-96170466D01*
X82155220Y-95975781D01*
X82155217Y-95975777D01*
X82155217Y-95975774D01*
X82118746Y-95904197D01*
X82107076Y-95881294D01*
X82094180Y-95812627D01*
X82107077Y-95768704D01*
X82155217Y-95674225D01*
X82155217Y-95674224D01*
X82155220Y-95674219D01*
X82218477Y-95479534D01*
X82250500Y-95277352D01*
X82250500Y-95072648D01*
X82218477Y-94870466D01*
X82155220Y-94675781D01*
X82155217Y-94675777D01*
X82155217Y-94675774D01*
X82107077Y-94581296D01*
X82094180Y-94512627D01*
X82107077Y-94468704D01*
X82155217Y-94374225D01*
X82155217Y-94374224D01*
X82155220Y-94374219D01*
X82218477Y-94179534D01*
X82250500Y-93977352D01*
X82250500Y-93772648D01*
X82218477Y-93570466D01*
X82155220Y-93375781D01*
X82155217Y-93375777D01*
X82155217Y-93375774D01*
X82107077Y-93281296D01*
X82094180Y-93212627D01*
X82107077Y-93168704D01*
X82155217Y-93074225D01*
X82155217Y-93074224D01*
X82155220Y-93074219D01*
X82218477Y-92879534D01*
X82250500Y-92677352D01*
X82250500Y-92472648D01*
X82218477Y-92270466D01*
X82155220Y-92075781D01*
X82155217Y-92075777D01*
X82155217Y-92075774D01*
X82107077Y-91981296D01*
X82094180Y-91912627D01*
X82107077Y-91868704D01*
X82155217Y-91774225D01*
X82155217Y-91774224D01*
X82155220Y-91774219D01*
X82218477Y-91579534D01*
X82250500Y-91377352D01*
X82250500Y-91172648D01*
X82218477Y-90970466D01*
X82155220Y-90775781D01*
X82155217Y-90775777D01*
X82155217Y-90775774D01*
X82107077Y-90681296D01*
X82094180Y-90612627D01*
X82107077Y-90568704D01*
X82155217Y-90474225D01*
X82155217Y-90474224D01*
X82155220Y-90474219D01*
X82218477Y-90279534D01*
X82250500Y-90077352D01*
X82250500Y-89872648D01*
X82218477Y-89670466D01*
X82155220Y-89475781D01*
X82155217Y-89475777D01*
X82155217Y-89475774D01*
X82107077Y-89381296D01*
X82094180Y-89312627D01*
X82107077Y-89268704D01*
X82155217Y-89174225D01*
X82155217Y-89174224D01*
X82155220Y-89174219D01*
X82218477Y-88979534D01*
X82250500Y-88777352D01*
X82250500Y-88572648D01*
X82218477Y-88370466D01*
X82155220Y-88175781D01*
X82155217Y-88175777D01*
X82155217Y-88175774D01*
X82107077Y-88081296D01*
X82094180Y-88012627D01*
X82107077Y-87968704D01*
X82155217Y-87874225D01*
X82155217Y-87874224D01*
X82155220Y-87874219D01*
X82218477Y-87679534D01*
X82250500Y-87477352D01*
X82250500Y-87272648D01*
X82218477Y-87070466D01*
X82155220Y-86875781D01*
X82155217Y-86875777D01*
X82155217Y-86875774D01*
X82107077Y-86781296D01*
X82094180Y-86712627D01*
X82107077Y-86668704D01*
X82120575Y-86642214D01*
X82155220Y-86574219D01*
X82218477Y-86379534D01*
X82250500Y-86177352D01*
X82250500Y-85972648D01*
X82218477Y-85770466D01*
X82211873Y-85750142D01*
X84790000Y-85750142D01*
X84790000Y-86009857D01*
X84830629Y-86266377D01*
X84910883Y-86513377D01*
X85028794Y-86744787D01*
X85035563Y-86754106D01*
X85756711Y-86032958D01*
X85766901Y-86084182D01*
X85819668Y-86211574D01*
X85896274Y-86326224D01*
X85993776Y-86423726D01*
X86108426Y-86500332D01*
X86235818Y-86553099D01*
X86287041Y-86563288D01*
X85565893Y-87284435D01*
X85565893Y-87284436D01*
X85575214Y-87291207D01*
X85806622Y-87409116D01*
X86053622Y-87489370D01*
X86310143Y-87530000D01*
X86569857Y-87530000D01*
X86826377Y-87489370D01*
X87073377Y-87409116D01*
X87304780Y-87291209D01*
X87304793Y-87291201D01*
X87314105Y-87284435D01*
X87314106Y-87284435D01*
X86592958Y-86563288D01*
X86644182Y-86553099D01*
X86771574Y-86500332D01*
X86886224Y-86423726D01*
X86983726Y-86326224D01*
X87060332Y-86211574D01*
X87113099Y-86084182D01*
X87123288Y-86032959D01*
X87844435Y-86754106D01*
X87844435Y-86754105D01*
X87851201Y-86744793D01*
X87851209Y-86744780D01*
X87969116Y-86513377D01*
X88049370Y-86266377D01*
X88090000Y-86009857D01*
X88090000Y-85750142D01*
X88049370Y-85493622D01*
X87969116Y-85246622D01*
X87851207Y-85015214D01*
X87844435Y-85005893D01*
X87123288Y-85727040D01*
X87113099Y-85675818D01*
X87060332Y-85548426D01*
X86983726Y-85433776D01*
X86886224Y-85336274D01*
X86771574Y-85259668D01*
X86644182Y-85206901D01*
X86592958Y-85196711D01*
X87314106Y-84475563D01*
X87304787Y-84468794D01*
X87073377Y-84350883D01*
X86826377Y-84270629D01*
X86569857Y-84230000D01*
X86310143Y-84230000D01*
X86053622Y-84270629D01*
X85806622Y-84350883D01*
X85575206Y-84468797D01*
X85575204Y-84468798D01*
X85565893Y-84475562D01*
X85565893Y-84475563D01*
X86287041Y-85196711D01*
X86235818Y-85206901D01*
X86108426Y-85259668D01*
X85993776Y-85336274D01*
X85896274Y-85433776D01*
X85819668Y-85548426D01*
X85766901Y-85675818D01*
X85756711Y-85727041D01*
X85035563Y-85005893D01*
X85035562Y-85005893D01*
X85028798Y-85015204D01*
X85028797Y-85015206D01*
X84910883Y-85246622D01*
X84830629Y-85493622D01*
X84790000Y-85750142D01*
X82211873Y-85750142D01*
X82187724Y-85675818D01*
X82155220Y-85575781D01*
X82155217Y-85575777D01*
X82155217Y-85575774D01*
X82107077Y-85481296D01*
X82094180Y-85412627D01*
X82107077Y-85368704D01*
X82116776Y-85349670D01*
X82155220Y-85274219D01*
X82218477Y-85079534D01*
X82250500Y-84877352D01*
X82250500Y-84672648D01*
X82218477Y-84470466D01*
X82155220Y-84275781D01*
X82155217Y-84275777D01*
X82155217Y-84275774D01*
X82107077Y-84181296D01*
X82094180Y-84112627D01*
X82107077Y-84068704D01*
X82155217Y-83974225D01*
X82155217Y-83974224D01*
X82155220Y-83974219D01*
X82218477Y-83779534D01*
X82250500Y-83577352D01*
X82250500Y-83372648D01*
X82218477Y-83170466D01*
X82155220Y-82975781D01*
X82155217Y-82975777D01*
X82155217Y-82975774D01*
X82107077Y-82881296D01*
X82094180Y-82812627D01*
X82107077Y-82768704D01*
X82155217Y-82674225D01*
X82155217Y-82674224D01*
X82155220Y-82674219D01*
X82218477Y-82479534D01*
X82250500Y-82277352D01*
X82250500Y-82072648D01*
X82218477Y-81870466D01*
X82155220Y-81675781D01*
X82155217Y-81675777D01*
X82155217Y-81675774D01*
X82107077Y-81581296D01*
X82094180Y-81512627D01*
X82107077Y-81468704D01*
X82155217Y-81374225D01*
X82155217Y-81374224D01*
X82155220Y-81374219D01*
X82218477Y-81179534D01*
X82250500Y-80977352D01*
X82250500Y-80772648D01*
X82218477Y-80570466D01*
X82155220Y-80375781D01*
X82155217Y-80375777D01*
X82155217Y-80375774D01*
X82107077Y-80281296D01*
X82094180Y-80212627D01*
X82107077Y-80168704D01*
X82155217Y-80074225D01*
X82155217Y-80074224D01*
X82155220Y-80074219D01*
X82218477Y-79879534D01*
X82250500Y-79677352D01*
X82250500Y-79472648D01*
X82218477Y-79270466D01*
X82155220Y-79075781D01*
X82155217Y-79075777D01*
X82155217Y-79075774D01*
X82107077Y-78981296D01*
X82094180Y-78912627D01*
X82107077Y-78868704D01*
X82155217Y-78774225D01*
X82155217Y-78774224D01*
X82155220Y-78774219D01*
X82218477Y-78579534D01*
X82250500Y-78377352D01*
X82250500Y-78172648D01*
X82218477Y-77970466D01*
X82155220Y-77775781D01*
X82155217Y-77775777D01*
X82155217Y-77775774D01*
X82107077Y-77681296D01*
X82094180Y-77612627D01*
X82107077Y-77568704D01*
X82116617Y-77549982D01*
X82155220Y-77474219D01*
X82218477Y-77279534D01*
X82250500Y-77077352D01*
X82250500Y-76872648D01*
X82218477Y-76670466D01*
X82155220Y-76475781D01*
X82155217Y-76475777D01*
X82155217Y-76475774D01*
X82107077Y-76381296D01*
X82094180Y-76312627D01*
X82107077Y-76268704D01*
X82155217Y-76174225D01*
X82155217Y-76174224D01*
X82155220Y-76174219D01*
X82218477Y-75979534D01*
X82250500Y-75777352D01*
X82250500Y-75572648D01*
X82218477Y-75370466D01*
X82212905Y-75353318D01*
X82171513Y-75225926D01*
X82155220Y-75175781D01*
X82155217Y-75175777D01*
X82155217Y-75175774D01*
X82107077Y-75081296D01*
X82094180Y-75012627D01*
X82107077Y-74968704D01*
X82155217Y-74874225D01*
X82155217Y-74874224D01*
X82155220Y-74874219D01*
X82218477Y-74679534D01*
X82221711Y-74659117D01*
X86400000Y-74659117D01*
X86400000Y-75182500D01*
X87058684Y-75182500D01*
X87029668Y-75225926D01*
X86976901Y-75353318D01*
X86950000Y-75488556D01*
X86950000Y-75626444D01*
X86976901Y-75761682D01*
X87029668Y-75889074D01*
X87058684Y-75932500D01*
X86400000Y-75932500D01*
X86400000Y-76455882D01*
X86430778Y-76650205D01*
X86491581Y-76837335D01*
X86580904Y-77012643D01*
X86696555Y-77171821D01*
X86835678Y-77310944D01*
X86994858Y-77426597D01*
X87170167Y-77515920D01*
X87274999Y-77549982D01*
X87275000Y-77549981D01*
X87275000Y-76148815D01*
X87318426Y-76177832D01*
X87445818Y-76230599D01*
X87581056Y-76257500D01*
X87718944Y-76257500D01*
X87854182Y-76230599D01*
X87981574Y-76177832D01*
X88025000Y-76148815D01*
X88025000Y-77549982D01*
X88129832Y-77515920D01*
X88305141Y-77426597D01*
X88464321Y-77310944D01*
X88603444Y-77171821D01*
X88719095Y-77012643D01*
X88808418Y-76837335D01*
X88869221Y-76650205D01*
X88900000Y-76455882D01*
X88900000Y-75932500D01*
X88241316Y-75932500D01*
X88270332Y-75889074D01*
X88323099Y-75761682D01*
X88350000Y-75626444D01*
X88350000Y-75488556D01*
X88323099Y-75353318D01*
X88270332Y-75225926D01*
X88241316Y-75182500D01*
X88900000Y-75182500D01*
X88900000Y-74659117D01*
X88869221Y-74464794D01*
X88808418Y-74277664D01*
X88719095Y-74102356D01*
X88603444Y-73943178D01*
X88464321Y-73804055D01*
X88305143Y-73688404D01*
X88129837Y-73599081D01*
X88025000Y-73565017D01*
X88025000Y-74966184D01*
X87981574Y-74937168D01*
X87854182Y-74884401D01*
X87718944Y-74857500D01*
X87581056Y-74857500D01*
X87445818Y-74884401D01*
X87318426Y-74937168D01*
X87275000Y-74966184D01*
X87275000Y-73565017D01*
X87170162Y-73599081D01*
X86994856Y-73688404D01*
X86835678Y-73804055D01*
X86696555Y-73943178D01*
X86580904Y-74102356D01*
X86491581Y-74277664D01*
X86430778Y-74464794D01*
X86400000Y-74659117D01*
X82221711Y-74659117D01*
X82250500Y-74477352D01*
X82250500Y-74272648D01*
X82218477Y-74070466D01*
X82155220Y-73875781D01*
X82155217Y-73875777D01*
X82155217Y-73875774D01*
X82107077Y-73781296D01*
X82094180Y-73712627D01*
X82107077Y-73668704D01*
X82155217Y-73574225D01*
X82155217Y-73574224D01*
X82155220Y-73574219D01*
X82218477Y-73379534D01*
X82250333Y-73178404D01*
X82280261Y-73115273D01*
X82339572Y-73078341D01*
X82353391Y-73075335D01*
X82554534Y-73043477D01*
X82749219Y-72980220D01*
X82843705Y-72932076D01*
X82912373Y-72919180D01*
X82956294Y-72932076D01*
X82991430Y-72949979D01*
X83050774Y-72980217D01*
X83050777Y-72980217D01*
X83050781Y-72980220D01*
X83185245Y-73023910D01*
X83245465Y-73043477D01*
X83346557Y-73059488D01*
X83447648Y-73075500D01*
X83447649Y-73075500D01*
X83652351Y-73075500D01*
X83652352Y-73075500D01*
X83854534Y-73043477D01*
X84049219Y-72980220D01*
X84143705Y-72932076D01*
X84212373Y-72919180D01*
X84256294Y-72932076D01*
X84291430Y-72949979D01*
X84350774Y-72980217D01*
X84350777Y-72980217D01*
X84350781Y-72980220D01*
X84485245Y-73023910D01*
X84545465Y-73043477D01*
X84646557Y-73059488D01*
X84747648Y-73075500D01*
X84747649Y-73075500D01*
X84952351Y-73075500D01*
X84952352Y-73075500D01*
X85154534Y-73043477D01*
X85349219Y-72980220D01*
X85531610Y-72887287D01*
X85624590Y-72819732D01*
X85697213Y-72766971D01*
X85697215Y-72766968D01*
X85697219Y-72766966D01*
X85841966Y-72622219D01*
X85841968Y-72622215D01*
X85841971Y-72622213D01*
X85894732Y-72549590D01*
X85962287Y-72456610D01*
X86055220Y-72274219D01*
X86118477Y-72079534D01*
X86150500Y-71877352D01*
X86150500Y-71672648D01*
X86119021Y-71473898D01*
X86127976Y-71404604D01*
X86172972Y-71351152D01*
X86239723Y-71330513D01*
X86241494Y-71330500D01*
X90226000Y-71330500D01*
X90293039Y-71350185D01*
G37*
G04 #@! TD.AperFunction*
G04 #@! TD*
G04 #@! TA.AperFunction,Conductor*
G04 #@! TO.N,GND*
G36*
X118412539Y-71350185D02*
G01*
X118458294Y-71402989D01*
X118469500Y-71454500D01*
X118469500Y-91005292D01*
X118449815Y-91072331D01*
X118397011Y-91118086D01*
X118327853Y-91128030D01*
X118283500Y-91112679D01*
X118226428Y-91079728D01*
X118226413Y-91079721D01*
X117956896Y-90968084D01*
X117816001Y-90930332D01*
X117675105Y-90892579D01*
X117675099Y-90892578D01*
X117675094Y-90892577D01*
X117385876Y-90854501D01*
X117385873Y-90854500D01*
X117385867Y-90854500D01*
X117094133Y-90854500D01*
X117094127Y-90854500D01*
X117094123Y-90854501D01*
X116804905Y-90892577D01*
X116804898Y-90892578D01*
X116804895Y-90892579D01*
X116745342Y-90908536D01*
X116523103Y-90968084D01*
X116253584Y-91079722D01*
X116253572Y-91079728D01*
X116185999Y-91118741D01*
X116118099Y-91135212D01*
X116052072Y-91112360D01*
X116008882Y-91057438D01*
X116000000Y-91011353D01*
X116000000Y-90450000D01*
X116007712Y-87291713D01*
X116027561Y-87224724D01*
X116080476Y-87179098D01*
X116107526Y-87170400D01*
X116122928Y-87167336D01*
X116122936Y-87167334D01*
X116150560Y-87155890D01*
X116150561Y-87155890D01*
X116008391Y-87013720D01*
X116009355Y-86618840D01*
X116059205Y-86590060D01*
X116115060Y-86534205D01*
X116154556Y-86465796D01*
X116175000Y-86389496D01*
X116175000Y-86349999D01*
X116405330Y-86349999D01*
X116405330Y-86350001D01*
X116680890Y-86625561D01*
X116680890Y-86625560D01*
X116692334Y-86597936D01*
X116692337Y-86597925D01*
X116724999Y-86433722D01*
X116725000Y-86433720D01*
X116725000Y-86266279D01*
X116724999Y-86266277D01*
X116692337Y-86102071D01*
X116692336Y-86102070D01*
X116680890Y-86074438D01*
X116405330Y-86349999D01*
X116175000Y-86349999D01*
X116175000Y-86310504D01*
X116154556Y-86234204D01*
X116115060Y-86165795D01*
X116059205Y-86109940D01*
X116010666Y-86081916D01*
X116011640Y-85683028D01*
X116150561Y-85544108D01*
X116150561Y-85544107D01*
X116122941Y-85532666D01*
X116122927Y-85532662D01*
X116112114Y-85530511D01*
X116050204Y-85498124D01*
X116015632Y-85437407D01*
X116012311Y-85408601D01*
X116016935Y-83515062D01*
X116036783Y-83448075D01*
X116089698Y-83402449D01*
X116158881Y-83392675D01*
X116188387Y-83400808D01*
X116378725Y-83479649D01*
X116378733Y-83479651D01*
X116581579Y-83519999D01*
X116581583Y-83520000D01*
X116788417Y-83520000D01*
X116788420Y-83519999D01*
X116991266Y-83479651D01*
X116991270Y-83479650D01*
X117113635Y-83428964D01*
X116523048Y-82838377D01*
X116530606Y-82842741D01*
X116632339Y-82870000D01*
X116737661Y-82870000D01*
X116839394Y-82842741D01*
X116930606Y-82790080D01*
X117005080Y-82715606D01*
X117057741Y-82624394D01*
X117085000Y-82522661D01*
X117085000Y-82469999D01*
X117215330Y-82469999D01*
X117215330Y-82470001D01*
X117643964Y-82898635D01*
X117694650Y-82776270D01*
X117694651Y-82776266D01*
X117734999Y-82573420D01*
X117735000Y-82573417D01*
X117735000Y-82366583D01*
X117734999Y-82366579D01*
X117694651Y-82163733D01*
X117694650Y-82163729D01*
X117643964Y-82041364D01*
X117215330Y-82469999D01*
X117085000Y-82469999D01*
X117085000Y-82417339D01*
X117057741Y-82315606D01*
X117005080Y-82224394D01*
X116930606Y-82149920D01*
X116839394Y-82097259D01*
X116737661Y-82070000D01*
X116632339Y-82070000D01*
X116530606Y-82097259D01*
X116523046Y-82101623D01*
X117113635Y-81511034D01*
X116991274Y-81460350D01*
X116991266Y-81460348D01*
X116788420Y-81420000D01*
X116581579Y-81420000D01*
X116378733Y-81460348D01*
X116378725Y-81460350D01*
X116193498Y-81537074D01*
X116124028Y-81544543D01*
X116061549Y-81513268D01*
X116025897Y-81453179D01*
X116022045Y-81422216D01*
X116046388Y-71454197D01*
X116066237Y-71387206D01*
X116119152Y-71341580D01*
X116170388Y-71330500D01*
X118345500Y-71330500D01*
X118412539Y-71350185D01*
G37*
G04 #@! TD.AperFunction*
G04 #@! TD*
G04 #@! TA.AperFunction,Conductor*
G04 #@! TO.N,INPUT*
G36*
X109145834Y-80872993D02*
G01*
X109149185Y-80879938D01*
X109280213Y-82026724D01*
X109277748Y-82035333D01*
X109270889Y-82039524D01*
X108642300Y-82165538D01*
X108637700Y-82165538D01*
X108009110Y-82039524D01*
X108001672Y-82034538D01*
X107999786Y-82026726D01*
X108130815Y-80879938D01*
X108135158Y-80872107D01*
X108142439Y-80869566D01*
X109137561Y-80869566D01*
X109145834Y-80872993D01*
G37*
G04 #@! TD.AperFunction*
G04 #@! TD*
G04 #@! TA.AperFunction,Conductor*
G04 #@! TO.N,Gate1*
G36*
X96730152Y-106890165D02*
G01*
X96737623Y-106895103D01*
X96739628Y-106901652D01*
X96739628Y-107898347D01*
X96736201Y-107906620D01*
X96730152Y-107909834D01*
X95322485Y-108182417D01*
X95313712Y-108180625D01*
X95308789Y-108173228D01*
X95154459Y-107402292D01*
X95154459Y-107397707D01*
X95308790Y-106626770D01*
X95313773Y-106619333D01*
X95322485Y-106617582D01*
X96730152Y-106890165D01*
G37*
G04 #@! TD.AperFunction*
G04 #@! TD*
G04 #@! TA.AperFunction,Conductor*
G04 #@! TO.N,Gate1*
G36*
X103426087Y-106579512D02*
G01*
X103431223Y-106586847D01*
X103431272Y-106587082D01*
X103585540Y-107357703D01*
X103585540Y-107362297D01*
X103431149Y-108133532D01*
X103426165Y-108140971D01*
X103417765Y-108142778D01*
X102010160Y-107909621D01*
X102002558Y-107904888D01*
X102000372Y-107898078D01*
X102000372Y-106901390D01*
X102003799Y-106893117D01*
X102009536Y-106889968D01*
X103417268Y-106577956D01*
X103426087Y-106579512D01*
G37*
G04 #@! TD.AperFunction*
G04 #@! TD*
G04 #@! TA.AperFunction,Conductor*
G04 #@! TO.N,Gate2*
G36*
X96640152Y-123330165D02*
G01*
X96647623Y-123335103D01*
X96649628Y-123341652D01*
X96649628Y-124338347D01*
X96646201Y-124346620D01*
X96640152Y-124349834D01*
X95232485Y-124622417D01*
X95223712Y-124620625D01*
X95218789Y-124613228D01*
X95064459Y-123842292D01*
X95064459Y-123837707D01*
X95218790Y-123066770D01*
X95223773Y-123059333D01*
X95232485Y-123057582D01*
X96640152Y-123330165D01*
G37*
G04 #@! TD.AperFunction*
G04 #@! TD*
G04 #@! TA.AperFunction,Conductor*
G04 #@! TO.N,Gate2*
G36*
X103336087Y-123019512D02*
G01*
X103341223Y-123026847D01*
X103341272Y-123027082D01*
X103495540Y-123797703D01*
X103495540Y-123802297D01*
X103341149Y-124573532D01*
X103336165Y-124580971D01*
X103327765Y-124582778D01*
X101920160Y-124349621D01*
X101912558Y-124344888D01*
X101910372Y-124338078D01*
X101910372Y-123341390D01*
X101913799Y-123333117D01*
X101919536Y-123329968D01*
X103327268Y-123017956D01*
X103336087Y-123019512D01*
G37*
G04 #@! TD.AperFunction*
G04 #@! TD*
G04 #@! TA.AperFunction,Conductor*
G04 #@! TO.N,Gate3*
G36*
X103296087Y-139419512D02*
G01*
X103301223Y-139426847D01*
X103301272Y-139427082D01*
X103455540Y-140197703D01*
X103455540Y-140202297D01*
X103301149Y-140973532D01*
X103296165Y-140980971D01*
X103287765Y-140982778D01*
X101880160Y-140749621D01*
X101872558Y-140744888D01*
X101870372Y-140738078D01*
X101870372Y-139741390D01*
X101873799Y-139733117D01*
X101879536Y-139729968D01*
X103287268Y-139417956D01*
X103296087Y-139419512D01*
G37*
G04 #@! TD.AperFunction*
G04 #@! TD*
G04 #@! TA.AperFunction,Conductor*
G04 #@! TO.N,Gate3*
G36*
X96600152Y-139730165D02*
G01*
X96607623Y-139735103D01*
X96609628Y-139741652D01*
X96609628Y-140738347D01*
X96606201Y-140746620D01*
X96600152Y-140749834D01*
X95192485Y-141022417D01*
X95183712Y-141020625D01*
X95178789Y-141013228D01*
X95024459Y-140242292D01*
X95024459Y-140237707D01*
X95178790Y-139466770D01*
X95183773Y-139459333D01*
X95192485Y-139457582D01*
X96600152Y-139730165D01*
G37*
G04 #@! TD.AperFunction*
G04 #@! TD*
G04 #@! TA.AperFunction,Conductor*
G04 #@! TO.N,NC*
G36*
X106605834Y-80872993D02*
G01*
X106609185Y-80879938D01*
X106740213Y-82026724D01*
X106737748Y-82035333D01*
X106730889Y-82039524D01*
X106102300Y-82165538D01*
X106097700Y-82165538D01*
X105469110Y-82039524D01*
X105461672Y-82034538D01*
X105459786Y-82026726D01*
X105590815Y-80879938D01*
X105595158Y-80872107D01*
X105602439Y-80869566D01*
X106597561Y-80869566D01*
X106605834Y-80872993D01*
G37*
G04 #@! TD.AperFunction*
G04 #@! TD*
M02*
