G04 #@! TF.GenerationSoftware,KiCad,Pcbnew,9.0.3*
G04 #@! TF.CreationDate,2025-10-12T17:28:26-05:00*
G04 #@! TF.ProjectId,OSO-SWAT-C1,4f534f2d-5357-4415-942d-43312e6b6963,rev?*
G04 #@! TF.SameCoordinates,Original*
G04 #@! TF.FileFunction,Legend,Top*
G04 #@! TF.FilePolarity,Positive*
%FSLAX46Y46*%
G04 Gerber Fmt 4.6, Leading zero omitted, Abs format (unit mm)*
G04 Created by KiCad (PCBNEW 9.0.3) date 2025-10-12 17:28:26*
%MOMM*%
%LPD*%
G01*
G04 APERTURE LIST*
G04 Aperture macros list*
%AMRoundRect*
0 Rectangle with rounded corners*
0 $1 Rounding radius*
0 $2 $3 $4 $5 $6 $7 $8 $9 X,Y pos of 4 corners*
0 Add a 4 corners polygon primitive as box body*
4,1,4,$2,$3,$4,$5,$6,$7,$8,$9,$2,$3,0*
0 Add four circle primitives for the rounded corners*
1,1,$1+$1,$2,$3*
1,1,$1+$1,$4,$5*
1,1,$1+$1,$6,$7*
1,1,$1+$1,$8,$9*
0 Add four rect primitives between the rounded corners*
20,1,$1+$1,$2,$3,$4,$5,0*
20,1,$1+$1,$4,$5,$6,$7,0*
20,1,$1+$1,$6,$7,$8,$9,0*
20,1,$1+$1,$8,$9,$2,$3,0*%
G04 Aperture macros list end*
%ADD10C,0.150000*%
%ADD11C,0.120000*%
%ADD12C,0.127000*%
%ADD13C,0.200000*%
%ADD14C,1.600000*%
%ADD15O,2.000000X1.700000*%
%ADD16RoundRect,0.250000X0.750000X-0.600000X0.750000X0.600000X-0.750000X0.600000X-0.750000X-0.600000X0*%
%ADD17C,1.200000*%
%ADD18R,4.500000X2.500000*%
%ADD19O,4.500000X2.500000*%
%ADD20RoundRect,0.250000X-0.650000X-1.550000X0.650000X-1.550000X0.650000X1.550000X-0.650000X1.550000X0*%
%ADD21O,1.800000X3.600000*%
%ADD22RoundRect,0.250001X1.149999X1.149999X-1.149999X1.149999X-1.149999X-1.149999X1.149999X-1.149999X0*%
%ADD23C,2.800000*%
%ADD24RoundRect,0.250000X0.750000X1.550000X-0.750000X1.550000X-0.750000X-1.550000X0.750000X-1.550000X0*%
%ADD25O,2.000000X3.600000*%
%ADD26RoundRect,0.102000X-0.654000X0.654000X-0.654000X-0.654000X0.654000X-0.654000X0.654000X0.654000X0*%
%ADD27C,1.512000*%
G04 APERTURE END LIST*
D10*
X110736666Y-152554819D02*
X110403333Y-152078628D01*
X110165238Y-152554819D02*
X110165238Y-151554819D01*
X110165238Y-151554819D02*
X110546190Y-151554819D01*
X110546190Y-151554819D02*
X110641428Y-151602438D01*
X110641428Y-151602438D02*
X110689047Y-151650057D01*
X110689047Y-151650057D02*
X110736666Y-151745295D01*
X110736666Y-151745295D02*
X110736666Y-151888152D01*
X110736666Y-151888152D02*
X110689047Y-151983390D01*
X110689047Y-151983390D02*
X110641428Y-152031009D01*
X110641428Y-152031009D02*
X110546190Y-152078628D01*
X110546190Y-152078628D02*
X110165238Y-152078628D01*
X111165238Y-152031009D02*
X111498571Y-152031009D01*
X111641428Y-152554819D02*
X111165238Y-152554819D01*
X111165238Y-152554819D02*
X111165238Y-151554819D01*
X111165238Y-151554819D02*
X111641428Y-151554819D01*
X112403333Y-152031009D02*
X112070000Y-152031009D01*
X112070000Y-152554819D02*
X112070000Y-151554819D01*
X112070000Y-151554819D02*
X112546190Y-151554819D01*
X113070000Y-151554819D02*
X113070000Y-151792914D01*
X112831905Y-151697676D02*
X113070000Y-151792914D01*
X113070000Y-151792914D02*
X113308095Y-151697676D01*
X112927143Y-151983390D02*
X113070000Y-151792914D01*
X113070000Y-151792914D02*
X113212857Y-151983390D01*
X113831905Y-151554819D02*
X113831905Y-151792914D01*
X113593810Y-151697676D02*
X113831905Y-151792914D01*
X113831905Y-151792914D02*
X114070000Y-151697676D01*
X113689048Y-151983390D02*
X113831905Y-151792914D01*
X113831905Y-151792914D02*
X113974762Y-151983390D01*
X113384819Y-162053333D02*
X112908628Y-162386666D01*
X113384819Y-162624761D02*
X112384819Y-162624761D01*
X112384819Y-162624761D02*
X112384819Y-162243809D01*
X112384819Y-162243809D02*
X112432438Y-162148571D01*
X112432438Y-162148571D02*
X112480057Y-162100952D01*
X112480057Y-162100952D02*
X112575295Y-162053333D01*
X112575295Y-162053333D02*
X112718152Y-162053333D01*
X112718152Y-162053333D02*
X112813390Y-162100952D01*
X112813390Y-162100952D02*
X112861009Y-162148571D01*
X112861009Y-162148571D02*
X112908628Y-162243809D01*
X112908628Y-162243809D02*
X112908628Y-162624761D01*
X112861009Y-161624761D02*
X112861009Y-161291428D01*
X113384819Y-161148571D02*
X113384819Y-161624761D01*
X113384819Y-161624761D02*
X112384819Y-161624761D01*
X112384819Y-161624761D02*
X112384819Y-161148571D01*
X112861009Y-160386666D02*
X112861009Y-160719999D01*
X113384819Y-160719999D02*
X112384819Y-160719999D01*
X112384819Y-160719999D02*
X112384819Y-160243809D01*
X112384819Y-159719999D02*
X112622914Y-159719999D01*
X112527676Y-159958094D02*
X112622914Y-159719999D01*
X112622914Y-159719999D02*
X112527676Y-159481904D01*
X112813390Y-159862856D02*
X112622914Y-159719999D01*
X112622914Y-159719999D02*
X112813390Y-159577142D01*
X112384819Y-158958094D02*
X112622914Y-158958094D01*
X112527676Y-159196189D02*
X112622914Y-158958094D01*
X112622914Y-158958094D02*
X112527676Y-158719999D01*
X112813390Y-159100951D02*
X112622914Y-158958094D01*
X112622914Y-158958094D02*
X112813390Y-158815237D01*
X114101666Y-80424819D02*
X113768333Y-79948628D01*
X113530238Y-80424819D02*
X113530238Y-79424819D01*
X113530238Y-79424819D02*
X113911190Y-79424819D01*
X113911190Y-79424819D02*
X114006428Y-79472438D01*
X114006428Y-79472438D02*
X114054047Y-79520057D01*
X114054047Y-79520057D02*
X114101666Y-79615295D01*
X114101666Y-79615295D02*
X114101666Y-79758152D01*
X114101666Y-79758152D02*
X114054047Y-79853390D01*
X114054047Y-79853390D02*
X114006428Y-79901009D01*
X114006428Y-79901009D02*
X113911190Y-79948628D01*
X113911190Y-79948628D02*
X113530238Y-79948628D01*
X114530238Y-79901009D02*
X114863571Y-79901009D01*
X115006428Y-80424819D02*
X114530238Y-80424819D01*
X114530238Y-80424819D02*
X114530238Y-79424819D01*
X114530238Y-79424819D02*
X115006428Y-79424819D01*
X115768333Y-79901009D02*
X115435000Y-79901009D01*
X115435000Y-80424819D02*
X115435000Y-79424819D01*
X115435000Y-79424819D02*
X115911190Y-79424819D01*
X116435000Y-79424819D02*
X116435000Y-79662914D01*
X116196905Y-79567676D02*
X116435000Y-79662914D01*
X116435000Y-79662914D02*
X116673095Y-79567676D01*
X116292143Y-79853390D02*
X116435000Y-79662914D01*
X116435000Y-79662914D02*
X116577857Y-79853390D01*
X117196905Y-79424819D02*
X117196905Y-79662914D01*
X116958810Y-79567676D02*
X117196905Y-79662914D01*
X117196905Y-79662914D02*
X117435000Y-79567676D01*
X117054048Y-79853390D02*
X117196905Y-79662914D01*
X117196905Y-79662914D02*
X117339762Y-79853390D01*
X113791666Y-83554819D02*
X113458333Y-83078628D01*
X113220238Y-83554819D02*
X113220238Y-82554819D01*
X113220238Y-82554819D02*
X113601190Y-82554819D01*
X113601190Y-82554819D02*
X113696428Y-82602438D01*
X113696428Y-82602438D02*
X113744047Y-82650057D01*
X113744047Y-82650057D02*
X113791666Y-82745295D01*
X113791666Y-82745295D02*
X113791666Y-82888152D01*
X113791666Y-82888152D02*
X113744047Y-82983390D01*
X113744047Y-82983390D02*
X113696428Y-83031009D01*
X113696428Y-83031009D02*
X113601190Y-83078628D01*
X113601190Y-83078628D02*
X113220238Y-83078628D01*
X114220238Y-83031009D02*
X114553571Y-83031009D01*
X114696428Y-83554819D02*
X114220238Y-83554819D01*
X114220238Y-83554819D02*
X114220238Y-82554819D01*
X114220238Y-82554819D02*
X114696428Y-82554819D01*
X115458333Y-83031009D02*
X115125000Y-83031009D01*
X115125000Y-83554819D02*
X115125000Y-82554819D01*
X115125000Y-82554819D02*
X115601190Y-82554819D01*
X116125000Y-82554819D02*
X116125000Y-82792914D01*
X115886905Y-82697676D02*
X116125000Y-82792914D01*
X116125000Y-82792914D02*
X116363095Y-82697676D01*
X115982143Y-82983390D02*
X116125000Y-82792914D01*
X116125000Y-82792914D02*
X116267857Y-82983390D01*
X116886905Y-82554819D02*
X116886905Y-82792914D01*
X116648810Y-82697676D02*
X116886905Y-82792914D01*
X116886905Y-82792914D02*
X117125000Y-82697676D01*
X116744048Y-82983390D02*
X116886905Y-82792914D01*
X116886905Y-82792914D02*
X117029762Y-82983390D01*
X96239819Y-103263333D02*
X95763628Y-103596666D01*
X96239819Y-103834761D02*
X95239819Y-103834761D01*
X95239819Y-103834761D02*
X95239819Y-103453809D01*
X95239819Y-103453809D02*
X95287438Y-103358571D01*
X95287438Y-103358571D02*
X95335057Y-103310952D01*
X95335057Y-103310952D02*
X95430295Y-103263333D01*
X95430295Y-103263333D02*
X95573152Y-103263333D01*
X95573152Y-103263333D02*
X95668390Y-103310952D01*
X95668390Y-103310952D02*
X95716009Y-103358571D01*
X95716009Y-103358571D02*
X95763628Y-103453809D01*
X95763628Y-103453809D02*
X95763628Y-103834761D01*
X95716009Y-102834761D02*
X95716009Y-102501428D01*
X96239819Y-102358571D02*
X96239819Y-102834761D01*
X96239819Y-102834761D02*
X95239819Y-102834761D01*
X95239819Y-102834761D02*
X95239819Y-102358571D01*
X95716009Y-101596666D02*
X95716009Y-101929999D01*
X96239819Y-101929999D02*
X95239819Y-101929999D01*
X95239819Y-101929999D02*
X95239819Y-101453809D01*
X95239819Y-100929999D02*
X95477914Y-100929999D01*
X95382676Y-101168094D02*
X95477914Y-100929999D01*
X95477914Y-100929999D02*
X95382676Y-100691904D01*
X95668390Y-101072856D02*
X95477914Y-100929999D01*
X95477914Y-100929999D02*
X95668390Y-100787142D01*
X95239819Y-100168094D02*
X95477914Y-100168094D01*
X95382676Y-100406189D02*
X95477914Y-100168094D01*
X95477914Y-100168094D02*
X95382676Y-99929999D01*
X95668390Y-100310951D02*
X95477914Y-100168094D01*
X95477914Y-100168094D02*
X95668390Y-100025237D01*
X88651666Y-121924819D02*
X88318333Y-121448628D01*
X88080238Y-121924819D02*
X88080238Y-120924819D01*
X88080238Y-120924819D02*
X88461190Y-120924819D01*
X88461190Y-120924819D02*
X88556428Y-120972438D01*
X88556428Y-120972438D02*
X88604047Y-121020057D01*
X88604047Y-121020057D02*
X88651666Y-121115295D01*
X88651666Y-121115295D02*
X88651666Y-121258152D01*
X88651666Y-121258152D02*
X88604047Y-121353390D01*
X88604047Y-121353390D02*
X88556428Y-121401009D01*
X88556428Y-121401009D02*
X88461190Y-121448628D01*
X88461190Y-121448628D02*
X88080238Y-121448628D01*
X89080238Y-121401009D02*
X89413571Y-121401009D01*
X89556428Y-121924819D02*
X89080238Y-121924819D01*
X89080238Y-121924819D02*
X89080238Y-120924819D01*
X89080238Y-120924819D02*
X89556428Y-120924819D01*
X90318333Y-121401009D02*
X89985000Y-121401009D01*
X89985000Y-121924819D02*
X89985000Y-120924819D01*
X89985000Y-120924819D02*
X90461190Y-120924819D01*
X90985000Y-120924819D02*
X90985000Y-121162914D01*
X90746905Y-121067676D02*
X90985000Y-121162914D01*
X90985000Y-121162914D02*
X91223095Y-121067676D01*
X90842143Y-121353390D02*
X90985000Y-121162914D01*
X90985000Y-121162914D02*
X91127857Y-121353390D01*
X91746905Y-120924819D02*
X91746905Y-121162914D01*
X91508810Y-121067676D02*
X91746905Y-121162914D01*
X91746905Y-121162914D02*
X91985000Y-121067676D01*
X91604048Y-121353390D02*
X91746905Y-121162914D01*
X91746905Y-121162914D02*
X91889762Y-121353390D01*
X107201666Y-138284819D02*
X106868333Y-137808628D01*
X106630238Y-138284819D02*
X106630238Y-137284819D01*
X106630238Y-137284819D02*
X107011190Y-137284819D01*
X107011190Y-137284819D02*
X107106428Y-137332438D01*
X107106428Y-137332438D02*
X107154047Y-137380057D01*
X107154047Y-137380057D02*
X107201666Y-137475295D01*
X107201666Y-137475295D02*
X107201666Y-137618152D01*
X107201666Y-137618152D02*
X107154047Y-137713390D01*
X107154047Y-137713390D02*
X107106428Y-137761009D01*
X107106428Y-137761009D02*
X107011190Y-137808628D01*
X107011190Y-137808628D02*
X106630238Y-137808628D01*
X107630238Y-137761009D02*
X107963571Y-137761009D01*
X108106428Y-138284819D02*
X107630238Y-138284819D01*
X107630238Y-138284819D02*
X107630238Y-137284819D01*
X107630238Y-137284819D02*
X108106428Y-137284819D01*
X108868333Y-137761009D02*
X108535000Y-137761009D01*
X108535000Y-138284819D02*
X108535000Y-137284819D01*
X108535000Y-137284819D02*
X109011190Y-137284819D01*
X109535000Y-137284819D02*
X109535000Y-137522914D01*
X109296905Y-137427676D02*
X109535000Y-137522914D01*
X109535000Y-137522914D02*
X109773095Y-137427676D01*
X109392143Y-137713390D02*
X109535000Y-137522914D01*
X109535000Y-137522914D02*
X109677857Y-137713390D01*
X110296905Y-137284819D02*
X110296905Y-137522914D01*
X110058810Y-137427676D02*
X110296905Y-137522914D01*
X110296905Y-137522914D02*
X110535000Y-137427676D01*
X110154048Y-137713390D02*
X110296905Y-137522914D01*
X110296905Y-137522914D02*
X110439762Y-137713390D01*
X88741666Y-105484819D02*
X88408333Y-105008628D01*
X88170238Y-105484819D02*
X88170238Y-104484819D01*
X88170238Y-104484819D02*
X88551190Y-104484819D01*
X88551190Y-104484819D02*
X88646428Y-104532438D01*
X88646428Y-104532438D02*
X88694047Y-104580057D01*
X88694047Y-104580057D02*
X88741666Y-104675295D01*
X88741666Y-104675295D02*
X88741666Y-104818152D01*
X88741666Y-104818152D02*
X88694047Y-104913390D01*
X88694047Y-104913390D02*
X88646428Y-104961009D01*
X88646428Y-104961009D02*
X88551190Y-105008628D01*
X88551190Y-105008628D02*
X88170238Y-105008628D01*
X89170238Y-104961009D02*
X89503571Y-104961009D01*
X89646428Y-105484819D02*
X89170238Y-105484819D01*
X89170238Y-105484819D02*
X89170238Y-104484819D01*
X89170238Y-104484819D02*
X89646428Y-104484819D01*
X90408333Y-104961009D02*
X90075000Y-104961009D01*
X90075000Y-105484819D02*
X90075000Y-104484819D01*
X90075000Y-104484819D02*
X90551190Y-104484819D01*
X91075000Y-104484819D02*
X91075000Y-104722914D01*
X90836905Y-104627676D02*
X91075000Y-104722914D01*
X91075000Y-104722914D02*
X91313095Y-104627676D01*
X90932143Y-104913390D02*
X91075000Y-104722914D01*
X91075000Y-104722914D02*
X91217857Y-104913390D01*
X91836905Y-104484819D02*
X91836905Y-104722914D01*
X91598810Y-104627676D02*
X91836905Y-104722914D01*
X91836905Y-104722914D02*
X92075000Y-104627676D01*
X91694048Y-104913390D02*
X91836905Y-104722914D01*
X91836905Y-104722914D02*
X91979762Y-104913390D01*
X97714166Y-156392319D02*
X97380833Y-155916128D01*
X97142738Y-156392319D02*
X97142738Y-155392319D01*
X97142738Y-155392319D02*
X97523690Y-155392319D01*
X97523690Y-155392319D02*
X97618928Y-155439938D01*
X97618928Y-155439938D02*
X97666547Y-155487557D01*
X97666547Y-155487557D02*
X97714166Y-155582795D01*
X97714166Y-155582795D02*
X97714166Y-155725652D01*
X97714166Y-155725652D02*
X97666547Y-155820890D01*
X97666547Y-155820890D02*
X97618928Y-155868509D01*
X97618928Y-155868509D02*
X97523690Y-155916128D01*
X97523690Y-155916128D02*
X97142738Y-155916128D01*
X98142738Y-155868509D02*
X98476071Y-155868509D01*
X98618928Y-156392319D02*
X98142738Y-156392319D01*
X98142738Y-156392319D02*
X98142738Y-155392319D01*
X98142738Y-155392319D02*
X98618928Y-155392319D01*
X99380833Y-155868509D02*
X99047500Y-155868509D01*
X99047500Y-156392319D02*
X99047500Y-155392319D01*
X99047500Y-155392319D02*
X99523690Y-155392319D01*
X100047500Y-155392319D02*
X100047500Y-155630414D01*
X99809405Y-155535176D02*
X100047500Y-155630414D01*
X100047500Y-155630414D02*
X100285595Y-155535176D01*
X99904643Y-155820890D02*
X100047500Y-155630414D01*
X100047500Y-155630414D02*
X100190357Y-155820890D01*
X100809405Y-155392319D02*
X100809405Y-155630414D01*
X100571310Y-155535176D02*
X100809405Y-155630414D01*
X100809405Y-155630414D02*
X101047500Y-155535176D01*
X100666548Y-155820890D02*
X100809405Y-155630414D01*
X100809405Y-155630414D02*
X100952262Y-155820890D01*
X90186666Y-92219819D02*
X89853333Y-91743628D01*
X89615238Y-92219819D02*
X89615238Y-91219819D01*
X89615238Y-91219819D02*
X89996190Y-91219819D01*
X89996190Y-91219819D02*
X90091428Y-91267438D01*
X90091428Y-91267438D02*
X90139047Y-91315057D01*
X90139047Y-91315057D02*
X90186666Y-91410295D01*
X90186666Y-91410295D02*
X90186666Y-91553152D01*
X90186666Y-91553152D02*
X90139047Y-91648390D01*
X90139047Y-91648390D02*
X90091428Y-91696009D01*
X90091428Y-91696009D02*
X89996190Y-91743628D01*
X89996190Y-91743628D02*
X89615238Y-91743628D01*
X90615238Y-91696009D02*
X90948571Y-91696009D01*
X91091428Y-92219819D02*
X90615238Y-92219819D01*
X90615238Y-92219819D02*
X90615238Y-91219819D01*
X90615238Y-91219819D02*
X91091428Y-91219819D01*
X91853333Y-91696009D02*
X91520000Y-91696009D01*
X91520000Y-92219819D02*
X91520000Y-91219819D01*
X91520000Y-91219819D02*
X91996190Y-91219819D01*
X92520000Y-91219819D02*
X92520000Y-91457914D01*
X92281905Y-91362676D02*
X92520000Y-91457914D01*
X92520000Y-91457914D02*
X92758095Y-91362676D01*
X92377143Y-91648390D02*
X92520000Y-91457914D01*
X92520000Y-91457914D02*
X92662857Y-91648390D01*
X93281905Y-91219819D02*
X93281905Y-91457914D01*
X93043810Y-91362676D02*
X93281905Y-91457914D01*
X93281905Y-91457914D02*
X93520000Y-91362676D01*
X93139048Y-91648390D02*
X93281905Y-91457914D01*
X93281905Y-91457914D02*
X93424762Y-91648390D01*
X96338095Y-88734819D02*
X96338095Y-87734819D01*
X96909523Y-88734819D02*
X96480952Y-88163390D01*
X96909523Y-87734819D02*
X96338095Y-88306247D01*
X96239819Y-119663333D02*
X95763628Y-119996666D01*
X96239819Y-120234761D02*
X95239819Y-120234761D01*
X95239819Y-120234761D02*
X95239819Y-119853809D01*
X95239819Y-119853809D02*
X95287438Y-119758571D01*
X95287438Y-119758571D02*
X95335057Y-119710952D01*
X95335057Y-119710952D02*
X95430295Y-119663333D01*
X95430295Y-119663333D02*
X95573152Y-119663333D01*
X95573152Y-119663333D02*
X95668390Y-119710952D01*
X95668390Y-119710952D02*
X95716009Y-119758571D01*
X95716009Y-119758571D02*
X95763628Y-119853809D01*
X95763628Y-119853809D02*
X95763628Y-120234761D01*
X95716009Y-119234761D02*
X95716009Y-118901428D01*
X96239819Y-118758571D02*
X96239819Y-119234761D01*
X96239819Y-119234761D02*
X95239819Y-119234761D01*
X95239819Y-119234761D02*
X95239819Y-118758571D01*
X95716009Y-117996666D02*
X95716009Y-118329999D01*
X96239819Y-118329999D02*
X95239819Y-118329999D01*
X95239819Y-118329999D02*
X95239819Y-117853809D01*
X95239819Y-117329999D02*
X95477914Y-117329999D01*
X95382676Y-117568094D02*
X95477914Y-117329999D01*
X95477914Y-117329999D02*
X95382676Y-117091904D01*
X95668390Y-117472856D02*
X95477914Y-117329999D01*
X95477914Y-117329999D02*
X95668390Y-117187142D01*
X95239819Y-116568094D02*
X95477914Y-116568094D01*
X95382676Y-116806189D02*
X95477914Y-116568094D01*
X95477914Y-116568094D02*
X95382676Y-116329999D01*
X95668390Y-116710951D02*
X95477914Y-116568094D01*
X95477914Y-116568094D02*
X95668390Y-116425237D01*
X96239819Y-136063333D02*
X95763628Y-136396666D01*
X96239819Y-136634761D02*
X95239819Y-136634761D01*
X95239819Y-136634761D02*
X95239819Y-136253809D01*
X95239819Y-136253809D02*
X95287438Y-136158571D01*
X95287438Y-136158571D02*
X95335057Y-136110952D01*
X95335057Y-136110952D02*
X95430295Y-136063333D01*
X95430295Y-136063333D02*
X95573152Y-136063333D01*
X95573152Y-136063333D02*
X95668390Y-136110952D01*
X95668390Y-136110952D02*
X95716009Y-136158571D01*
X95716009Y-136158571D02*
X95763628Y-136253809D01*
X95763628Y-136253809D02*
X95763628Y-136634761D01*
X95716009Y-135634761D02*
X95716009Y-135301428D01*
X96239819Y-135158571D02*
X96239819Y-135634761D01*
X96239819Y-135634761D02*
X95239819Y-135634761D01*
X95239819Y-135634761D02*
X95239819Y-135158571D01*
X95716009Y-134396666D02*
X95716009Y-134729999D01*
X96239819Y-134729999D02*
X95239819Y-134729999D01*
X95239819Y-134729999D02*
X95239819Y-134253809D01*
X95239819Y-133729999D02*
X95477914Y-133729999D01*
X95382676Y-133968094D02*
X95477914Y-133729999D01*
X95477914Y-133729999D02*
X95382676Y-133491904D01*
X95668390Y-133872856D02*
X95477914Y-133729999D01*
X95477914Y-133729999D02*
X95668390Y-133587142D01*
X95239819Y-132968094D02*
X95477914Y-132968094D01*
X95382676Y-133206189D02*
X95477914Y-132968094D01*
X95477914Y-132968094D02*
X95382676Y-132729999D01*
X95668390Y-133110951D02*
X95477914Y-132968094D01*
X95477914Y-132968094D02*
X95668390Y-132825237D01*
X106096666Y-82024819D02*
X105763333Y-81548628D01*
X105525238Y-82024819D02*
X105525238Y-81024819D01*
X105525238Y-81024819D02*
X105906190Y-81024819D01*
X105906190Y-81024819D02*
X106001428Y-81072438D01*
X106001428Y-81072438D02*
X106049047Y-81120057D01*
X106049047Y-81120057D02*
X106096666Y-81215295D01*
X106096666Y-81215295D02*
X106096666Y-81358152D01*
X106096666Y-81358152D02*
X106049047Y-81453390D01*
X106049047Y-81453390D02*
X106001428Y-81501009D01*
X106001428Y-81501009D02*
X105906190Y-81548628D01*
X105906190Y-81548628D02*
X105525238Y-81548628D01*
X106525238Y-81501009D02*
X106858571Y-81501009D01*
X107001428Y-82024819D02*
X106525238Y-82024819D01*
X106525238Y-82024819D02*
X106525238Y-81024819D01*
X106525238Y-81024819D02*
X107001428Y-81024819D01*
X107763333Y-81501009D02*
X107430000Y-81501009D01*
X107430000Y-82024819D02*
X107430000Y-81024819D01*
X107430000Y-81024819D02*
X107906190Y-81024819D01*
X108430000Y-81024819D02*
X108430000Y-81262914D01*
X108191905Y-81167676D02*
X108430000Y-81262914D01*
X108430000Y-81262914D02*
X108668095Y-81167676D01*
X108287143Y-81453390D02*
X108430000Y-81262914D01*
X108430000Y-81262914D02*
X108572857Y-81453390D01*
X109191905Y-81024819D02*
X109191905Y-81262914D01*
X108953810Y-81167676D02*
X109191905Y-81262914D01*
X109191905Y-81262914D02*
X109430000Y-81167676D01*
X109049048Y-81453390D02*
X109191905Y-81262914D01*
X109191905Y-81262914D02*
X109334762Y-81453390D01*
X107331666Y-105444819D02*
X106998333Y-104968628D01*
X106760238Y-105444819D02*
X106760238Y-104444819D01*
X106760238Y-104444819D02*
X107141190Y-104444819D01*
X107141190Y-104444819D02*
X107236428Y-104492438D01*
X107236428Y-104492438D02*
X107284047Y-104540057D01*
X107284047Y-104540057D02*
X107331666Y-104635295D01*
X107331666Y-104635295D02*
X107331666Y-104778152D01*
X107331666Y-104778152D02*
X107284047Y-104873390D01*
X107284047Y-104873390D02*
X107236428Y-104921009D01*
X107236428Y-104921009D02*
X107141190Y-104968628D01*
X107141190Y-104968628D02*
X106760238Y-104968628D01*
X107760238Y-104921009D02*
X108093571Y-104921009D01*
X108236428Y-105444819D02*
X107760238Y-105444819D01*
X107760238Y-105444819D02*
X107760238Y-104444819D01*
X107760238Y-104444819D02*
X108236428Y-104444819D01*
X108998333Y-104921009D02*
X108665000Y-104921009D01*
X108665000Y-105444819D02*
X108665000Y-104444819D01*
X108665000Y-104444819D02*
X109141190Y-104444819D01*
X109665000Y-104444819D02*
X109665000Y-104682914D01*
X109426905Y-104587676D02*
X109665000Y-104682914D01*
X109665000Y-104682914D02*
X109903095Y-104587676D01*
X109522143Y-104873390D02*
X109665000Y-104682914D01*
X109665000Y-104682914D02*
X109807857Y-104873390D01*
X110426905Y-104444819D02*
X110426905Y-104682914D01*
X110188810Y-104587676D02*
X110426905Y-104682914D01*
X110426905Y-104682914D02*
X110665000Y-104587676D01*
X110284048Y-104873390D02*
X110426905Y-104682914D01*
X110426905Y-104682914D02*
X110569762Y-104873390D01*
X107241666Y-121884819D02*
X106908333Y-121408628D01*
X106670238Y-121884819D02*
X106670238Y-120884819D01*
X106670238Y-120884819D02*
X107051190Y-120884819D01*
X107051190Y-120884819D02*
X107146428Y-120932438D01*
X107146428Y-120932438D02*
X107194047Y-120980057D01*
X107194047Y-120980057D02*
X107241666Y-121075295D01*
X107241666Y-121075295D02*
X107241666Y-121218152D01*
X107241666Y-121218152D02*
X107194047Y-121313390D01*
X107194047Y-121313390D02*
X107146428Y-121361009D01*
X107146428Y-121361009D02*
X107051190Y-121408628D01*
X107051190Y-121408628D02*
X106670238Y-121408628D01*
X107670238Y-121361009D02*
X108003571Y-121361009D01*
X108146428Y-121884819D02*
X107670238Y-121884819D01*
X107670238Y-121884819D02*
X107670238Y-120884819D01*
X107670238Y-120884819D02*
X108146428Y-120884819D01*
X108908333Y-121361009D02*
X108575000Y-121361009D01*
X108575000Y-121884819D02*
X108575000Y-120884819D01*
X108575000Y-120884819D02*
X109051190Y-120884819D01*
X109575000Y-120884819D02*
X109575000Y-121122914D01*
X109336905Y-121027676D02*
X109575000Y-121122914D01*
X109575000Y-121122914D02*
X109813095Y-121027676D01*
X109432143Y-121313390D02*
X109575000Y-121122914D01*
X109575000Y-121122914D02*
X109717857Y-121313390D01*
X110336905Y-120884819D02*
X110336905Y-121122914D01*
X110098810Y-121027676D02*
X110336905Y-121122914D01*
X110336905Y-121122914D02*
X110575000Y-121027676D01*
X110194048Y-121313390D02*
X110336905Y-121122914D01*
X110336905Y-121122914D02*
X110479762Y-121313390D01*
X97816666Y-143584819D02*
X97483333Y-143108628D01*
X97245238Y-143584819D02*
X97245238Y-142584819D01*
X97245238Y-142584819D02*
X97626190Y-142584819D01*
X97626190Y-142584819D02*
X97721428Y-142632438D01*
X97721428Y-142632438D02*
X97769047Y-142680057D01*
X97769047Y-142680057D02*
X97816666Y-142775295D01*
X97816666Y-142775295D02*
X97816666Y-142918152D01*
X97816666Y-142918152D02*
X97769047Y-143013390D01*
X97769047Y-143013390D02*
X97721428Y-143061009D01*
X97721428Y-143061009D02*
X97626190Y-143108628D01*
X97626190Y-143108628D02*
X97245238Y-143108628D01*
X98245238Y-143061009D02*
X98578571Y-143061009D01*
X98721428Y-143584819D02*
X98245238Y-143584819D01*
X98245238Y-143584819D02*
X98245238Y-142584819D01*
X98245238Y-142584819D02*
X98721428Y-142584819D01*
X99483333Y-143061009D02*
X99150000Y-143061009D01*
X99150000Y-143584819D02*
X99150000Y-142584819D01*
X99150000Y-142584819D02*
X99626190Y-142584819D01*
X100150000Y-142584819D02*
X100150000Y-142822914D01*
X99911905Y-142727676D02*
X100150000Y-142822914D01*
X100150000Y-142822914D02*
X100388095Y-142727676D01*
X100007143Y-143013390D02*
X100150000Y-142822914D01*
X100150000Y-142822914D02*
X100292857Y-143013390D01*
X100911905Y-142584819D02*
X100911905Y-142822914D01*
X100673810Y-142727676D02*
X100911905Y-142822914D01*
X100911905Y-142822914D02*
X101150000Y-142727676D01*
X100769048Y-143013390D02*
X100911905Y-142822914D01*
X100911905Y-142822914D02*
X101054762Y-143013390D01*
X88611666Y-138324819D02*
X88278333Y-137848628D01*
X88040238Y-138324819D02*
X88040238Y-137324819D01*
X88040238Y-137324819D02*
X88421190Y-137324819D01*
X88421190Y-137324819D02*
X88516428Y-137372438D01*
X88516428Y-137372438D02*
X88564047Y-137420057D01*
X88564047Y-137420057D02*
X88611666Y-137515295D01*
X88611666Y-137515295D02*
X88611666Y-137658152D01*
X88611666Y-137658152D02*
X88564047Y-137753390D01*
X88564047Y-137753390D02*
X88516428Y-137801009D01*
X88516428Y-137801009D02*
X88421190Y-137848628D01*
X88421190Y-137848628D02*
X88040238Y-137848628D01*
X89040238Y-137801009D02*
X89373571Y-137801009D01*
X89516428Y-138324819D02*
X89040238Y-138324819D01*
X89040238Y-138324819D02*
X89040238Y-137324819D01*
X89040238Y-137324819D02*
X89516428Y-137324819D01*
X90278333Y-137801009D02*
X89945000Y-137801009D01*
X89945000Y-138324819D02*
X89945000Y-137324819D01*
X89945000Y-137324819D02*
X90421190Y-137324819D01*
X90945000Y-137324819D02*
X90945000Y-137562914D01*
X90706905Y-137467676D02*
X90945000Y-137562914D01*
X90945000Y-137562914D02*
X91183095Y-137467676D01*
X90802143Y-137753390D02*
X90945000Y-137562914D01*
X90945000Y-137562914D02*
X91087857Y-137753390D01*
X91706905Y-137324819D02*
X91706905Y-137562914D01*
X91468810Y-137467676D02*
X91706905Y-137562914D01*
X91706905Y-137562914D02*
X91945000Y-137467676D01*
X91564048Y-137753390D02*
X91706905Y-137562914D01*
X91706905Y-137562914D02*
X91849762Y-137753390D01*
X90066666Y-82012319D02*
X89733333Y-81536128D01*
X89495238Y-82012319D02*
X89495238Y-81012319D01*
X89495238Y-81012319D02*
X89876190Y-81012319D01*
X89876190Y-81012319D02*
X89971428Y-81059938D01*
X89971428Y-81059938D02*
X90019047Y-81107557D01*
X90019047Y-81107557D02*
X90066666Y-81202795D01*
X90066666Y-81202795D02*
X90066666Y-81345652D01*
X90066666Y-81345652D02*
X90019047Y-81440890D01*
X90019047Y-81440890D02*
X89971428Y-81488509D01*
X89971428Y-81488509D02*
X89876190Y-81536128D01*
X89876190Y-81536128D02*
X89495238Y-81536128D01*
X90495238Y-81488509D02*
X90828571Y-81488509D01*
X90971428Y-82012319D02*
X90495238Y-82012319D01*
X90495238Y-82012319D02*
X90495238Y-81012319D01*
X90495238Y-81012319D02*
X90971428Y-81012319D01*
X91733333Y-81488509D02*
X91400000Y-81488509D01*
X91400000Y-82012319D02*
X91400000Y-81012319D01*
X91400000Y-81012319D02*
X91876190Y-81012319D01*
X92400000Y-81012319D02*
X92400000Y-81250414D01*
X92161905Y-81155176D02*
X92400000Y-81250414D01*
X92400000Y-81250414D02*
X92638095Y-81155176D01*
X92257143Y-81440890D02*
X92400000Y-81250414D01*
X92400000Y-81250414D02*
X92542857Y-81440890D01*
X93161905Y-81012319D02*
X93161905Y-81250414D01*
X92923810Y-81155176D02*
X93161905Y-81250414D01*
X93161905Y-81250414D02*
X93400000Y-81155176D01*
X93019048Y-81440890D02*
X93161905Y-81250414D01*
X93161905Y-81250414D02*
X93304762Y-81440890D01*
D11*
G04 #@! TO.C,REF\u002A\u002A*
X108030000Y-154470000D02*
X108800000Y-154470000D01*
X116110000Y-154470000D02*
X115340000Y-154470000D01*
X108800000Y-153100000D02*
X115340000Y-153100000D01*
X115340000Y-155840000D01*
X108800000Y-155840000D01*
X108800000Y-153100000D01*
X118040000Y-156860000D02*
X114020000Y-156860000D01*
X116540000Y-156860000D02*
X116540000Y-157860000D01*
X114020000Y-156860000D02*
X114020000Y-164580000D01*
X115730000Y-157360000D02*
X115730000Y-156860000D01*
X114520000Y-157360000D02*
X115730000Y-157360000D01*
X116540000Y-157860000D02*
X118040000Y-157860000D01*
X116540000Y-163580000D02*
X118040000Y-163580000D01*
X115730000Y-164080000D02*
X114520000Y-164080000D01*
X114520000Y-164080000D02*
X114520000Y-157360000D01*
X118040000Y-164580000D02*
X118040000Y-156860000D01*
X116540000Y-164580000D02*
X116540000Y-163580000D01*
X115730000Y-164580000D02*
X115730000Y-164080000D01*
X114020000Y-164580000D02*
X118040000Y-164580000D01*
X118340000Y-164880000D02*
X118340000Y-162380000D01*
X115840000Y-164880000D02*
X118340000Y-164880000D01*
X118055000Y-83840000D02*
X112815000Y-83840000D01*
X118055000Y-81100000D02*
X118055000Y-83840000D01*
X112815000Y-83840000D02*
X112815000Y-81100000D01*
X112815000Y-81100000D02*
X118055000Y-81100000D01*
X117245000Y-86350000D02*
G75*
G02*
X113005000Y-86350000I-2120000J0D01*
G01*
X113005000Y-86350000D02*
G75*
G02*
X117245000Y-86350000I2120000J0D01*
G01*
X96625000Y-93870000D02*
X101875000Y-93870000D01*
X96625000Y-94970000D02*
X96625000Y-93870000D01*
X96625000Y-100125000D02*
X96845000Y-100125000D01*
X96625000Y-100420000D02*
X96625000Y-97990000D01*
X96625000Y-103735000D02*
X96845000Y-103735000D01*
X96625000Y-105870000D02*
X96625000Y-103440000D01*
X96625000Y-109990000D02*
X96625000Y-108890000D01*
X101875000Y-93870000D02*
X101875000Y-109990000D01*
X101875000Y-109990000D02*
X96625000Y-109990000D01*
X85945000Y-123840000D02*
X86715000Y-123840000D01*
X94025000Y-123840000D02*
X93255000Y-123840000D01*
X86715000Y-122470000D02*
X93255000Y-122470000D01*
X93255000Y-125210000D01*
X86715000Y-125210000D01*
X86715000Y-122470000D01*
X104495000Y-140200000D02*
X105265000Y-140200000D01*
X112575000Y-140200000D02*
X111805000Y-140200000D01*
X105265000Y-138830000D02*
X111805000Y-138830000D01*
X111805000Y-141570000D01*
X105265000Y-141570000D01*
X105265000Y-138830000D01*
X86035000Y-107400000D02*
X86805000Y-107400000D01*
X94115000Y-107400000D02*
X93345000Y-107400000D01*
X86805000Y-106030000D02*
X93345000Y-106030000D01*
X93345000Y-108770000D01*
X86805000Y-108770000D01*
X86805000Y-106030000D01*
X85847500Y-156637500D02*
X87847500Y-156637500D01*
X85847500Y-157887500D02*
X85847500Y-156637500D01*
X86237500Y-157027500D02*
X86237500Y-164497500D01*
X86237500Y-164497500D02*
X111857500Y-164497500D01*
X87387500Y-157987500D02*
X90387500Y-157987500D01*
X87387500Y-159337500D02*
X88137500Y-159337500D01*
X87387500Y-163637500D02*
X87387500Y-159337500D01*
X87637500Y-158987500D02*
X87387500Y-157987500D01*
X88137500Y-158987500D02*
X87637500Y-158987500D01*
X88137500Y-159337500D02*
X88137500Y-158987500D01*
X88137500Y-163637500D02*
X87387500Y-163637500D01*
X89637500Y-158987500D02*
X89637500Y-159337500D01*
X89637500Y-159337500D02*
X90387500Y-159337500D01*
X90137500Y-158987500D02*
X89637500Y-158987500D01*
X90387500Y-157987500D02*
X90137500Y-158987500D01*
X90387500Y-159337500D02*
X90387500Y-163637500D01*
X90387500Y-163637500D02*
X89637500Y-163637500D01*
X92467500Y-157987500D02*
X95467500Y-157987500D01*
X92467500Y-159337500D02*
X93217500Y-159337500D01*
X92467500Y-163637500D02*
X92467500Y-159337500D01*
X92717500Y-158987500D02*
X92467500Y-157987500D01*
X93217500Y-158987500D02*
X92717500Y-158987500D01*
X93217500Y-159337500D02*
X93217500Y-158987500D01*
X93217500Y-163637500D02*
X92467500Y-163637500D01*
X94717500Y-158987500D02*
X94717500Y-159337500D01*
X94717500Y-159337500D02*
X95467500Y-159337500D01*
X95217500Y-158987500D02*
X94717500Y-158987500D01*
X95467500Y-157987500D02*
X95217500Y-158987500D01*
X95467500Y-159337500D02*
X95467500Y-163637500D01*
X95467500Y-163637500D02*
X94717500Y-163637500D01*
X97547500Y-157987500D02*
X100547500Y-157987500D01*
X97547500Y-159337500D02*
X98297500Y-159337500D01*
X97547500Y-163637500D02*
X97547500Y-159337500D01*
X97797500Y-158987500D02*
X97547500Y-157987500D01*
X98297500Y-158987500D02*
X97797500Y-158987500D01*
X98297500Y-159337500D02*
X98297500Y-158987500D01*
X98297500Y-163637500D02*
X97547500Y-163637500D01*
X99797500Y-158987500D02*
X99797500Y-159337500D01*
X99797500Y-159337500D02*
X100547500Y-159337500D01*
X100297500Y-158987500D02*
X99797500Y-158987500D01*
X100547500Y-157987500D02*
X100297500Y-158987500D01*
X100547500Y-159337500D02*
X100547500Y-163637500D01*
X100547500Y-163637500D02*
X99797500Y-163637500D01*
X102627500Y-157987500D02*
X105627500Y-157987500D01*
X102627500Y-159337500D02*
X103377500Y-159337500D01*
X102627500Y-163637500D02*
X102627500Y-159337500D01*
X102877500Y-158987500D02*
X102627500Y-157987500D01*
X103377500Y-158987500D02*
X102877500Y-158987500D01*
X103377500Y-159337500D02*
X103377500Y-158987500D01*
X103377500Y-163637500D02*
X102627500Y-163637500D01*
X104877500Y-158987500D02*
X104877500Y-159337500D01*
X104877500Y-159337500D02*
X105627500Y-159337500D01*
X105377500Y-158987500D02*
X104877500Y-158987500D01*
X105627500Y-157987500D02*
X105377500Y-158987500D01*
X105627500Y-159337500D02*
X105627500Y-163637500D01*
X105627500Y-163637500D02*
X104877500Y-163637500D01*
X107707500Y-157987500D02*
X110707500Y-157987500D01*
X107707500Y-159337500D02*
X108457500Y-159337500D01*
X107707500Y-163637500D02*
X107707500Y-159337500D01*
X107957500Y-158987500D02*
X107707500Y-157987500D01*
X108457500Y-158987500D02*
X107957500Y-158987500D01*
X108457500Y-159337500D02*
X108457500Y-158987500D01*
X108457500Y-163637500D02*
X107707500Y-163637500D01*
X109957500Y-158987500D02*
X109957500Y-159337500D01*
X109957500Y-159337500D02*
X110707500Y-159337500D01*
X110457500Y-158987500D02*
X109957500Y-158987500D01*
X110707500Y-157987500D02*
X110457500Y-158987500D01*
X110707500Y-159337500D02*
X110707500Y-163637500D01*
X110707500Y-163637500D02*
X109957500Y-163637500D01*
X111857500Y-157027500D02*
X86237500Y-157027500D01*
X111857500Y-164497500D02*
X111857500Y-157027500D01*
X88137500Y-163637500D02*
G75*
G02*
X89637147Y-163637344I750000J-1700000D01*
G01*
X93217500Y-163637500D02*
G75*
G02*
X94717147Y-163637344I750000J-1700000D01*
G01*
X98297500Y-163637500D02*
G75*
G02*
X99797147Y-163637344I750000J-1700000D01*
G01*
X103377500Y-163637500D02*
G75*
G02*
X104877147Y-163637344I750000J-1700000D01*
G01*
X108457500Y-163637500D02*
G75*
G02*
X109957147Y-163637344I750000J-1700000D01*
G01*
X87590000Y-80995000D02*
X87590000Y-84240000D01*
X87590000Y-90765000D02*
X87590000Y-87520000D01*
X94067000Y-90765000D02*
X94067000Y-80995000D01*
X94187000Y-90765000D02*
X94187000Y-80995000D01*
X94307000Y-90765000D02*
X94307000Y-80995000D01*
X95450000Y-80995000D02*
X87590000Y-80995000D01*
X95450000Y-84240000D02*
X95450000Y-80995000D01*
X95450000Y-87520000D02*
X95450000Y-90765000D01*
X95450000Y-90765000D02*
X87590000Y-90765000D01*
X96625000Y-110270000D02*
X101875000Y-110270000D01*
X96625000Y-111370000D02*
X96625000Y-110270000D01*
X96625000Y-116525000D02*
X96845000Y-116525000D01*
X96625000Y-116820000D02*
X96625000Y-114390000D01*
X96625000Y-120135000D02*
X96845000Y-120135000D01*
X96625000Y-122270000D02*
X96625000Y-119840000D01*
X96625000Y-126390000D02*
X96625000Y-125290000D01*
X101875000Y-110270000D02*
X101875000Y-126390000D01*
X101875000Y-126390000D02*
X96625000Y-126390000D01*
X96625000Y-126670000D02*
X101875000Y-126670000D01*
X96625000Y-127770000D02*
X96625000Y-126670000D01*
X96625000Y-132925000D02*
X96845000Y-132925000D01*
X96625000Y-133220000D02*
X96625000Y-130790000D01*
X96625000Y-136535000D02*
X96845000Y-136535000D01*
X96625000Y-138670000D02*
X96625000Y-136240000D01*
X96625000Y-142790000D02*
X96625000Y-141690000D01*
X101875000Y-126670000D02*
X101875000Y-142790000D01*
X101875000Y-142790000D02*
X96625000Y-142790000D01*
X99820000Y-71660000D02*
X99820000Y-80480000D01*
X99820000Y-79670000D02*
X102570000Y-79670000D01*
X99820000Y-80480000D02*
X115040000Y-80480000D01*
X100730000Y-73370000D02*
X101680000Y-73370000D01*
X100730000Y-78670000D02*
X100730000Y-73370000D01*
X102680000Y-78670000D02*
X104680000Y-78670000D01*
X102680000Y-80480000D02*
X102680000Y-78670000D01*
X104680000Y-78670000D02*
X104680000Y-80480000D01*
X104680000Y-80480000D02*
X102680000Y-80480000D01*
X109180000Y-73370000D02*
X105680000Y-73370000D01*
X110180000Y-78670000D02*
X112180000Y-78670000D01*
X110180000Y-79670000D02*
X104680000Y-79670000D01*
X110180000Y-80480000D02*
X110180000Y-78670000D01*
X110880000Y-81280000D02*
X111180000Y-80680000D01*
X111180000Y-80680000D02*
X111480000Y-81280000D01*
X111480000Y-81280000D02*
X110880000Y-81280000D01*
X112180000Y-78670000D02*
X112180000Y-80480000D01*
X112180000Y-80480000D02*
X110180000Y-80480000D01*
X113180000Y-73370000D02*
X114130000Y-73370000D01*
X114130000Y-73370000D02*
X114130000Y-78670000D01*
X114130000Y-78670000D02*
X100730000Y-78670000D01*
X115040000Y-71660000D02*
X99820000Y-71660000D01*
X115040000Y-79670000D02*
X112290000Y-79670000D01*
X115040000Y-80480000D02*
X115040000Y-71660000D01*
X101693158Y-73354179D02*
G75*
G02*
X105680000Y-73370000I1986842J-1665821D01*
G01*
X109193158Y-73354179D02*
G75*
G02*
X113180000Y-73370000I1986842J-1665821D01*
G01*
X104625000Y-107360000D02*
X105395000Y-107360000D01*
X112705000Y-107360000D02*
X111935000Y-107360000D01*
X105395000Y-105990000D02*
X111935000Y-105990000D01*
X111935000Y-108730000D01*
X105395000Y-108730000D01*
X105395000Y-105990000D01*
X104535000Y-123800000D02*
X105305000Y-123800000D01*
X112615000Y-123800000D02*
X111845000Y-123800000D01*
X105305000Y-122430000D02*
X111845000Y-122430000D01*
X111845000Y-125170000D01*
X105305000Y-125170000D01*
X105305000Y-122430000D01*
X104270000Y-149380000D02*
G75*
G02*
X94030000Y-149380000I-5120000J0D01*
G01*
X94030000Y-149380000D02*
G75*
G02*
X104270000Y-149380000I5120000J0D01*
G01*
X85905000Y-140240000D02*
X86675000Y-140240000D01*
X93985000Y-140240000D02*
X93215000Y-140240000D01*
X86675000Y-138870000D02*
X93215000Y-138870000D01*
X93215000Y-141610000D01*
X86675000Y-141610000D01*
X86675000Y-138870000D01*
D12*
X102570000Y-89280000D02*
X102570000Y-82920000D01*
X112170000Y-82920000D02*
X112170000Y-89280000D01*
D13*
X112320000Y-81250000D02*
G75*
G02*
X112120000Y-81250000I-100000J0D01*
G01*
X112120000Y-81250000D02*
G75*
G02*
X112320000Y-81250000I100000J0D01*
G01*
D11*
X83790000Y-71647500D02*
X83790000Y-80467500D01*
X83790000Y-79657500D02*
X86540000Y-79657500D01*
X83790000Y-80467500D02*
X99010000Y-80467500D01*
X84700000Y-73357500D02*
X85650000Y-73357500D01*
X84700000Y-78657500D02*
X84700000Y-73357500D01*
X86650000Y-78657500D02*
X88650000Y-78657500D01*
X86650000Y-80467500D02*
X86650000Y-78657500D01*
X88650000Y-78657500D02*
X88650000Y-80467500D01*
X88650000Y-80467500D02*
X86650000Y-80467500D01*
X93150000Y-73357500D02*
X89650000Y-73357500D01*
X94150000Y-78657500D02*
X96150000Y-78657500D01*
X94150000Y-79657500D02*
X88650000Y-79657500D01*
X94150000Y-80467500D02*
X94150000Y-78657500D01*
X94850000Y-81267500D02*
X95150000Y-80667500D01*
X95150000Y-80667500D02*
X95450000Y-81267500D01*
X95450000Y-81267500D02*
X94850000Y-81267500D01*
X96150000Y-78657500D02*
X96150000Y-80467500D01*
X96150000Y-80467500D02*
X94150000Y-80467500D01*
X97150000Y-73357500D02*
X98100000Y-73357500D01*
X98100000Y-73357500D02*
X98100000Y-78657500D01*
X98100000Y-78657500D02*
X84700000Y-78657500D01*
X99010000Y-71647500D02*
X83790000Y-71647500D01*
X99010000Y-79657500D02*
X96260000Y-79657500D01*
X99010000Y-80467500D02*
X99010000Y-71647500D01*
X85663158Y-73341679D02*
G75*
G02*
X89650000Y-73357500I1986842J-1665821D01*
G01*
X93163158Y-73341679D02*
G75*
G02*
X97150000Y-73357500I1986842J-1665821D01*
G01*
G04 #@! TD*
%LPC*%
D14*
G04 #@! TO.C,REF\u002A\u002A*
X106990000Y-154470000D03*
X117150000Y-154470000D03*
G04 #@! TD*
D15*
G04 #@! TO.C,REF\u002A\u002A*
X115730000Y-159470000D03*
D16*
X115730000Y-161970000D03*
G04 #@! TD*
D14*
G04 #@! TO.C,REF\u002A\u002A*
X116685000Y-82470000D03*
X114185000Y-82470000D03*
G04 #@! TD*
D17*
G04 #@! TO.C,REF\u002A\u002A*
X114375000Y-86350000D03*
X115875000Y-86350000D03*
G04 #@! TD*
D18*
G04 #@! TO.C,REF\u002A\u002A*
X99065000Y-107380000D03*
D19*
X99065000Y-101930000D03*
X99065000Y-96480000D03*
G04 #@! TD*
D14*
G04 #@! TO.C,REF\u002A\u002A*
X84905000Y-123840000D03*
X95065000Y-123840000D03*
G04 #@! TD*
G04 #@! TO.C,REF\u002A\u002A*
X103455000Y-140200000D03*
X113615000Y-140200000D03*
G04 #@! TD*
G04 #@! TO.C,REF\u002A\u002A*
X84995000Y-107400000D03*
X95155000Y-107400000D03*
G04 #@! TD*
D20*
G04 #@! TO.C,REF\u002A\u002A*
X88887500Y-161487500D03*
D21*
X93967500Y-161487500D03*
X99047500Y-161487500D03*
X104127500Y-161487500D03*
X109207500Y-161487500D03*
G04 #@! TD*
D22*
G04 #@! TO.C,REF\u002A\u002A*
X96600000Y-85880000D03*
D23*
X86440000Y-85880000D03*
G04 #@! TD*
D18*
G04 #@! TO.C,REF\u002A\u002A*
X99065000Y-123780000D03*
D19*
X99065000Y-118330000D03*
X99065000Y-112880000D03*
G04 #@! TD*
D18*
G04 #@! TO.C,REF\u002A\u002A*
X99065000Y-140180000D03*
D19*
X99065000Y-134730000D03*
X99065000Y-129280000D03*
G04 #@! TD*
D24*
G04 #@! TO.C,REF\u002A\u002A*
X111180000Y-75570000D03*
D25*
X103680000Y-75570000D03*
G04 #@! TD*
D14*
G04 #@! TO.C,REF\u002A\u002A*
X103585000Y-107360000D03*
X113745000Y-107360000D03*
G04 #@! TD*
G04 #@! TO.C,REF\u002A\u002A*
X103495000Y-123800000D03*
X113655000Y-123800000D03*
G04 #@! TD*
G04 #@! TO.C,REF\u002A\u002A*
X96650000Y-149380000D03*
X101650000Y-149380000D03*
G04 #@! TD*
G04 #@! TO.C,REF\u002A\u002A*
X84865000Y-140240000D03*
X95025000Y-140240000D03*
G04 #@! TD*
D26*
G04 #@! TO.C,REF\u002A\u002A*
X111180000Y-82165000D03*
D27*
X108640000Y-82165000D03*
X106100000Y-82165000D03*
X103560000Y-82165000D03*
X103560000Y-90035000D03*
X106100000Y-90035000D03*
X108640000Y-90035000D03*
X111180000Y-90035000D03*
G04 #@! TD*
D24*
G04 #@! TO.C,REF\u002A\u002A*
X95150000Y-75557500D03*
D25*
X87650000Y-75557500D03*
G04 #@! TD*
%LPD*%
M02*
