G04 #@! TF.GenerationSoftware,KiCad,Pcbnew,9.0.3*
G04 #@! TF.CreationDate,2025-10-12T17:28:26-05:00*
G04 #@! TF.ProjectId,OSO-SWAT-C1,4f534f2d-5357-4415-942d-43312e6b6963,rev?*
G04 #@! TF.SameCoordinates,Original*
G04 #@! TF.FileFunction,Soldermask,Top*
G04 #@! TF.FilePolarity,Negative*
%FSLAX46Y46*%
G04 Gerber Fmt 4.6, Leading zero omitted, Abs format (unit mm)*
G04 Created by KiCad (PCBNEW 9.0.3) date 2025-10-12 17:28:26*
%MOMM*%
%LPD*%
G01*
G04 APERTURE LIST*
G04 Aperture macros list*
%AMRoundRect*
0 Rectangle with rounded corners*
0 $1 Rounding radius*
0 $2 $3 $4 $5 $6 $7 $8 $9 X,Y pos of 4 corners*
0 Add a 4 corners polygon primitive as box body*
4,1,4,$2,$3,$4,$5,$6,$7,$8,$9,$2,$3,0*
0 Add four circle primitives for the rounded corners*
1,1,$1+$1,$2,$3*
1,1,$1+$1,$4,$5*
1,1,$1+$1,$6,$7*
1,1,$1+$1,$8,$9*
0 Add four rect primitives between the rounded corners*
20,1,$1+$1,$2,$3,$4,$5,0*
20,1,$1+$1,$4,$5,$6,$7,0*
20,1,$1+$1,$6,$7,$8,$9,0*
20,1,$1+$1,$8,$9,$2,$3,0*%
G04 Aperture macros list end*
%ADD10C,1.600000*%
%ADD11O,2.000000X1.700000*%
%ADD12RoundRect,0.250000X0.750000X-0.600000X0.750000X0.600000X-0.750000X0.600000X-0.750000X-0.600000X0*%
%ADD13C,1.200000*%
%ADD14R,4.500000X2.500000*%
%ADD15O,4.500000X2.500000*%
%ADD16RoundRect,0.250000X-0.650000X-1.550000X0.650000X-1.550000X0.650000X1.550000X-0.650000X1.550000X0*%
%ADD17O,1.800000X3.600000*%
%ADD18RoundRect,0.250001X1.149999X1.149999X-1.149999X1.149999X-1.149999X-1.149999X1.149999X-1.149999X0*%
%ADD19C,2.800000*%
%ADD20RoundRect,0.250000X0.750000X1.550000X-0.750000X1.550000X-0.750000X-1.550000X0.750000X-1.550000X0*%
%ADD21O,2.000000X3.600000*%
%ADD22RoundRect,0.102000X-0.654000X0.654000X-0.654000X-0.654000X0.654000X-0.654000X0.654000X0.654000X0*%
%ADD23C,1.512000*%
G04 APERTURE END LIST*
D10*
G04 #@! TO.C,REF\u002A\u002A*
X106990000Y-154470000D03*
X117150000Y-154470000D03*
G04 #@! TD*
D11*
G04 #@! TO.C,REF\u002A\u002A*
X115730000Y-159470000D03*
D12*
X115730000Y-161970000D03*
G04 #@! TD*
D10*
G04 #@! TO.C,REF\u002A\u002A*
X116685000Y-82470000D03*
X114185000Y-82470000D03*
G04 #@! TD*
D13*
G04 #@! TO.C,REF\u002A\u002A*
X114375000Y-86350000D03*
X115875000Y-86350000D03*
G04 #@! TD*
D14*
G04 #@! TO.C,REF\u002A\u002A*
X99065000Y-107380000D03*
D15*
X99065000Y-101930000D03*
X99065000Y-96480000D03*
G04 #@! TD*
D10*
G04 #@! TO.C,REF\u002A\u002A*
X84905000Y-123840000D03*
X95065000Y-123840000D03*
G04 #@! TD*
G04 #@! TO.C,REF\u002A\u002A*
X103455000Y-140200000D03*
X113615000Y-140200000D03*
G04 #@! TD*
G04 #@! TO.C,REF\u002A\u002A*
X84995000Y-107400000D03*
X95155000Y-107400000D03*
G04 #@! TD*
D16*
G04 #@! TO.C,REF\u002A\u002A*
X88887500Y-161487500D03*
D17*
X93967500Y-161487500D03*
X99047500Y-161487500D03*
X104127500Y-161487500D03*
X109207500Y-161487500D03*
G04 #@! TD*
D18*
G04 #@! TO.C,REF\u002A\u002A*
X96600000Y-85880000D03*
D19*
X86440000Y-85880000D03*
G04 #@! TD*
D14*
G04 #@! TO.C,REF\u002A\u002A*
X99065000Y-123780000D03*
D15*
X99065000Y-118330000D03*
X99065000Y-112880000D03*
G04 #@! TD*
D14*
G04 #@! TO.C,REF\u002A\u002A*
X99065000Y-140180000D03*
D15*
X99065000Y-134730000D03*
X99065000Y-129280000D03*
G04 #@! TD*
D20*
G04 #@! TO.C,REF\u002A\u002A*
X111180000Y-75570000D03*
D21*
X103680000Y-75570000D03*
G04 #@! TD*
D10*
G04 #@! TO.C,REF\u002A\u002A*
X103585000Y-107360000D03*
X113745000Y-107360000D03*
G04 #@! TD*
G04 #@! TO.C,REF\u002A\u002A*
X103495000Y-123800000D03*
X113655000Y-123800000D03*
G04 #@! TD*
G04 #@! TO.C,REF\u002A\u002A*
X96650000Y-149380000D03*
X101650000Y-149380000D03*
G04 #@! TD*
G04 #@! TO.C,REF\u002A\u002A*
X84865000Y-140240000D03*
X95025000Y-140240000D03*
G04 #@! TD*
D22*
G04 #@! TO.C,REF\u002A\u002A*
X111180000Y-82165000D03*
D23*
X108640000Y-82165000D03*
X106100000Y-82165000D03*
X103560000Y-82165000D03*
X103560000Y-90035000D03*
X106100000Y-90035000D03*
X108640000Y-90035000D03*
X111180000Y-90035000D03*
G04 #@! TD*
D20*
G04 #@! TO.C,REF\u002A\u002A*
X95150000Y-75557500D03*
D21*
X87650000Y-75557500D03*
G04 #@! TD*
M02*
