G04 #@! TF.GenerationSoftware,KiCad,Pcbnew,9.0.3*
G04 #@! TF.CreationDate,2025-10-12T17:28:26-05:00*
G04 #@! TF.ProjectId,OSO-SWAT-C1,4f534f2d-5357-4415-942d-43312e6b6963,rev?*
G04 #@! TF.SameCoordinates,Original*
G04 #@! TF.FileFunction,Legend,Bot*
G04 #@! TF.FilePolarity,Positive*
%FSLAX46Y46*%
G04 Gerber Fmt 4.6, Leading zero omitted, Abs format (unit mm)*
G04 Created by KiCad (PCBNEW 9.0.3) date 2025-10-12 17:28:26*
%MOMM*%
%LPD*%
G01*
G04 APERTURE LIST*
G04 Aperture macros list*
%AMRoundRect*
0 Rectangle with rounded corners*
0 $1 Rounding radius*
0 $2 $3 $4 $5 $6 $7 $8 $9 X,Y pos of 4 corners*
0 Add a 4 corners polygon primitive as box body*
4,1,4,$2,$3,$4,$5,$6,$7,$8,$9,$2,$3,0*
0 Add four circle primitives for the rounded corners*
1,1,$1+$1,$2,$3*
1,1,$1+$1,$4,$5*
1,1,$1+$1,$6,$7*
1,1,$1+$1,$8,$9*
0 Add four rect primitives between the rounded corners*
20,1,$1+$1,$2,$3,$4,$5,0*
20,1,$1+$1,$4,$5,$6,$7,0*
20,1,$1+$1,$6,$7,$8,$9,0*
20,1,$1+$1,$8,$9,$2,$3,0*%
%AMFreePoly0*
4,1,23,0.550000,-0.750000,0.000000,-0.750000,0.000000,-0.745722,-0.065263,-0.745722,-0.191342,-0.711940,-0.304381,-0.646677,-0.396677,-0.554381,-0.461940,-0.441342,-0.495722,-0.315263,-0.495722,-0.250000,-0.500000,-0.250000,-0.500000,0.250000,-0.495722,0.250000,-0.495722,0.315263,-0.461940,0.441342,-0.396677,0.554381,-0.304381,0.646677,-0.191342,0.711940,-0.065263,0.745722,0.000000,0.745722,
0.000000,0.750000,0.550000,0.750000,0.550000,-0.750000,0.550000,-0.750000,$1*%
%AMFreePoly1*
4,1,23,0.000000,0.745722,0.065263,0.745722,0.191342,0.711940,0.304381,0.646677,0.396677,0.554381,0.461940,0.441342,0.495722,0.315263,0.495722,0.250000,0.500000,0.250000,0.500000,-0.250000,0.495722,-0.250000,0.495722,-0.315263,0.461940,-0.441342,0.396677,-0.554381,0.304381,-0.646677,0.191342,-0.711940,0.065263,-0.745722,0.000000,-0.745722,0.000000,-0.750000,-0.550000,-0.750000,
-0.550000,0.750000,0.000000,0.750000,0.000000,0.745722,0.000000,0.745722,$1*%
G04 Aperture macros list end*
%ADD10C,0.150000*%
%ADD11C,0.120000*%
%ADD12C,1.600000*%
%ADD13O,2.000000X1.700000*%
%ADD14RoundRect,0.250000X0.750000X-0.600000X0.750000X0.600000X-0.750000X0.600000X-0.750000X-0.600000X0*%
%ADD15C,1.200000*%
%ADD16R,4.500000X2.500000*%
%ADD17O,4.500000X2.500000*%
%ADD18RoundRect,0.250000X-0.650000X-1.550000X0.650000X-1.550000X0.650000X1.550000X-0.650000X1.550000X0*%
%ADD19O,1.800000X3.600000*%
%ADD20RoundRect,0.250001X1.149999X1.149999X-1.149999X1.149999X-1.149999X-1.149999X1.149999X-1.149999X0*%
%ADD21C,2.800000*%
%ADD22RoundRect,0.250000X0.750000X1.550000X-0.750000X1.550000X-0.750000X-1.550000X0.750000X-1.550000X0*%
%ADD23O,2.000000X3.600000*%
%ADD24RoundRect,0.102000X-0.654000X0.654000X-0.654000X-0.654000X0.654000X-0.654000X0.654000X0.654000X0*%
%ADD25C,1.512000*%
%ADD26FreePoly0,0.000000*%
%ADD27R,1.000000X1.500000*%
%ADD28FreePoly1,0.000000*%
G04 APERTURE END LIST*
D10*
X106153333Y-81084819D02*
X106486666Y-80608628D01*
X106724761Y-81084819D02*
X106724761Y-80084819D01*
X106724761Y-80084819D02*
X106343809Y-80084819D01*
X106343809Y-80084819D02*
X106248571Y-80132438D01*
X106248571Y-80132438D02*
X106200952Y-80180057D01*
X106200952Y-80180057D02*
X106153333Y-80275295D01*
X106153333Y-80275295D02*
X106153333Y-80418152D01*
X106153333Y-80418152D02*
X106200952Y-80513390D01*
X106200952Y-80513390D02*
X106248571Y-80561009D01*
X106248571Y-80561009D02*
X106343809Y-80608628D01*
X106343809Y-80608628D02*
X106724761Y-80608628D01*
X105724761Y-80561009D02*
X105391428Y-80561009D01*
X105248571Y-81084819D02*
X105724761Y-81084819D01*
X105724761Y-81084819D02*
X105724761Y-80084819D01*
X105724761Y-80084819D02*
X105248571Y-80084819D01*
X104486666Y-80561009D02*
X104819999Y-80561009D01*
X104819999Y-81084819D02*
X104819999Y-80084819D01*
X104819999Y-80084819D02*
X104343809Y-80084819D01*
X103819999Y-80084819D02*
X103819999Y-80322914D01*
X104058094Y-80227676D02*
X103819999Y-80322914D01*
X103819999Y-80322914D02*
X103581904Y-80227676D01*
X103962856Y-80513390D02*
X103819999Y-80322914D01*
X103819999Y-80322914D02*
X103677142Y-80513390D01*
X103058094Y-80084819D02*
X103058094Y-80322914D01*
X103296189Y-80227676D02*
X103058094Y-80322914D01*
X103058094Y-80322914D02*
X102819999Y-80227676D01*
X103200951Y-80513390D02*
X103058094Y-80322914D01*
X103058094Y-80322914D02*
X102915237Y-80513390D01*
X101934285Y-79284819D02*
X102505713Y-79284819D01*
X102219999Y-79284819D02*
X102219999Y-78284819D01*
X102219999Y-78284819D02*
X102315237Y-78427676D01*
X102315237Y-78427676D02*
X102410475Y-78522914D01*
X102410475Y-78522914D02*
X102505713Y-78570533D01*
X107753332Y-78284819D02*
X107134285Y-78284819D01*
X107134285Y-78284819D02*
X107467618Y-78665771D01*
X107467618Y-78665771D02*
X107324761Y-78665771D01*
X107324761Y-78665771D02*
X107229523Y-78713390D01*
X107229523Y-78713390D02*
X107181904Y-78761009D01*
X107181904Y-78761009D02*
X107134285Y-78856247D01*
X107134285Y-78856247D02*
X107134285Y-79094342D01*
X107134285Y-79094342D02*
X107181904Y-79189580D01*
X107181904Y-79189580D02*
X107229523Y-79237200D01*
X107229523Y-79237200D02*
X107324761Y-79284819D01*
X107324761Y-79284819D02*
X107610475Y-79284819D01*
X107610475Y-79284819D02*
X107705713Y-79237200D01*
X107705713Y-79237200D02*
X107753332Y-79189580D01*
D11*
G04 #@! TO.C,REF\u002A\u002A*
X102770000Y-78530000D02*
X102770000Y-79130000D01*
X103420000Y-79830000D02*
X106220000Y-79830000D01*
X106220000Y-77830000D02*
X103420000Y-77830000D01*
X106870000Y-79130000D02*
X106870000Y-78530000D01*
X102770000Y-78530000D02*
G75*
G02*
X103470000Y-77830000I699999J1D01*
G01*
X103470000Y-79830000D02*
G75*
G02*
X102770000Y-79130000I-1J699999D01*
G01*
X106170000Y-77830000D02*
G75*
G02*
X106870000Y-78530000I0J-700000D01*
G01*
X106870000Y-79130000D02*
G75*
G02*
X106170000Y-79830000I-700000J0D01*
G01*
G04 #@! TD*
%LPC*%
G04 #@! TO.C,REF\u002A\u002A*
G36*
X104070000Y-79580000D02*
G01*
X105570000Y-79580000D01*
X105570000Y-78080000D01*
X104070000Y-78080000D01*
X104070000Y-79580000D01*
G37*
G04 #@! TD*
D12*
G04 #@! TO.C,REF\u002A\u002A*
X106990000Y-154470000D03*
X117150000Y-154470000D03*
G04 #@! TD*
D13*
G04 #@! TO.C,REF\u002A\u002A*
X115730000Y-159470000D03*
D14*
X115730000Y-161970000D03*
G04 #@! TD*
D12*
G04 #@! TO.C,REF\u002A\u002A*
X116685000Y-82470000D03*
X114185000Y-82470000D03*
G04 #@! TD*
D15*
G04 #@! TO.C,REF\u002A\u002A*
X114375000Y-86350000D03*
X115875000Y-86350000D03*
G04 #@! TD*
D16*
G04 #@! TO.C,REF\u002A\u002A*
X99065000Y-107380000D03*
D17*
X99065000Y-101930000D03*
X99065000Y-96480000D03*
G04 #@! TD*
D12*
G04 #@! TO.C,REF\u002A\u002A*
X84905000Y-123840000D03*
X95065000Y-123840000D03*
G04 #@! TD*
G04 #@! TO.C,REF\u002A\u002A*
X103455000Y-140200000D03*
X113615000Y-140200000D03*
G04 #@! TD*
G04 #@! TO.C,REF\u002A\u002A*
X84995000Y-107400000D03*
X95155000Y-107400000D03*
G04 #@! TD*
D18*
G04 #@! TO.C,REF\u002A\u002A*
X88887500Y-161487500D03*
D19*
X93967500Y-161487500D03*
X99047500Y-161487500D03*
X104127500Y-161487500D03*
X109207500Y-161487500D03*
G04 #@! TD*
D20*
G04 #@! TO.C,REF\u002A\u002A*
X96600000Y-85880000D03*
D21*
X86440000Y-85880000D03*
G04 #@! TD*
D16*
G04 #@! TO.C,REF\u002A\u002A*
X99065000Y-123780000D03*
D17*
X99065000Y-118330000D03*
X99065000Y-112880000D03*
G04 #@! TD*
D16*
G04 #@! TO.C,REF\u002A\u002A*
X99065000Y-140180000D03*
D17*
X99065000Y-134730000D03*
X99065000Y-129280000D03*
G04 #@! TD*
D22*
G04 #@! TO.C,REF\u002A\u002A*
X111180000Y-75570000D03*
D23*
X103680000Y-75570000D03*
G04 #@! TD*
D12*
G04 #@! TO.C,REF\u002A\u002A*
X103585000Y-107360000D03*
X113745000Y-107360000D03*
G04 #@! TD*
G04 #@! TO.C,REF\u002A\u002A*
X103495000Y-123800000D03*
X113655000Y-123800000D03*
G04 #@! TD*
G04 #@! TO.C,REF\u002A\u002A*
X96650000Y-149380000D03*
X101650000Y-149380000D03*
G04 #@! TD*
G04 #@! TO.C,REF\u002A\u002A*
X84865000Y-140240000D03*
X95025000Y-140240000D03*
G04 #@! TD*
D24*
G04 #@! TO.C,REF\u002A\u002A*
X111180000Y-82165000D03*
D25*
X108640000Y-82165000D03*
X106100000Y-82165000D03*
X103560000Y-82165000D03*
X103560000Y-90035000D03*
X106100000Y-90035000D03*
X108640000Y-90035000D03*
X111180000Y-90035000D03*
G04 #@! TD*
D22*
G04 #@! TO.C,REF\u002A\u002A*
X95150000Y-75557500D03*
D23*
X87650000Y-75557500D03*
G04 #@! TD*
D26*
G04 #@! TO.C,REF\u002A\u002A*
X103520000Y-78830000D03*
D27*
X104820000Y-78830000D03*
D28*
X106120000Y-78830000D03*
G04 #@! TD*
%LPD*%
M02*
